<svg xmlns="http://www.w3.org/2000/svg" width="22.652" height="22.589" viewBox="0 0 22.652 22.589">
  <path id="book_5_" data-name="book (5)" d="M22.724,4.992c-.429-.089-.858-.146-1.288-.219V4.336a2.227,2.227,0,0,0-.753-1.668A2.259,2.259,0,0,0,18.9,2.126,9.216,9.216,0,0,0,13.338,4.9a9.216,9.216,0,0,0-5.564-2.77,2.259,2.259,0,0,0-1.782.543,2.227,2.227,0,0,0-.753,1.668v.437c-.429.073-.858.13-1.288.219A2.43,2.43,0,0,0,2,7.373V21.092A2.394,2.394,0,0,0,4.729,23.5,15.63,15.63,0,0,1,13,24.631a.81.81,0,0,0,.632,0A15.63,15.63,0,0,1,21.9,23.5a2.43,2.43,0,0,0,2.753-2.43V7.373a2.43,2.43,0,0,0-1.927-2.381ZM19.112,3.729a.632.632,0,0,1,.5.154.607.607,0,0,1,.2.454V18.355a.81.81,0,0,1-.632.81,9.661,9.661,0,0,0-5.037,2.527V6.393A7.783,7.783,0,0,1,19.112,3.729ZM6.859,4.336a.624.624,0,0,1,.615-.615h.089a7.783,7.783,0,0,1,4.964,2.672v15.3a9.661,9.661,0,0,0-5.037-2.543.81.81,0,0,1-.632-.81ZM4.535,21.894a.81.81,0,0,1-.915-.81V7.373a.81.81,0,0,1,.648-.81c.324-.065.648-.113.972-.162V18.355a2.43,2.43,0,0,0,1.984,2.389,7.92,7.92,0,0,1,3.3,1.4,17.007,17.007,0,0,0-5.985-.251Zm18.521-.81a.81.81,0,0,1-.915.81,17.007,17.007,0,0,0-5.985.251,7.92,7.92,0,0,1,3.3-1.4,2.43,2.43,0,0,0,1.984-2.389V6.418c.324.049.648.1.98.162a.81.81,0,0,1,.64.81Z" transform="translate(-2 -2.107)" fill="#039a7b"/>
</svg>
