<svg xmlns="http://www.w3.org/2000/svg" xmlns:xlink="http://www.w3.org/1999/xlink" width="39.017" height="50" viewBox="0 0 39.017 50">
  <defs>
    <radialGradient id="radial-gradient" cx="0.267" cy="0.258" r="0.809" gradientTransform="translate(0.046) scale(0.907 1)" gradientUnits="objectBoundingBox">
      <stop offset="0" stop-color="#ff7044"/>
      <stop offset="0.239" stop-color="#ff6c41"/>
      <stop offset="0.473" stop-color="#fe603a"/>
      <stop offset="0.705" stop-color="#fc4d2c"/>
      <stop offset="0.935" stop-color="#fa311a"/>
      <stop offset="1" stop-color="#f92814"/>
    </radialGradient>
    <linearGradient id="linear-gradient" x1="0.474" y1="0.629" x2="0.354" y2="-0.219" gradientUnits="objectBoundingBox">
      <stop offset="0" stop-color="#ff1d25" stop-opacity="0"/>
      <stop offset="1" stop-color="#ff1d25"/>
    </linearGradient>
    <linearGradient id="linear-gradient-2" x1="0.555" y1="0.365" x2="0.17" y2="-0.235" gradientUnits="objectBoundingBox">
      <stop offset="0" stop-color="#f92814" stop-opacity="0"/>
      <stop offset="1" stop-color="#c1272d"/>
    </linearGradient>
    <linearGradient id="linear-gradient-3" x1="-3.002" y1="-2.444" x2="-2.473" y2="-1.879" gradientUnits="objectBoundingBox">
      <stop offset="0" stop-color="#92f37f"/>
      <stop offset="1" stop-color="#4ab272"/>
    </linearGradient>
    <linearGradient id="linear-gradient-4" x1="-3.248" y1="-2.201" x2="-3.808" y2="-2.594" gradientUnits="objectBoundingBox">
      <stop offset="0" stop-color="#4ab272" stop-opacity="0"/>
      <stop offset="1" stop-color="#009245"/>
    </linearGradient>
    <linearGradient id="linear-gradient-5" x1="-4.702" y1="-3.039" x2="-4.518" y2="-2.866" xlink:href="#linear-gradient-4"/>
    <linearGradient id="linear-gradient-6" y1="0.5" x2="1" y2="0.5" gradientUnits="objectBoundingBox">
      <stop offset="0" stop-color="#7e8595"/>
      <stop offset="1" stop-color="#555a66"/>
    </linearGradient>
    <linearGradient id="linear-gradient-7" x1="0.561" y1="0.634" x2="0.266" y2="-0.489" xlink:href="#linear-gradient-2"/>
    <linearGradient id="linear-gradient-8" x1="0.5" y1="-0.302" x2="0.5" y2="1.162" xlink:href="#linear-gradient-6"/>
    <linearGradient id="linear-gradient-9" x1="0.586" y1="0.551" x2="-0.397" y2="-0.034" gradientUnits="objectBoundingBox">
      <stop offset="0" stop-color="#ff7044" stop-opacity="0"/>
      <stop offset="0.25" stop-color="#ff813a" stop-opacity="0.251"/>
      <stop offset="0.719" stop-color="#ff9a2b" stop-opacity="0.718"/>
      <stop offset="1" stop-color="#ffa425"/>
    </linearGradient>
    <linearGradient id="linear-gradient-10" x1="0.337" y1="-0.452" x2="0.877" y2="2.361" gradientUnits="objectBoundingBox">
      <stop offset="0" stop-color="#18cffc"/>
      <stop offset="1" stop-color="#4a98f7"/>
    </linearGradient>
    <linearGradient id="linear-gradient-11" x1="0.497" y1="0.16" x2="0.52" y2="1.479" gradientUnits="objectBoundingBox">
      <stop offset="0" stop-color="#0469bc" stop-opacity="0"/>
      <stop offset="1" stop-color="#0469bc"/>
    </linearGradient>
    <linearGradient id="linear-gradient-12" x1="0.5" y1="0.151" x2="0.5" y2="0.984" gradientUnits="objectBoundingBox">
      <stop offset="0" stop-color="#f9f7fc"/>
      <stop offset="1" stop-color="#f0ddfc"/>
    </linearGradient>
    <linearGradient id="linear-gradient-13" x1="0.498" y1="1.037" x2="0.506" y2="-3.301" gradientUnits="objectBoundingBox">
      <stop offset="0" stop-color="#f0ddfc" stop-opacity="0"/>
      <stop offset="0.289" stop-color="#c8b7e0" stop-opacity="0.29"/>
      <stop offset="0.591" stop-color="#a595c8" stop-opacity="0.592"/>
      <stop offset="0.84" stop-color="#8f81b8" stop-opacity="0.839"/>
      <stop offset="1" stop-color="#8779b3"/>
    </linearGradient>
    <linearGradient id="linear-gradient-14" x1="0.5" y1="0.49" x2="0.5" y2="-0.677" xlink:href="#linear-gradient-13"/>
    <linearGradient id="linear-gradient-15" x1="0.501" y1="0.249" x2="0.503" y2="-0.274" xlink:href="#linear-gradient-13"/>
    <linearGradient id="linear-gradient-16" x1="0.504" y1="1.033" x2="0.404" y2="0.107" xlink:href="#linear-gradient-13"/>
    <linearGradient id="linear-gradient-17" x1="0.273" y1="0.076" x2="0.95" y2="1.305" gradientUnits="objectBoundingBox">
      <stop offset="0" stop-color="#ff7044"/>
      <stop offset="1" stop-color="#f92814"/>
    </linearGradient>
    <linearGradient id="linear-gradient-18" x1="0.417" y1="-0.278" x2="0.569" y2="1.351" xlink:href="#linear-gradient-3"/>
    <linearGradient id="linear-gradient-19" x1="2.453" y1="0.5" x2="1.256" y2="0.5" xlink:href="#linear-gradient-4"/>
    <linearGradient id="linear-gradient-20" x1="0.531" y1="0.151" x2="0.531" y2="0.984" xlink:href="#linear-gradient-12"/>
    <linearGradient id="linear-gradient-21" x1="0.539" y1="1.048" x2="0.546" y2="-3.377" xlink:href="#linear-gradient-13"/>
    <linearGradient id="linear-gradient-22" x1="0.531" y1="0.49" x2="0.531" y2="-0.677" xlink:href="#linear-gradient-13"/>
    <linearGradient id="linear-gradient-23" x1="0.532" y1="0.247" x2="0.534" y2="-0.281" xlink:href="#linear-gradient-13"/>
    <linearGradient id="linear-gradient-24" x1="2.561" y1="0.5" x2="0.819" y2="0.5" xlink:href="#linear-gradient-13"/>
    <linearGradient id="linear-gradient-25" x1="0.44" y1="-0.278" x2="0.592" y2="1.351" gradientUnits="objectBoundingBox">
      <stop offset="0" stop-color="#ffda45"/>
      <stop offset="1" stop-color="#ffa425"/>
    </linearGradient>
    <linearGradient id="linear-gradient-26" x1="0.592" y1="0.909" x2="0.314" y2="-1.634" gradientUnits="objectBoundingBox">
      <stop offset="0" stop-color="#ffda45" stop-opacity="0"/>
      <stop offset="1" stop-color="#b53759"/>
    </linearGradient>
    <linearGradient id="linear-gradient-27" x1="0.818" y1="0.5" x2="-0.379" y2="0.5" xlink:href="#linear-gradient-26"/>
    <linearGradient id="linear-gradient-29" x1="0.498" y1="1.048" x2="0.506" y2="-3.377" xlink:href="#linear-gradient-13"/>
    <linearGradient id="linear-gradient-30" x1="0.5" y1="0.49" x2="0.5" y2="-0.677" xlink:href="#linear-gradient-13"/>
    <linearGradient id="linear-gradient-31" x1="0.501" y1="0.247" x2="0.503" y2="-0.281" xlink:href="#linear-gradient-13"/>
    <linearGradient id="linear-gradient-32" x1="0.657" y1="1.002" x2="0.032" y2="-2.968" xlink:href="#linear-gradient-13"/>
    <linearGradient id="linear-gradient-33" x1="0.739" y1="0.5" x2="-1.003" y2="0.5" xlink:href="#linear-gradient-13"/>
  </defs>
  <g id="books" transform="translate(-56.013 0)">
    <path id="Path_482" data-name="Path 482" d="M153.3,62.476c-1.479.318-2.866,1.627-3.873,1.627s-2.394-1.308-3.873-1.627c-3.137-.41-7.591,1.781-7.591,8.52s4.88,12.238,6.971,12.238c2.324,0,2.634-1.084,4.492-1.084s2.169,1.084,4.492,1.084c2.091,0,6.971-5.5,6.971-12.238S156.438,62.066,153.3,62.476Z" transform="translate(-73.917 -56.308)" fill="url(#radial-gradient)"/>
    <path id="Path_483" data-name="Path 483" d="M259.651,62.491a5.959,5.959,0,0,0-1.6-.013c-1.479.318-2.866,1.627-3.873,1.627-.026,0-.052,0-.078,0v1.64l1.372.256,9.443,1.761Z" transform="translate(-178.669 -56.31)" fill="url(#linear-gradient)"/>
    <path id="Path_484" data-name="Path 484" d="M257.313,62.476c-1.479.318-2.866,1.627-3.873,1.627a1.3,1.3,0,0,1-.158-.011,6.954,6.954,0,0,0,.533,1.034l-.006.025.038.023.038.023,10.306,10.3A14.929,14.929,0,0,0,264.9,71C264.9,64.258,260.45,62.066,257.313,62.476Z" transform="translate(-177.929 -56.308)" fill="url(#linear-gradient-2)"/>
    <path id="Path_485" data-name="Path 485" d="M249.209,8.866s-4.73-6.9,5.712-8.852a.827.827,0,0,1,.956.631C256.352,2.722,256.928,8.388,249.209,8.866Z" transform="translate(-173.291 0)" fill="url(#linear-gradient-3)"/>
    <path id="Path_486" data-name="Path 486" d="M265.71,1.586a.829.829,0,0,0-.409-.542,54.418,54.418,0,0,0-6.258,8.764c7.72-.478,7.144-6.144,6.668-8.221Z" transform="translate(-183.124 -0.942)" fill="url(#linear-gradient-4)"/>
    <path id="Path_487" data-name="Path 487" d="M263.637,15.815c-.081.029-.164.052-.245.075s-.163.048-.245.067A2.017,2.017,0,0,1,262.9,16a.793.793,0,0,0-.239.069,1.808,1.808,0,0,0-.223.126l.184-.3.306-.477c.1-.16.211-.312.315-.471a10.575,10.575,0,0,1,.68-.9l-.06-.064-.218.188-.11.095c-.036.032-.069.067-.1.1-.134.136-.276.269-.4.412-.263.28-.511.571-.761.862l-.14.172a.786.786,0,0,0-.018-.184,2.021,2.021,0,0,1-.048-.249c-.01-.084-.016-.168-.022-.253s-.013-.171-.014-.256c-.01-.173,0-.346,0-.524l-.047-.012a3.355,3.355,0,0,0-.192.5c-.026.087-.046.175-.067.264s-.033.179-.045.269-.031.181-.044.274a.726.726,0,0,0,.015.274c0,.018.01.035.015.053a.615.615,0,0,1-.107.557l0,0c-.214.275-.422.553-.632.831a1.812,1.812,0,0,0-.023-.248.791.791,0,0,0-.079-.235,2.025,2.025,0,0,1-.109-.229c-.031-.079-.058-.159-.084-.24s-.055-.162-.078-.245c-.053-.165-.09-.334-.133-.506h-.049a3.352,3.352,0,0,0-.06.537c0,.091,0,.181,0,.272s.013.182.024.272.016.183.025.276a.729.729,0,0,0,.083.262c.02.036.042.071.066.105a.471.471,0,0,1-.022.554c-.107.138-.215.276-.321.415-.135.176-.26.358-.378.544a1.9,1.9,0,0,0-.022-.216.789.789,0,0,0-.079-.235,2.024,2.024,0,0,1-.109-.23c-.031-.079-.058-.159-.084-.24s-.055-.162-.078-.245c-.053-.165-.09-.334-.133-.506h-.049a3.35,3.35,0,0,0-.06.537c0,.091,0,.181,0,.272s.013.182.024.272.016.183.026.276a.727.727,0,0,0,.083.262,1.141,1.141,0,0,0,.165.229.258.258,0,0,1,.045.3c-.132.255-.367.719-.474.974a7.016,7.016,0,0,0-.373,1.11l.075.046a7.937,7.937,0,0,0,.824-.827q.379-.433.715-.891l.012-.016a.263.263,0,0,1,.314-.083,1.157,1.157,0,0,0,.254.069.725.725,0,0,0,.274-.013c.09-.023.179-.05.268-.072s.177-.046.264-.072.172-.059.256-.094a3.361,3.361,0,0,0,.483-.242l-.016-.046c-.177.019-.349.043-.521.05-.085.008-.171.009-.257.012s-.169.006-.254,0a2.015,2.015,0,0,1-.253-.023.789.789,0,0,0-.248.007,1.771,1.771,0,0,0-.27.075q.161-.251.305-.512c.076-.14.18-.327.272-.492a.462.462,0,0,1,.493-.232c.1.02.194.025.283.04a.725.725,0,0,0,.274-.013c.09-.023.179-.05.268-.072s.177-.046.264-.072.172-.059.256-.094a3.353,3.353,0,0,0,.483-.242l-.016-.046c-.177.019-.349.043-.521.05-.085.008-.171.009-.257.012s-.169.006-.254,0a2.032,2.032,0,0,1-.253-.023.789.789,0,0,0-.248.007,1.542,1.542,0,0,0-.487.177c.2-.323.388-.649.588-.969l.007-.013a.619.619,0,0,1,.562-.309,1.259,1.259,0,0,0,.192,0,.727.727,0,0,0,.263-.081c.082-.045.161-.093.241-.136s.159-.089.237-.135.152-.1.224-.155a3.373,3.373,0,0,0,.407-.355l-.027-.04c-.166.063-.326.129-.491.179Z" transform="translate(-182.775 -12.611)" fill="url(#linear-gradient-5)"/>
    <path id="Path_488" data-name="Path 488" d="M224.188,19.726c-.2.017-.411.026-.623.026-.15,0-.3,0-.441-.013a14.848,14.848,0,0,0-.469-3.549,9.716,9.716,0,0,0-.874-2.205,5.486,5.486,0,0,0-1.337-1.685.532.532,0,0,1,.615-.868,8.187,8.187,0,0,1,2.684,4.7,15.783,15.783,0,0,1,.445,3.591Z" transform="translate(-148.111 -10.224)" fill="url(#linear-gradient-6)"/>
    <path id="Path_489" data-name="Path 489" d="M220.543,84.012a3.583,3.583,0,0,1-.471.3,4.955,4.955,0,0,1-.5.217,6.878,6.878,0,0,1-1.037.288,10.861,10.861,0,0,1-2.138.2,11.026,11.026,0,0,1-2.138-.2,6.8,6.8,0,0,1-1.037-.289,4.777,4.777,0,0,1-.5-.216c-.079-.044-.163-.085-.239-.137s-.153-.1-.233-.158a2.185,2.185,0,0,0,.4.5l6.822,6.822a3,3,0,0,0,.545.458,4.686,4.686,0,0,0,1.047.514,7.188,7.188,0,0,0,4.572,0,4.736,4.736,0,0,0,1.047-.513,2.59,2.59,0,0,0,.813-.817Z" transform="translate(-140.922 -75.776)" fill="url(#linear-gradient-7)"/>
    <path id="Path_490" data-name="Path 490" d="M220.543,84.012a2.59,2.59,0,0,1-.813.817,4.736,4.736,0,0,1-1.047.513,7.188,7.188,0,0,1-4.572,0,4.68,4.68,0,0,1-1.047-.514,2.571,2.571,0,0,1-.813-.817c.08.054.151.112.233.158s.159.093.239.137a4.749,4.749,0,0,0,.5.216,6.8,6.8,0,0,0,1.037.289,11.028,11.028,0,0,0,2.138.2,10.856,10.856,0,0,0,2.138-.2,6.861,6.861,0,0,0,1.037-.288,4.989,4.989,0,0,0,.5-.217,3.592,3.592,0,0,0,.471-.3Z" transform="translate(-140.922 -75.776)" fill="url(#linear-gradient-8)"/>
    <ellipse id="Ellipse_954" data-name="Ellipse 954" cx="6.194" cy="7.011" rx="6.194" ry="7.011" transform="translate(65.141 6.875)" fill="url(#linear-gradient-9)"/>
    <path id="Path_491" data-name="Path 491" d="M95.01,432.781v5.228a1.231,1.231,0,0,1-1.231,1.231H59.86a3.846,3.846,0,1,1,0-7.691H93.779A1.232,1.232,0,0,1,95.01,432.781Z" transform="translate(-0.001 -389.241)" fill="url(#linear-gradient-10)"/>
    <path id="Path_492" data-name="Path 492" d="M95.01,432.781v5.228a1.231,1.231,0,0,1-1.231,1.231H59.86a3.846,3.846,0,1,1,0-7.691H93.779A1.232,1.232,0,0,1,95.01,432.781Z" transform="translate(-0.001 -389.241)" fill="url(#linear-gradient-11)"/>
    <path id="Path_493" data-name="Path 493" d="M103.189,446.881H71.065a2.914,2.914,0,1,1,0-5.828h32.288a1.132,1.132,0,0,1,1.132,1.132v3.4A1.3,1.3,0,0,1,103.189,446.881Z" transform="translate(-10.948 -397.813)" fill="url(#linear-gradient-12)"/>
    <path id="Path_494" data-name="Path 494" d="M71.6,484.667a2.913,2.913,0,0,0,2.576,1.552H106.3a1.3,1.3,0,0,0,1.3-1.3v-.256h-36Z" transform="translate(-14.057 -437.151)" fill="url(#linear-gradient-13)"/>
    <path id="Path_495" data-name="Path 495" d="M71.066,473.689H103.19a1.3,1.3,0,0,0,1.3-1.3v-1.618H68.152A2.914,2.914,0,0,0,71.066,473.689Z" transform="translate(-10.949 -424.621)" fill="url(#linear-gradient-14)"/>
    <path id="Path_496" data-name="Path 496" d="M68.476,457.167a2.913,2.913,0,0,0,2.59,4.248H103.19a1.3,1.3,0,0,0,1.3-1.3v-2.952H68.476Z" transform="translate(-10.949 -412.347)" fill="url(#linear-gradient-15)"/>
    <path id="Path_497" data-name="Path 497" d="M119.336,457.167l5.11,5.11H112.392v-5.11Z" transform="translate(-50.852 -412.347)" fill="url(#linear-gradient-16)"/>
    <path id="Path_498" data-name="Path 498" d="M109.486,457.167v5a.181.181,0,0,0,.285.149l2.987-2.081a.6.6,0,0,1,.685,0l2.987,2.081a.181.181,0,0,0,.285-.149v-5Z" transform="translate(-48.231 -412.347)" fill="url(#linear-gradient-17)"/>
    <path id="Path_499" data-name="Path 499" d="M64.955,354.331v5.228a1.232,1.232,0,0,0,1.231,1.231H99.249a3.846,3.846,0,1,0,0-7.691H66.186A1.232,1.232,0,0,0,64.955,354.331Z" transform="translate(-8.065 -318.482)" fill="url(#linear-gradient-18)"/>
    <path id="Path_500" data-name="Path 500" d="M66.186,353.1H79.105a1.231,1.231,0,0,0-1.231,1.231v5.228a1.231,1.231,0,0,0,1.231,1.231H66.186a1.231,1.231,0,0,1-1.231-1.231v-5.228A1.232,1.232,0,0,1,66.186,353.1Z" transform="translate(-8.065 -318.483)" fill="url(#linear-gradient-19)"/>
    <path id="Path_501" data-name="Path 501" d="M57.522,368.431h33.6a2.914,2.914,0,1,0,0-5.828H57.358a1.132,1.132,0,0,0-1.132,1.132v3.4A1.3,1.3,0,0,0,57.522,368.431Z" transform="translate(-0.192 -327.054)" fill="url(#linear-gradient-20)"/>
    <path id="Path_502" data-name="Path 502" d="M93.694,406.217a2.913,2.913,0,0,1-2.576,1.552h-33.6a1.3,1.3,0,0,1-1.3-1.3v-.256H93.694Z" transform="translate(-0.192 -366.392)" fill="url(#linear-gradient-21)"/>
    <path id="Path_503" data-name="Path 503" d="M91.118,395.239h-33.6a1.3,1.3,0,0,1-1.3-1.3v-1.618H94.032A2.914,2.914,0,0,1,91.118,395.239Z" transform="translate(-0.192 -353.862)" fill="url(#linear-gradient-22)"/>
    <path id="Path_504" data-name="Path 504" d="M93.708,378.717a2.913,2.913,0,0,1-2.59,4.248h-33.6a1.3,1.3,0,0,1-1.3-1.3v-2.952H93.708Z" transform="translate(-0.192 -341.588)" fill="url(#linear-gradient-23)"/>
    <path id="Path_505" data-name="Path 505" d="M57.145,362.6h12.7a1.228,1.228,0,0,0-.038.3v5.228a1.233,1.233,0,0,0,.038.3H57.309a1.3,1.3,0,0,1-1.3-1.3v-3.4A1.132,1.132,0,0,1,57.145,362.6Z" transform="translate(0 -327.055)" fill="url(#linear-gradient-24)"/>
    <path id="Path_506" data-name="Path 506" d="M94.154,275.882v5.228a1.231,1.231,0,0,1-1.231,1.231H59.86a3.846,3.846,0,1,1,0-7.691H92.923A1.232,1.232,0,0,1,94.154,275.882Z" transform="translate(-0.001 -247.724)" fill="url(#linear-gradient-25)"/>
    <path id="Path_507" data-name="Path 507" d="M226.756,282.342a1.231,1.231,0,0,0,1.231-1.231v-5.228a1.231,1.231,0,0,0-1.231-1.231H204.394l7.691,7.691h14.671Z" transform="translate(-133.834 -247.725)" fill="url(#linear-gradient-26)"/>
    <path id="Path_508" data-name="Path 508" d="M313.631,274.65H300.712a1.231,1.231,0,0,1,1.231,1.231v5.228a1.232,1.232,0,0,1-1.231,1.231h12.919a1.231,1.231,0,0,0,1.231-1.231v-5.228A1.231,1.231,0,0,0,313.631,274.65Z" transform="translate(-220.709 -247.724)" fill="url(#linear-gradient-27)"/>
    <path id="Path_509" data-name="Path 509" d="M104.661,289.981h-33.6a2.914,2.914,0,0,1,0-5.828h33.76a1.132,1.132,0,0,1,1.132,1.132v3.4a1.3,1.3,0,0,1-1.3,1.3Z" transform="translate(-10.948 -256.295)" fill="url(#linear-gradient-12)"/>
    <path id="Path_510" data-name="Path 510" d="M71.6,327.767a2.913,2.913,0,0,0,2.576,1.552h33.6a1.3,1.3,0,0,0,1.3-1.3v-.256H71.6Z" transform="translate(-14.057 -295.633)" fill="url(#linear-gradient-29)"/>
    <path id="Path_511" data-name="Path 511" d="M71.066,316.789h33.6a1.3,1.3,0,0,0,1.3-1.3v-1.618H68.152A2.914,2.914,0,0,0,71.066,316.789Z" transform="translate(-10.949 -283.103)" fill="url(#linear-gradient-30)"/>
    <path id="Path_512" data-name="Path 512" d="M68.476,300.267a2.913,2.913,0,0,0,2.59,4.248h33.6a1.3,1.3,0,0,0,1.3-1.3v-2.952H68.476Z" transform="translate(-10.949 -270.829)" fill="url(#linear-gradient-31)"/>
    <path id="Path_513" data-name="Path 513" d="M213.9,284.153l5.827,5.828h16.394a1.293,1.293,0,0,0,.418-.07,1.238,1.238,0,0,0,.022-.229v-5.228a1.235,1.235,0,0,0-.031-.272,1.137,1.137,0,0,0-.245-.027H213.9Z" transform="translate(-142.405 -256.295)" fill="url(#linear-gradient-32)"/>
    <path id="Path_514" data-name="Path 514" d="M325.584,284.154h-12.7a1.229,1.229,0,0,1,.038.3v5.228a1.234,1.234,0,0,1-.038.3H325.42a1.3,1.3,0,0,0,1.3-1.3v-3.4A1.132,1.132,0,0,0,325.584,284.154Z" transform="translate(-231.687 -256.296)" fill="url(#linear-gradient-33)"/>
  </g>
</svg>
