<svg xmlns="http://www.w3.org/2000/svg" xmlns:xlink="http://www.w3.org/1999/xlink" width="46.825" height="58" viewBox="0 0 46.825 58">
  <defs>
    <linearGradient id="linear-gradient" x1="2.949" y1="1.899" x2="3.327" y2="2.184" gradientUnits="objectBoundingBox">
      <stop offset="0" stop-color="#fbc56d"/>
      <stop offset="1" stop-color="#c5715a"/>
    </linearGradient>
    <linearGradient id="linear-gradient-2" x1="3.108" y1="2.218" x2="3.394" y2="2.214" gradientUnits="objectBoundingBox">
      <stop offset="0" stop-color="#8c3d27" stop-opacity="0"/>
      <stop offset="1" stop-color="#8c3d27"/>
    </linearGradient>
    <linearGradient id="linear-gradient-3" x1="3.359" y1="1.34" x2="3.571" y2="1.736" xlink:href="#linear-gradient"/>
    <linearGradient id="linear-gradient-4" x1="3.423" y1="1.639" x2="3.698" y2="1.802" xlink:href="#linear-gradient-2"/>
    <linearGradient id="linear-gradient-5" x1="3.005" y1="1.029" x2="3.382" y2="1.314" xlink:href="#linear-gradient"/>
    <linearGradient id="linear-gradient-6" x1="3.163" y1="1.348" x2="3.45" y2="1.343" xlink:href="#linear-gradient-2"/>
    <linearGradient id="linear-gradient-7" x1="3.708" y1="0.772" x2="3.92" y2="1.168" xlink:href="#linear-gradient"/>
    <linearGradient id="linear-gradient-8" x1="3.783" y1="0.986" x2="4.058" y2="1.148" xlink:href="#linear-gradient-2"/>
    <linearGradient id="linear-gradient-9" x1="0.192" y1="0.192" x2="0.719" y2="0.719" xlink:href="#linear-gradient"/>
    <linearGradient id="linear-gradient-10" x1="0.825" y1="0.825" x2="0.166" y2="0.166" xlink:href="#linear-gradient"/>
    <linearGradient id="linear-gradient-11" x1="0.137" y1="0.137" x2="0.735" y2="0.735" xlink:href="#linear-gradient"/>
    <linearGradient id="linear-gradient-12" x1="0.5" y1="0.301" x2="0.5" y2="0.95" xlink:href="#linear-gradient-2"/>
    <linearGradient id="linear-gradient-13" x1="0.721" y1="0.691" x2="0.062" y2="0.325" xlink:href="#linear-gradient-2"/>
    <linearGradient id="linear-gradient-14" x1="0.277" y1="0.343" x2="0.679" y2="0.764" xlink:href="#linear-gradient"/>
    <linearGradient id="linear-gradient-15" x1="0.481" y1="0.458" x2="-0.629" y2="0.698" xlink:href="#linear-gradient-2"/>
    <linearGradient id="linear-gradient-16" x1="0.511" y1="0.552" x2="0.143" y2="0.37" xlink:href="#linear-gradient-2"/>
    <linearGradient id="linear-gradient-17" x1="0.873" y1="0.552" x2="0.506" y2="0.37" xlink:href="#linear-gradient-2"/>
    <linearGradient id="linear-gradient-18" x1="0.483" y1="0.498" x2="0.713" y2="-0.019" xlink:href="#linear-gradient-2"/>
    <linearGradient id="linear-gradient-19" x1="0.499" y1="0.433" x2="0.48" y2="-0.073" xlink:href="#linear-gradient-2"/>
    <linearGradient id="linear-gradient-20" x1="0.565" y1="0.451" x2="0.235" y2="-0.076" xlink:href="#linear-gradient-2"/>
    <linearGradient id="linear-gradient-21" x1="0.537" y1="0.296" x2="0.743" y2="0.646" gradientUnits="objectBoundingBox">
      <stop offset="0" stop-color="#f9f5f3"/>
      <stop offset="1" stop-color="#d8e8f0"/>
    </linearGradient>
    <linearGradient id="linear-gradient-22" x1="0.332" y1="-0.196" x2="0.971" y2="0.957" gradientUnits="objectBoundingBox">
      <stop offset="0" stop-color="#bbec6c"/>
      <stop offset="1" stop-color="#81b823"/>
    </linearGradient>
    <linearGradient id="linear-gradient-23" x1="0.196" y1="-0.366" x2="0.835" y2="0.694" xlink:href="#linear-gradient-22"/>
    <linearGradient id="linear-gradient-24" x1="0.5" y1="0.518" x2="0.5" y2="0.247" gradientUnits="objectBoundingBox">
      <stop offset="0" stop-color="#78a91f" stop-opacity="0"/>
      <stop offset="1" stop-color="#78a91f"/>
    </linearGradient>
    <linearGradient id="linear-gradient-25" x1="0.698" y1="0.425" x2="0.787" y2="0.553" xlink:href="#linear-gradient-24"/>
    <linearGradient id="linear-gradient-26" x1="-4.844" y1="0.425" x2="-4.755" y2="0.553" xlink:href="#linear-gradient-24"/>
    <linearGradient id="linear-gradient-27" x1="0.864" y1="0.725" x2="0.003" y2="-0.727" xlink:href="#linear-gradient"/>
    <linearGradient id="linear-gradient-28" x1="0.5" y1="0.057" x2="0.5" y2="1.306" xlink:href="#linear-gradient"/>
    <linearGradient id="linear-gradient-29" x1="0.5" y1="0.338" x2="0.5" y2="0.909" xlink:href="#linear-gradient-2"/>
    <linearGradient id="linear-gradient-30" x1="0.509" y1="0.224" x2="0.26" y2="0.502" xlink:href="#linear-gradient-2"/>
    <linearGradient id="linear-gradient-31" x1="0.213" y1="0.213" x2="0.92" y2="0.92" xlink:href="#linear-gradient"/>
    <linearGradient id="linear-gradient-32" x1="0.855" y1="0.855" x2="0.244" y2="0.244" xlink:href="#linear-gradient"/>
    <linearGradient id="linear-gradient-33" x1="0.5" y1="0.304" x2="0.5" y2="0.862" xlink:href="#linear-gradient"/>
  </defs>
  <g id="bronze-medal" transform="translate(-49.131)" opacity="0.9">
    <g id="Group_13" data-name="Group 13" transform="translate(49.131 21.453)">
      <g id="Group_11" data-name="Group 11">
        <path id="Path_16" data-name="Path 16" d="M59.123,284a16.358,16.358,0,0,1,4.731,8.45,1.562,1.562,0,0,1-1.433,1.464,17.176,17.176,0,0,1-13.28-13,1.562,1.562,0,0,1,1.433-1.464A16.357,16.357,0,0,1,59.123,284Z" transform="translate(-49.131 -269.115)" fill="url(#linear-gradient)"/>
        <path id="Path_17" data-name="Path 17" d="M59.123,284a16.358,16.358,0,0,1,4.731,8.45,1.562,1.562,0,0,1-1.433,1.464,17.176,17.176,0,0,1-13.28-13,1.562,1.562,0,0,1,1.433-1.464A16.357,16.357,0,0,1,59.123,284Z" transform="translate(-49.131 -269.115)" fill="url(#linear-gradient-2)"/>
        <path id="Path_18" data-name="Path 18" d="M83.187,197.575a20.578,20.578,0,0,1,2.267,11.969,1.965,1.965,0,0,1-2.294,1.174,21.607,21.607,0,0,1-10.648-20.81,1.965,1.965,0,0,1,2.294-1.174A20.578,20.578,0,0,1,83.187,197.575Z" transform="translate(-69.717 -188.639)" fill="url(#linear-gradient-3)"/>
        <path id="Path_19" data-name="Path 19" d="M73.369,216.924a21.912,21.912,0,0,0,2.306,7.564,20.578,20.578,0,0,0,8.381,8.841,1.965,1.965,0,0,0,2.294-1.174,20.578,20.578,0,0,0-2.267-11.969,22,22,0,0,0-4.5-6.035Z" transform="translate(-70.613 -211.25)" fill="url(#linear-gradient-4)"/>
      </g>
      <g id="Group_12" data-name="Group 12" transform="translate(30.933)">
        <path id="Path_20" data-name="Path 20" d="M336.065,284a16.358,16.358,0,0,0-4.731,8.45,1.562,1.562,0,0,0,1.433,1.464,17.176,17.176,0,0,0,13.28-13,1.562,1.562,0,0,0-1.433-1.464A16.357,16.357,0,0,0,336.065,284Z" transform="translate(-330.166 -269.115)" fill="url(#linear-gradient-5)"/>
        <path id="Path_21" data-name="Path 21" d="M336.065,284a16.358,16.358,0,0,0-4.731,8.45,1.562,1.562,0,0,0,1.433,1.464,17.176,17.176,0,0,0,13.28-13,1.562,1.562,0,0,0-1.433-1.464A16.357,16.357,0,0,0,336.065,284Z" transform="translate(-330.166 -269.115)" fill="url(#linear-gradient-6)"/>
        <path id="Path_22" data-name="Path 22" d="M323.552,197.575a20.578,20.578,0,0,0-2.267,11.969,1.965,1.965,0,0,0,2.294,1.174,21.607,21.607,0,0,0,10.648-20.81,1.965,1.965,0,0,0-2.294-1.174A20.579,20.579,0,0,0,323.552,197.575Z" transform="translate(-321.131 -188.639)" fill="url(#linear-gradient-7)"/>
        <path id="Path_23" data-name="Path 23" d="M334.266,216.924a21.913,21.913,0,0,1-2.306,7.564,20.578,20.578,0,0,1-8.381,8.841,1.965,1.965,0,0,1-2.294-1.174,20.579,20.579,0,0,1,2.267-11.969,22,22,0,0,1,4.5-6.035Z" transform="translate(-321.131 -211.25)" fill="url(#linear-gradient-8)"/>
      </g>
    </g>
    <g id="Group_14" data-name="Group 14" transform="translate(54.458 21.829)">
      <circle id="Ellipse_2" data-name="Ellipse 2" cx="18.085" cy="18.085" r="18.085" transform="translate(0)" fill="url(#linear-gradient-9)"/>
      <circle id="Ellipse_3" data-name="Ellipse 3" cx="14.415" cy="14.415" r="14.415" transform="translate(3.67 3.67)" fill="url(#linear-gradient-10)"/>
      <circle id="Ellipse_4" data-name="Ellipse 4" cx="12.376" cy="12.376" r="12.376" transform="translate(5.71 5.71)" fill="url(#linear-gradient-11)"/>
      <path id="Path_24" data-name="Path 24" d="M95.974,349.338a18.085,18.085,0,0,0,36.171,0c0-.07,0-.14,0-.21H95.977c0,.07,0,.14,0,.21Z" transform="translate(-95.974 -331.253)" fill="url(#linear-gradient-12)"/>
    </g>
    <path id="Path_25" data-name="Path 25" d="M217.072,303.109a18.126,18.126,0,0,0,12.1-11.663l-8.808-8.808-1.986.1-5.359-5.359-6.532,15.143Z" transform="translate(-139.456 -245.831)" fill="url(#linear-gradient-13)"/>
    <g id="Group_15" data-name="Group 15" transform="translate(64.084 30.952)">
      <path id="Path_26" data-name="Path 26" d="M196.492,277.193l-3.547-.857a1.363,1.363,0,0,1-.808-.561l-2.045-3.022a1.167,1.167,0,0,0-2.032,0l-2.045,3.022a1.362,1.362,0,0,1-.808.561l-3.547.857a1.362,1.362,0,0,0-.755,2.162l2.243,2.878a1.363,1.363,0,0,1,.284.942l-.281,3.638a1.362,1.362,0,0,0,1.823,1.386l3.431-1.243a3.562,3.562,0,0,1,1.345,0l3.431,1.243A1.362,1.362,0,0,0,195,286.814l-.281-3.638a1.363,1.363,0,0,1,.284-.942l2.243-2.878A1.362,1.362,0,0,0,196.492,277.193Z" transform="translate(-180.617 -272.16)" fill="url(#linear-gradient-14)"/>
      <path id="Path_27" data-name="Path 27" d="M255.672,286.956,259.1,288.2a1.362,1.362,0,0,0,1.823-1.386l-.281-3.638a1.363,1.363,0,0,1,.284-.942l2.243-2.878a1.362,1.362,0,0,0-.755-2.162l-3.547-.857a1.363,1.363,0,0,1-.809-.561l-2.045-3.022A1.348,1.348,0,0,0,255,272.16v14.732A1.359,1.359,0,0,1,255.672,286.956Z" transform="translate(-246.541 -272.16)" fill="url(#linear-gradient-15)"/>
      <path id="Path_28" data-name="Path 28" d="M219.431,308.691l-3.547-.857a1.359,1.359,0,0,1-.343-.135L206.5,319.394a1.356,1.356,0,0,0,1.413.3l3.431-1.243a3.56,3.56,0,0,1,1.345,0l3.431,1.243a1.362,1.362,0,0,0,1.823-1.386l-.281-3.638a1.363,1.363,0,0,1,.284-.942l2.243-2.878A1.362,1.362,0,0,0,219.431,308.691Z" transform="translate(-203.556 -303.657)" fill="url(#linear-gradient-16)"/>
      <path id="Path_29" data-name="Path 29" d="M181.661,308.691l3.547-.857a1.358,1.358,0,0,0,.343-.135l9.041,11.695a1.356,1.356,0,0,1-1.413.3l-3.431-1.243a3.561,3.561,0,0,0-1.345,0l-3.431,1.243a1.362,1.362,0,0,1-1.823-1.386l.281-3.638a1.363,1.363,0,0,0-.284-.942l-2.243-2.878A1.362,1.362,0,0,1,181.661,308.691Z" transform="translate(-180.617 -303.657)" fill="url(#linear-gradient-17)"/>
      <path id="Path_30" data-name="Path 30" d="M180.728,323.646a1.351,1.351,0,0,0,.189,1.34l2.243,2.878a1.363,1.363,0,0,1,.284.942l-.281,3.638a1.362,1.362,0,0,0,1.823,1.386l3.431-1.243a3.564,3.564,0,0,1,1.345,0l3.431,1.243a1.362,1.362,0,0,0,1.823-1.386l-.281-3.638a1.36,1.36,0,0,1,.072-.549Z" transform="translate(-180.628 -317.791)" fill="url(#linear-gradient-18)"/>
      <path id="Path_31" data-name="Path 31" d="M217.161,323.646a1.351,1.351,0,0,1-.189,1.34l-2.242,2.878a1.363,1.363,0,0,0-.284.942l.281,3.638a1.362,1.362,0,0,1-1.823,1.386l-3.431-1.243a3.564,3.564,0,0,0-1.345,0L204.7,333.83a1.362,1.362,0,0,1-1.823-1.386l.281-3.638a1.359,1.359,0,0,0-.072-.549Z" transform="translate(-200.341 -317.791)" fill="url(#linear-gradient-19)"/>
    </g>
    <path id="Path_32" data-name="Path 32" d="M231.5,191.948l-.224,0-2.791,2.791,20.375,20.375a18.1,18.1,0,0,0-17.36-23.169Z" transform="translate(-158.957 -170.119)" fill="url(#linear-gradient-20)"/>
    <g id="Group_19" data-name="Group 19" transform="translate(58.669 0)">
      <path id="Path_33" data-name="Path 33" d="M159,3.333v9.553L169.918,23.8l10.918-10.918V3.333Z" transform="translate(-156.043 -2.954)" fill="url(#linear-gradient-21)"/>
      <g id="Group_16" data-name="Group 16" transform="translate(2.957 0.379)">
        <path id="Path_34" data-name="Path 34" d="M159,3.333V6.306l10.881,10.881a.052.052,0,0,0,.073,0L180.835,6.306V3.333Z" transform="translate(-159 -3.333)" fill="url(#linear-gradient-22)"/>
        <path id="Path_35" data-name="Path 35" d="M169.918,60.877a1.751,1.751,0,0,1-1.243-.514L159,50.688v4.168l10.918,10.918,10.918-10.918V50.688l-9.675,9.675A1.752,1.752,0,0,1,169.918,60.877Z" transform="translate(-159 -45.303)" fill="url(#linear-gradient-23)"/>
        <path id="Path_36" data-name="Path 36" d="M159,3.333V6.306l10.881,10.881a.052.052,0,0,0,.073,0L180.835,6.306V3.333Z" transform="translate(-159 -3.333)" fill="url(#linear-gradient-24)"/>
        <path id="Path_37" data-name="Path 37" d="M169.918,60.877a1.751,1.751,0,0,1-1.243-.514L159,50.688v4.168l10.918,10.918,10.918-10.918V50.688l-9.675,9.675A1.752,1.752,0,0,1,169.918,60.877Z" transform="translate(-159 -45.303)" fill="url(#linear-gradient-25)"/>
        <path id="Path_38" data-name="Path 38" d="M169.918,60.877a1.751,1.751,0,0,0,1.243-.514l9.675-9.675v4.168L169.918,65.773,159,54.856V50.688l9.675,9.675A1.752,1.752,0,0,0,169.918,60.877Z" transform="translate(-159 -45.303)" fill="url(#linear-gradient-26)"/>
      </g>
      <g id="Group_17" data-name="Group 17" transform="translate(0.341 8.557)">
        <path id="Path_39" data-name="Path 39" d="M148.336,85.052l-9.291-9.291a1.784,1.784,0,0,0-2.523,2.523L149.533,91.3l13.011-13.011a1.784,1.784,0,0,0-2.523-2.523l-9.291,9.291A1.693,1.693,0,0,1,148.336,85.052Z" transform="translate(-136 -75.239)" fill="url(#linear-gradient-27)"/>
        <path id="Path_40" data-name="Path 40" d="M140.519,75.782l11.641,11.641a1.937,1.937,0,0,0,2.74,0l11.641-11.641.01-.011-.01-.011a1.784,1.784,0,0,0-2.523,0l-9.291,9.291a1.693,1.693,0,0,1-2.395,0l-9.291-9.291a1.784,1.784,0,0,0-2.523,0l-.01.011Z" transform="translate(-139.997 -75.239)" fill="url(#linear-gradient-28)"/>
        <path id="Path_41" data-name="Path 41" d="M183.425,144.851l9.184-9.184h-5.046l-2.941,2.941a1.693,1.693,0,0,1-2.395,0l-2.941-2.941H174.24Z" transform="translate(-169.891 -128.795)" fill="url(#linear-gradient-29)"/>
        <path id="Path_42" data-name="Path 42" d="M245,124.511l1.137,1.137L257.786,114H252.74l-5.4,5.405a1.692,1.692,0,0,1-2.335.054Z" transform="translate(-232.604 -109.592)" fill="url(#linear-gradient-30)"/>
      </g>
      <g id="Group_18" data-name="Group 18" transform="translate(9.61 17.343)">
        <circle id="Ellipse_5" data-name="Ellipse 5" cx="4.264" cy="4.264" r="4.264" fill="url(#linear-gradient-31)"/>
        <circle id="Ellipse_6" data-name="Ellipse 6" cx="2.445" cy="2.445" r="2.445" transform="translate(1.82 1.82)" fill="url(#linear-gradient-32)"/>
      </g>
      <path id="Path_43" data-name="Path 43" d="M159.441,4.246H134.308A1.308,1.308,0,0,1,133,2.938V1.308A1.308,1.308,0,0,1,134.308,0h25.134a1.308,1.308,0,0,1,1.307,1.308V2.938A1.308,1.308,0,0,1,159.441,4.246Z" transform="translate(-133 0)" fill="url(#linear-gradient-33)"/>
    </g>
  </g>
</svg>
