<svg id="Layer_2" data-name="Layer 2" xmlns="http://www.w3.org/2000/svg" width="24" height="24" viewBox="0 0 24 24">
  <g id="invisible_box" data-name="invisible box">
    <rect id="Rectangle_125" data-name="Rectangle 125" width="24" height="24" fill="none"/>
  </g>
  <g id="icons_Q2" data-name="icons Q2" transform="translate(2 2)">
    <path id="Path_2473" data-name="Path 2473" d="M15.3,23.8l-3-2.95a1.05,1.05,0,0,1-.1-1.35.95.95,0,0,1,1.5-.1L16,21.7l6.3-6.3a1,1,0,0,1,1.4,1.4l-7,7a.95.95,0,0,1-1.4,0Z" transform="translate(-8.001 -9.6)" fill="#006490"/>
    <path id="Path_2474" data-name="Path 2474" d="M22,6V22H6V6H22m1-2H5A1,1,0,0,0,4,5V23a1,1,0,0,0,1,1H23a1,1,0,0,0,1-1V5A1,1,0,0,0,23,4Z" transform="translate(-4 -4)" fill="#006490"/>
  </g>
</svg>
