<svg xmlns="http://www.w3.org/2000/svg" width="18" height="18" viewBox="0 0 18 18">
  <path id="clock_1_" data-name="clock (1)" d="M10.878,7.738a.628.628,0,1,0-1.256,0Zm-.165,2.743.281-.562Zm.931,1.167a.628.628,0,0,0,.562-1.123ZM9.622,7.738V9.733h1.256V7.738Zm.81,3.3,1.212.606.562-1.123L10.994,9.92Zm-.81-1.31a1.465,1.465,0,0,0,.81,1.31l.562-1.123a.209.209,0,0,1-.116-.187Zm-4.4-7.227H15.273V1.25H5.227ZM17.994,5.227V15.273H19.25V5.227ZM15.273,17.994H5.227V19.25H15.273ZM2.506,15.273V5.227H1.25V15.273Zm2.721,2.721a2.721,2.721,0,0,1-2.721-2.721H1.25A3.977,3.977,0,0,0,5.227,19.25Zm12.767-2.721a2.721,2.721,0,0,1-2.721,2.721V19.25a3.977,3.977,0,0,0,3.977-3.977ZM15.273,2.506a2.721,2.721,0,0,1,2.721,2.721H19.25A3.977,3.977,0,0,0,15.273,1.25ZM5.227,1.25A3.977,3.977,0,0,0,1.25,5.227H2.506A2.721,2.721,0,0,1,5.227,2.506Zm.837,3.767h8.372V3.762H6.064Zm9.419,1.047v8.372h1.256V6.064Zm-1.047,9.419H6.064v1.256h8.372ZM5.017,14.436V6.064H3.762v8.372Zm1.047,1.047a1.046,1.046,0,0,1-1.047-1.047H3.762a2.3,2.3,0,0,0,2.3,2.3Zm9.419-1.047a1.046,1.046,0,0,1-1.047,1.047v1.256a2.3,2.3,0,0,0,2.3-2.3ZM14.436,5.017a1.046,1.046,0,0,1,1.047,1.047h1.256a2.3,2.3,0,0,0-2.3-2.3ZM6.064,3.762a2.3,2.3,0,0,0-2.3,2.3H5.017A1.047,1.047,0,0,1,6.064,5.017Z" transform="translate(-1.25 -1.25)" fill="#e99005"/>
</svg>
