<svg xmlns="http://www.w3.org/2000/svg" width="20.842" height="18" viewBox="0 0 20.842 18">
  <g id="icons_Q2" data-name="icons Q2" transform="translate(-2 -7)">
    <g id="Group_1468" data-name="Group 1468" transform="translate(2 7)">
      <path id="Path_2478" data-name="Path 2478" d="M35.684,20.895v8.526H31.895V20.895h3.789M36.632,19H30.947a.947.947,0,0,0-.947.947V30.368a.947.947,0,0,0,.947.947h5.684a.947.947,0,0,0,.947-.947V19.947A.947.947,0,0,0,36.632,19Z" transform="translate(-16.737 -13.316)" fill="#4b9785"/>
      <path id="Path_2479" data-name="Path 2479" d="M20.632,7H5.947A.947.947,0,0,0,5,7.947V18.368a.947.947,0,0,0,.947.947h9V17.421H6.895V8.895H19.684v1.895h1.895V7.947A.947.947,0,0,0,20.632,7Z" transform="translate(-3.579 -7)" fill="#4b9785"/>
      <path id="Path_2480" data-name="Path 2480" d="M13.368,37v1.895H2.947a.947.947,0,1,1,0-1.895Z" transform="translate(-2 -22.789)" fill="#4b9785"/>
    </g>
  </g>
</svg>
