<svg xmlns="http://www.w3.org/2000/svg" width="25.714" height="24" viewBox="0 0 25.714 24">
  <g id="computer" transform="translate(-1 -2)">
    <path id="Path_2426" data-name="Path 2426" d="M9.571,8A3.429,3.429,0,1,0,13,11.429,3.432,3.432,0,0,0,9.571,8ZM8.286,13.887V8.97l3.688,2.458ZM23.286,2H4.429A3.432,3.432,0,0,0,1,5.429v12a3.432,3.432,0,0,0,3.429,3.429H23.286a3.432,3.432,0,0,0,3.429-3.429v-12A3.432,3.432,0,0,0,23.286,2ZM9.571,16.571a5.143,5.143,0,1,1,5.143-5.143A5.148,5.148,0,0,1,9.571,16.571Zm13.714-.857H16.429V14h6.857Zm0-3.429H16.429V10.571h6.857Zm0-3.429H16.429V7.143h6.857ZM16.429,24.286V22.571H11.286v1.714H7.857V26h12V24.286Z" fill="#039a7b"/>
  </g>
</svg>
