<svg xmlns="http://www.w3.org/2000/svg" xmlns:xlink="http://www.w3.org/1999/xlink" width="52.001" height="52" viewBox="0 0 52.001 52">
  <defs>
    <linearGradient id="linear-gradient" x1="0.197" y1="0.043" x2="0.788" y2="0.935" gradientUnits="objectBoundingBox">
      <stop offset="0" stop-color="#5a5a5a"/>
      <stop offset="1" stop-color="#444"/>
    </linearGradient>
    <linearGradient id="linear-gradient-2" x1="0.757" y1="0.91" x2="0.201" y2="0.023" xlink:href="#linear-gradient"/>
    <linearGradient id="linear-gradient-3" x1="0.483" y1="0.448" x2="0.307" y2="-0.097" gradientUnits="objectBoundingBox">
      <stop offset="0" stop-color="#433f43" stop-opacity="0"/>
      <stop offset="0.294" stop-color="#3e3a3e" stop-opacity="0.294"/>
      <stop offset="0.68" stop-color="#2d2b2d" stop-opacity="0.678"/>
      <stop offset="1" stop-color="#1a1a1a"/>
    </linearGradient>
    <linearGradient id="linear-gradient-4" x1="0.858" y1="1.409" x2="0.17" y2="0.623" gradientUnits="objectBoundingBox">
      <stop offset="0" stop-color="#433f43" stop-opacity="0"/>
      <stop offset="1" stop-color="#1a1a1a"/>
    </linearGradient>
    <linearGradient id="linear-gradient-5" x1="-5.539" y1="1.425" x2="-5.539" y2="1.652" xlink:href="#linear-gradient-4"/>
    <linearGradient id="linear-gradient-6" x1="0.258" y1="0.117" x2="0.726" y2="0.859" gradientUnits="objectBoundingBox">
      <stop offset="0" stop-color="#fef0ae"/>
      <stop offset="1" stop-color="#fbc56d"/>
    </linearGradient>
    <linearGradient id="linear-gradient-7" x1="0.485" y1="0.453" x2="0.302" y2="-0.118" gradientUnits="objectBoundingBox">
      <stop offset="0" stop-color="#dc8758" stop-opacity="0"/>
      <stop offset="0.215" stop-color="#dd8654" stop-opacity="0.216"/>
      <stop offset="0.429" stop-color="#e28448" stop-opacity="0.427"/>
      <stop offset="0.642" stop-color="#ea8034" stop-opacity="0.643"/>
      <stop offset="0.854" stop-color="#f47b18" stop-opacity="0.855"/>
      <stop offset="1" stop-color="#fe7701"/>
    </linearGradient>
    <linearGradient id="linear-gradient-8" x1="1.728" y1="1.396" x2="-0.435" y2="0.275" xlink:href="#linear-gradient-7"/>
    <linearGradient id="linear-gradient-9" x1="0.5" y1="-0.235" x2="0.5" y2="1.171" gradientUnits="objectBoundingBox">
      <stop offset="0" stop-color="#ffeee6"/>
      <stop offset="1" stop-color="#ffb09e"/>
    </linearGradient>
    <linearGradient id="linear-gradient-10" x1="0.497" y1="0.627" x2="0.509" y2="0.976" gradientUnits="objectBoundingBox">
      <stop offset="0" stop-color="#f89580" stop-opacity="0"/>
      <stop offset="0.997" stop-color="#c5715a"/>
    </linearGradient>
    <linearGradient id="linear-gradient-11" x1="0.5" y1="-0.191" x2="0.5" y2="1.039" gradientUnits="objectBoundingBox">
      <stop offset="0" stop-color="#62dbfb"/>
      <stop offset="0.191" stop-color="#57d5fa"/>
      <stop offset="0.523" stop-color="#3bc5f7"/>
      <stop offset="0.954" stop-color="#0dabf2"/>
      <stop offset="1" stop-color="#08a9f1"/>
    </linearGradient>
    <linearGradient id="linear-gradient-12" x1="0.366" y1="-0.724" x2="0.506" y2="1.082" xlink:href="#linear-gradient-7"/>
    <linearGradient id="linear-gradient-13" x1="-0.126" y1="0.002" x2="0.904" y2="0.821" xlink:href="#linear-gradient-7"/>
    <linearGradient id="linear-gradient-14" x1="0.156" y1="0.076" x2="0.882" y2="0.833" gradientUnits="objectBoundingBox">
      <stop offset="0" stop-color="#aeffd1"/>
      <stop offset="0.12" stop-color="#a3f9cb"/>
      <stop offset="0.329" stop-color="#87eab9"/>
      <stop offset="0.601" stop-color="#59d19d"/>
      <stop offset="0.924" stop-color="#19af77"/>
      <stop offset="1" stop-color="#09a76d"/>
    </linearGradient>
    <linearGradient id="linear-gradient-15" x1="1.347" y1="0.585" x2="1.347" y2="1.086" gradientUnits="objectBoundingBox">
      <stop offset="0" stop-color="#02905d" stop-opacity="0"/>
      <stop offset="0.327" stop-color="#028857" stop-opacity="0.325"/>
      <stop offset="0.853" stop-color="#027046" stop-opacity="0.855"/>
      <stop offset="1" stop-color="#026841"/>
    </linearGradient>
  </defs>
  <g id="course" transform="translate(0 -0.003)" opacity="0.9">
    <g id="Group_140" data-name="Group 140" transform="translate(0 8.387)">
      <g id="Group_133" data-name="Group 133" transform="translate(4.62)">
        <g id="Group_132" data-name="Group 132">
          <g id="Group_128" data-name="Group 128">
            <path id="Path_228" data-name="Path 228" d="M90.558,82.234H47.453a2.138,2.138,0,0,0-2.138,2.138v27.123a2.138,2.138,0,0,0,2.138,2.138H90.558a2.138,2.138,0,0,0,2.138-2.138V84.371A2.137,2.137,0,0,0,90.558,82.234Z" transform="translate(-45.315 -82.234)" fill="url(#linear-gradient)"/>
            <path id="Path_229" data-name="Path 229" d="M58.719,100.3v25.217a1.39,1.39,0,0,0,1.39,1.39h41.867a1.39,1.39,0,0,0,1.39-1.39V100.3a1.39,1.39,0,0,0-1.39-1.39H60.109A1.39,1.39,0,0,0,58.719,100.3Z" transform="translate(-57.352 -97.213)" fill="url(#linear-gradient-2)"/>
            <path id="Path_230" data-name="Path 230" d="M77.2,104.132v-21.9H47.453a2.138,2.138,0,0,0-2.138,2.138v19.76H77.2Z" transform="translate(-45.315 -82.234)" fill="url(#linear-gradient-3)"/>
            <path id="Path_231" data-name="Path 231" d="M147.333,304.378v8.748h8.748Z" transform="translate(-136.931 -281.728)" fill="url(#linear-gradient-4)"/>
            <path id="Path_232" data-name="Path 232" d="M298.007,113.631h19.478a2.138,2.138,0,0,0,2.138-2.138V84.371a2.138,2.138,0,0,0-2.138-2.138H298.007Z" transform="translate(-272.242 -82.233)" fill="url(#linear-gradient-5)"/>
          </g>
          <path id="Path_233" data-name="Path 233" d="M113.632,116.228v22.206a1.258,1.258,0,0,1-1.258,1.258H75.728a1.258,1.258,0,0,1-1.258-1.258v-5.179a.962.962,0,0,1,.962-.962.962.962,0,0,0,.962-.962v-8a.962.962,0,0,0-.962-.962.962.962,0,0,1-.962-.962v-5.179a1.258,1.258,0,0,1,1.258-1.258h36.646a1.258,1.258,0,0,1,1.258,1.258Z" transform="translate(-71.497 -111.632)" fill="url(#linear-gradient-6)"/>
          <path id="Path_234" data-name="Path 234" d="M103.379,114.97v18.56H74.47v-.275a.962.962,0,0,1,.962-.962.962.962,0,0,0,.962-.962v-8a.962.962,0,0,0-.962-.962.962.962,0,0,1-.962-.962v-5.179a1.258,1.258,0,0,1,1.258-1.258Z" transform="translate(-71.497 -111.632)" fill="url(#linear-gradient-7)"/>
          <g id="Group_131" data-name="Group 131" transform="translate(13.489 22.061)">
            <g id="Group_130" data-name="Group 130">
              <g id="Group_129" data-name="Group 129">
                <path id="Path_235" data-name="Path 235" d="M178.287,325.261h8.079a.674.674,0,1,1,0,1.347h-8.079a.674.674,0,1,1,0-1.347Z" transform="translate(-177.613 -322.542)" fill="#f6ab31"/>
                <path id="Path_236" data-name="Path 236" d="M178.287,298.594h3.054a.674.674,0,0,1,0,1.347h-3.054a.674.674,0,0,1,0-1.347Z" transform="translate(-177.613 -298.594)" fill="#f6ab31"/>
                <path id="Path_237" data-name="Path 237" d="M231.146,298.594h.763a.674.674,0,0,1,0,1.347h-.763a.674.674,0,0,1,0-1.347Z" transform="translate(-225.082 -298.594)" fill="#f6ab31"/>
              </g>
            </g>
          </g>
          <path id="Path_238" data-name="Path 238" d="M147.333,304.378v5.41h5.41Z" transform="translate(-136.931 -281.728)" fill="url(#linear-gradient-8)"/>
        </g>
      </g>
      <g id="Group_139" data-name="Group 139" transform="translate(0 13.752)">
        <g id="Group_138" data-name="Group 138">
          <g id="Group_137" data-name="Group 137">
            <g id="Group_136" data-name="Group 136">
              <g id="Group_135" data-name="Group 135">
                <g id="Group_134" data-name="Group 134">
                  <path id="Path_239" data-name="Path 239" d="M18.665,242.042H6.713l-1.856-2.97L3.007,236.05a20.993,20.993,0,0,1-2.4-15.838l.377-1.327a2.338,2.338,0,0,1,3.636-1.335v6.944h.006a10.9,10.9,0,0,0,1.14,4.964,11.3,11.3,0,0,0,3.6,4.511.644.644,0,0,0,1.079-.258l.055-.133a35.734,35.734,0,0,1,.733-6.543,2.24,2.24,0,0,1,4.433.458,2.215,2.215,0,0,1-.019.292,14.453,14.453,0,0,0,.445,5.85,6.05,6.05,0,0,0,.42,1.051,43.151,43.151,0,0,1,2.075,4.577l.007.026a5.669,5.669,0,0,1,.072,2.753Z" transform="translate(0 -217.108)" fill="url(#linear-gradient-9)"/>
                </g>
              </g>
              <path id="Path_240" data-name="Path 240" d="M60.479,391.592H48.527l-1.856-2.97-.11-.18,11.5-4.8a6.434,6.434,0,0,0,.265.6,43.1,43.1,0,0,1,2.075,4.577.243.243,0,0,1,.007.026A5.675,5.675,0,0,1,60.479,391.592Z" transform="translate(-41.814 -366.657)" fill="url(#linear-gradient-10)"/>
            </g>
          </g>
        </g>
        <path id="Path_241" data-name="Path 241" d="M68.094,453.567v1.806a2.08,2.08,0,0,1-2.08,2.08H54.509a2.08,2.08,0,0,1-2.08-2.08v-1.806a2.08,2.08,0,0,1,2.08-2.08H66.014a2.08,2.08,0,0,1,2.08,2.08Z" transform="translate(-47.083 -427.589)" fill="url(#linear-gradient-11)"/>
      </g>
    </g>
    <g id="Group_141" data-name="Group 141" transform="translate(23.209 13.879)">
      <path id="Path_242" data-name="Path 242" d="M249.824,316.1H227.63a9.725,9.725,0,0,1,5.414-4.693,8.048,8.048,0,0,0,11.366,0A9.725,9.725,0,0,1,249.824,316.1Z" transform="translate(-227.63 -293.533)" fill="url(#linear-gradient-12)"/>
      <path id="Path_243" data-name="Path 243" d="M265.576,156.32a8.049,8.049,0,0,1-8.049-8.049v-4.128a8.049,8.049,0,1,1,16.1,0v4.128A8.049,8.049,0,0,1,265.576,156.32Z" transform="translate(-254.479 -136.095)" fill="url(#linear-gradient-13)"/>
    </g>
    <g id="Group_143" data-name="Group 143" transform="translate(0 0.003)">
      <path id="Path_244" data-name="Path 244" d="M6.718,0h6.6a6.718,6.718,0,0,1,6.718,6.718v3.3a6.7,6.7,0,0,1-2.172,4.945V18.48A.737.737,0,0,1,16.6,19L14.27,16.669a6.772,6.772,0,0,1-.954.069h-6.6A6.718,6.718,0,0,1,0,10.02v-3.3A6.718,6.718,0,0,1,6.718,0Z" transform="translate(0 -0.003)" fill="url(#linear-gradient-14)"/>
      <g id="Group_142" data-name="Group 142" transform="translate(4.626 4.998)">
        <path id="Path_245" data-name="Path 245" d="M51.163,76.353H46.2a.83.83,0,1,0,0,1.66h4.96a.83.83,0,1,0,0-1.66Z" transform="translate(-45.374 -73.566)" fill="#fff"/>
        <path id="Path_246" data-name="Path 246" d="M91.972,49.02h-4.96a.83.83,0,1,0,0,1.66h4.96a.83.83,0,0,0,0-1.66Z" transform="translate(-82.022 -49.02)" fill="#fff"/>
        <path id="Path_247" data-name="Path 247" d="M47.815,49.02H46.2a.83.83,0,0,0,0,1.66h1.611a.83.83,0,1,0,0-1.66Z" transform="translate(-45.374 -49.02)" fill="#fff"/>
      </g>
      <path id="Path_248" data-name="Path 248" d="M7.768,99.425l6.529,6.529a6.773,6.773,0,0,1-.955.069h-6.6a6.717,6.717,0,0,1-6.715-6.6Z" transform="translate(-0.027 -89.288)" fill="url(#linear-gradient-15)"/>
    </g>
  </g>
</svg>
