<svg xmlns="http://www.w3.org/2000/svg" width="18" height="18" viewBox="0 0 18 18">
  <g id="icons_Q2" data-name="icons Q2" transform="translate(-4 -4)">
    <g id="Group_1467" data-name="Group 1467" transform="translate(4 4)">
      <path id="Path_2476" data-name="Path 2476" d="M17.5,4H4.9a.9.9,0,0,0-.9.9V21.1a.9.9,0,0,0,.9.9H21.1a.9.9,0,0,0,.9-.9V8.5ZM15.7,20.2H10.3V14.8h5.4Zm4.5,0H17.5V13.9a.9.9,0,0,0-.9-.9H9.4a.9.9,0,0,0-.9.9v6.3H5.8V5.8H16.735L20.2,9.265Z" transform="translate(-4 -4)" fill="#f8bf37"/>
      <path id="Path_2477" data-name="Path 2477" d="M20.3,12H14.9a.9.9,0,1,0,0,1.8h5.4a.9.9,0,0,0,0-1.8Z" transform="translate(-9.5 -8.4)" fill="#f8bf37"/>
    </g>
  </g>
</svg>
