<svg xmlns="http://www.w3.org/2000/svg" width="18.054" height="14" viewBox="0 0 18.054 14">
  <g id="Group_1482" data-name="Group 1482" transform="translate(-599.049 -517)">
    <g id="folder_4_" data-name="folder (4)" transform="translate(599.049 517)">
      <path id="Path_2470" data-name="Path 2470" d="M18.684,161.648a1.51,1.51,0,0,0-1.3-.707H5.413a1.513,1.513,0,0,0-1.376.853L.87,168.434a1.14,1.14,0,0,0,1.115.849H14.724a1.437,1.437,0,0,0,1.286-.8L18.748,163a1.384,1.384,0,0,0-.063-1.353Zm0,0" transform="translate(-0.84 -155.284)" fill="#039a7b"/>
      <path id="Path_2471" data-name="Path 2471" d="M2.553,5.989a1.513,1.513,0,0,1,1.376-.853H15.2V3.694a1.1,1.1,0,0,0-1.118-1.078H7.512a.035.035,0,0,1-.019,0L6.316.966A1.13,1.13,0,0,0,5.4.5H1.118A1.1,1.1,0,0,0,0,1.578v9.763Zm0,0" transform="translate(0 -0.5)" fill="#039a7b"/>
    </g>
  </g>
</svg>
