<svg id="Layer_1" data-name="Layer 1" xmlns="http://www.w3.org/2000/svg" viewBox="0 0 50 63.2"><defs><style>.cls-1{fill:#07669f;fill-rule:evenodd;}</style></defs><title>flag_marked</title><path class="cls-1" d="M-9.7-20.6a1,1,0,0,1,1-1.1,1.1,1.1,0,0,1,1.1,1.1v3.7H20.7a1,1,0,0,1,.9,1v7.4H39.3a.9.9,0,0,1,.9,1c0,.4,0,.5-.2.7L32,4.8l8,11.5a1,1,0,0,1-.1,1.5H20.7a1.1,1.1,0,0,1-1.1-.9V9.3H-7.6V40.6a1,1,0,0,1-1.1.9.9.9,0,0,1-1-.9V-20.6Z" transform="translate(9.7 21.7)"/><polygon class="cls-1" points="2.1 6.8 2.1 6.8 2.1 29.2 29.3 29.2 29.3 14.1 29.3 6.8 2.1 6.8"/><path class="cls-1" d="M21.6-6.5h0V16H37.3L29.9,5.3a1.4,1.4,0,0,1,0-.9L37.5-6.5Z" transform="translate(9.7 21.7)"/></svg>