<svg xmlns="http://www.w3.org/2000/svg" width="34.015" height="27" viewBox="0 0 34.015 27">
  <g id="folder_4_" data-name="folder (4)" transform="translate(1.532 1)">
    <path id="Path_2470" data-name="Path 2470" d="M31.408,162.153a2.588,2.588,0,0,0-2.223-1.212H8.658A2.594,2.594,0,0,0,6.3,162.4L.87,173.786a1.953,1.953,0,0,0,1.911,1.456H24.62a2.464,2.464,0,0,0,2.2-1.363l4.693-9.406a2.373,2.373,0,0,0-.109-2.32Zm0,0" transform="translate(-0.818 -150.743)" fill="none" stroke="#fff" stroke-width="3"/>
    <path id="Path_2471" data-name="Path 2471" d="M4.377,9.909A2.594,2.594,0,0,1,6.735,8.448H26.064V5.975a1.886,1.886,0,0,0-1.916-1.848H12.877a.06.06,0,0,1-.032-.007L10.828,1.3A1.937,1.937,0,0,0,9.25.5H1.917A1.886,1.886,0,0,0,0,2.348V19.085Zm0,0" transform="translate(0 0)" fill="none" stroke="#fff" stroke-width="3"/>
  </g>
</svg>
