<svg xmlns="http://www.w3.org/2000/svg" width="39" height="36" viewBox="0 0 39 36">
  <g id="Group_2273" data-name="Group 2273" transform="translate(-1304 -586)">
    <rect id="Rectangle_237" data-name="Rectangle 237" width="39" height="36" rx="7" transform="translate(1304 586)" fill="#5f0f40" opacity="0.26"/>
    <g id="Layer_2" data-name="Layer 2" transform="translate(1314 594)">
      <g id="invisible_box" data-name="invisible box">
        <rect id="Rectangle_238" data-name="Rectangle 238" width="20" height="20" fill="none"/>
      </g>
      <g id="Q3_icons" data-name="Q3 icons" transform="translate(2.5 1.667)">
        <path id="Path_3224" data-name="Path 3224" d="M12.833,4A.833.833,0,0,0,12,4.833V9.042H6.833A.833.833,0,0,0,6,9.875v4.917a.833.833,0,0,0,.833.833H12v4.208a.833.833,0,0,0,.833.833.917.917,0,0,0,.625-.25l8.125-7.458a.917.917,0,0,0,0-1.25L13.458,4.25A.917.917,0,0,0,12.833,4Z" transform="translate(-6 -4)" fill="#5f0f40"/>
      </g>
    </g>
  </g>
</svg>
