<svg xmlns="http://www.w3.org/2000/svg" width="39" height="36" viewBox="0 0 39 36">
  <g id="Group_2274" data-name="Group 2274" transform="translate(-1251 -586)">
    <rect id="Rectangle_236" data-name="Rectangle 236" width="39" height="36" rx="7" transform="translate(1251 586)" fill="#5f0f40" opacity="0.26"/>
    <g id="Layer_2" data-name="Layer 2" transform="translate(1261 594)">
      <g id="invisible_box" data-name="invisible box">
        <rect id="Rectangle_238" data-name="Rectangle 238" width="20" height="20" fill="none"/>
      </g>
      <g id="Q3_icons" data-name="Q3 icons" transform="translate(1.671 1.667)">
        <path id="Path_3224" data-name="Path 3224" d="M15,4a.833.833,0,0,1,.833.833V9.042H21a.833.833,0,0,1,.833.833v4.917a.833.833,0,0,1-.833.833H15.829v4.208a.833.833,0,0,1-.833.833.917.917,0,0,1-.625-.25L6.246,12.958a.917.917,0,0,1,0-1.25L14.371,4.25A.917.917,0,0,1,15,4Z" transform="translate(-6 -4)" fill="#5f0f40"/>
      </g>
    </g>
  </g>
</svg>
