<svg xmlns="http://www.w3.org/2000/svg" width="20.812" height="18" viewBox="0 0 20.812 18">
  <path id="heart_10_" data-name="heart (10)" d="M10.407,52.594a.609.609,0,0,1-.3-.082,36.412,36.412,0,0,1-5-3.6,20.645,20.645,0,0,1-3.471-3.72A7.846,7.846,0,0,1,0,40.728a6.444,6.444,0,0,1,1.644-4.315,5.388,5.388,0,0,1,4.011-1.818,5.566,5.566,0,0,1,4.752,2.818,5.566,5.566,0,0,1,4.752-2.818,5.418,5.418,0,0,1,3.856,1.641,6.352,6.352,0,0,1,1.8,4.5,8,8,0,0,1-1.656,4.456,20.912,20.912,0,0,1-3.467,3.718,36.537,36.537,0,0,1-4.977,3.6.61.61,0,0,1-.307.083Z" transform="translate(0 -34.594)" fill="#d13f59"/>
</svg>
