<svg xmlns="http://www.w3.org/2000/svg" width="30.75" height="27" viewBox="0 0 30.75 27">
  <path id="heart_10_" data-name="heart (10)" d="M13.875,58.594a.812.812,0,0,1-.406-.109,48.548,48.548,0,0,1-6.673-4.8,27.526,27.526,0,0,1-4.628-4.96A10.461,10.461,0,0,1,0,42.772a8.592,8.592,0,0,1,2.192-5.754A7.183,7.183,0,0,1,7.54,34.594a7.421,7.421,0,0,1,6.335,3.758,7.421,7.421,0,0,1,6.335-3.758,7.225,7.225,0,0,1,5.141,2.188,8.47,8.47,0,0,1,2.4,6,10.665,10.665,0,0,1-2.207,5.942,27.882,27.882,0,0,1-4.622,4.958,48.716,48.716,0,0,1-6.637,4.8.813.813,0,0,1-.409.11Z" transform="translate(1.5 -33.094)" fill="none" stroke="#fff" stroke-width="3"/>
</svg>
