<svg xmlns="http://www.w3.org/2000/svg" width="15.429" height="18" viewBox="0 0 15.429 18">
  <g id="icons_Q2" data-name="icons Q2" transform="translate(-6 -3)">
    <path id="Path_2481" data-name="Path 2481" d="M13.714,3a4.714,4.714,0,1,0,4.714,4.714A4.714,4.714,0,0,0,13.714,3Zm0,7.714a3,3,0,1,1,3-3,3,3,0,0,1-3,3Zm7.329,5.571a13.414,13.414,0,0,0-7.329-2.143,13.757,13.757,0,0,0-7.329,2.1L6,16.5v3.643A.857.857,0,0,0,6.857,21H20.571a.857.857,0,0,0,.857-.857V16.5Zm-1.329,3h-12V17.443a12.171,12.171,0,0,1,6-1.586,11.786,11.786,0,0,1,6,1.629Z" fill="#ce5b64"/>
  </g>
</svg>
