<svg xmlns="http://www.w3.org/2000/svg" width="24" height="24" viewBox="0 0 24 24">
  <g id="late" transform="translate(-21.333 -21.333)">
    <path id="Path_2466" data-name="Path 2466" d="M30.421,40.962A8.871,8.871,0,1,1,40.962,30.421,1.044,1.044,0,1,0,43,29.984,10.958,10.958,0,1,0,29.984,43a1.043,1.043,0,1,0,.437-2.041Z" transform="translate(0 0)" fill="#fff"/>
    <path id="Path_2467" data-name="Path 2467" d="M142.84,97.043v5.217h-3.13a1.043,1.043,0,1,0,0,2.087h4.174a1.044,1.044,0,0,0,1.044-1.043V97.043a1.043,1.043,0,1,0-2.087,0Z" transform="translate(-111.594 -71.014)" fill="#fff"/>
    <path id="Path_2468" data-name="Path 2468" d="M241.45,234.667a6.783,6.783,0,1,0,6.783,6.783A6.79,6.79,0,0,0,241.45,234.667Zm0,11.478a4.7,4.7,0,1,1,4.7-4.7A4.7,4.7,0,0,1,241.45,246.145Z" transform="translate(-202.899 -202.899)" fill="#fff"/>
    <path id="Path_2469" data-name="Path 2469" d="M353.043,298.667A1.043,1.043,0,0,0,352,299.71v2.609a1.044,1.044,0,0,0,2.087,0V299.71a1.044,1.044,0,0,0-1.043-1.043Z" transform="translate(-314.493 -263.769)" fill="#fff"/>
    <circle id="Ellipse_969" data-name="Ellipse 969" cx="1.043" cy="1.043" r="1.043" transform="translate(37.507 40.116)" fill="#fff"/>
  </g>
</svg>
