<svg id="late" xmlns="http://www.w3.org/2000/svg" width="18" height="18" viewBox="0 0 18 18">
  <path id="Path_2466" data-name="Path 2466" d="M28.149,36.055a6.653,6.653,0,1,1,7.906-7.906.783.783,0,1,0,1.531-.328,8.218,8.218,0,1,0-9.765,9.764.783.783,0,1,0,.328-1.53Z" transform="translate(-21.333 -21.333)" fill="#006490"/>
  <path id="Path_2467" data-name="Path 2467" d="M141.8,96.782v3.913h-2.348a.783.783,0,1,0,0,1.565h3.13a.783.783,0,0,0,.783-.783v-4.7a.783.783,0,1,0-1.565,0Z" transform="translate(-134.362 -93.26)" fill="#006490"/>
  <path id="Path_2468" data-name="Path 2468" d="M239.754,234.667a5.087,5.087,0,1,0,5.087,5.087A5.093,5.093,0,0,0,239.754,234.667Zm0,8.609a3.522,3.522,0,1,1,3.522-3.522A3.522,3.522,0,0,1,239.754,243.276Z" transform="translate(-226.841 -226.841)" fill="#006490"/>
  <path id="Path_2469" data-name="Path 2469" d="M352.783,298.667a.783.783,0,0,0-.783.783v1.957a.783.783,0,1,0,1.565,0V299.45a.783.783,0,0,0-.783-.783Z" transform="translate(-339.87 -288.493)" fill="#006490"/>
  <circle id="Ellipse_969" data-name="Ellipse 969" cx="0.783" cy="0.783" r="0.783" transform="translate(12.13 14.087)" fill="#006490"/>
</svg>
