<svg xmlns="http://www.w3.org/2000/svg" xmlns:xlink="http://www.w3.org/1999/xlink" width="96" height="108" viewBox="0 0 96 108">
  <defs>
    <filter id="padlock_6_" x="0" y="0" width="96" height="108" filterUnits="userSpaceOnUse">
      <feOffset input="SourceAlpha"/>
      <feGaussianBlur stdDeviation="10" result="blur"/>
      <feFlood flood-color="#fff"/>
      <feComposite operator="in" in2="blur"/>
      <feComposite in="SourceGraphic"/>
    </filter>
  </defs>
  <g transform="matrix(1, 0, 0, 1, 0, 0)" filter="url(#padlock_6_)">
    <path id="padlock_6_2" data-name="padlock (6)" d="M34.5,18H33V12A12,12,0,0,0,9,12v6H7.5A4.505,4.505,0,0,0,3,22.5v21A4.505,4.505,0,0,0,7.5,48h27A4.505,4.505,0,0,0,39,43.5v-21A4.505,4.505,0,0,0,34.5,18ZM13,12a8,8,0,0,1,16,0v6H13ZM23,33.444V38a2,2,0,0,1-4,0V33.444a4,4,0,1,1,4,0Z" transform="translate(27 30)" fill="#f8f8f8"/>
  </g>
</svg>
