<svg xmlns="http://www.w3.org/2000/svg" width="123.91" height="85.774" viewBox="0 0 123.91 85.774">
  <g id="layer1" transform="translate(-5.823 -25.434)">
    <g id="g505289" transform="translate(5.822 25.434)">
      <path id="path505245" d="M156.712,198.016c1.925.963,2.451,1.287,4.332,0-1.3-1.835-3.132-2.018-4.332,0m-14.151.578-1.348,2.6.674,2.6,1.54,4.621c1.919-1.759.823-5.012.241-7.22a5.473,5.473,0,0,0-1.107-2.6m19.349,4.909v1.155l-4.91-.289-2.022-.193-1.444,2.5c1.24,0,2.485.087,3.177,1.155-1.773.14-5.993,1.107-5.776-2.022.074-1.063.892-1.887,1.155-2.888-2.465,1.232-5.155,6.19-1.155,7.412,1.547.473,5.016.149,6.305-.866.611-.481.867-1.384,1.54-1.781,1.167-.689,2.883.731,3.9,0,.529-.381.634-1.3.77-1.877.377-1.6.51-4.062-.481-5.487-1.542-2.217-5.495-.149-5.391,2.31.094,2.232,3.184,1.289,4.332.866m-26.28-3.754-1.155,2.888c.822.476,3.216,2.53,2.262,3.706-.748.922-2.914,1.179-3.995,1.492a6.1,6.1,0,0,0,.193-1.733,1.942,1.942,0,0,0-3.032-1.059,6.388,6.388,0,0,0-2.07,5.1l-2.792.915-1.251-1.2-3.177-2.6.144,2.792,2.455,2.407-4.043,2.31-1.155-1.155c.211,1.143.816,3.409,2.022,3.9.874.355,3.729-1.476,4.188-2.214a2.756,2.756,0,0,0,.144-1.4c1.583.959,2.562-.078,4.043-.818a53.879,53.879,0,0,1,6.931-2.84c.963-.321,3.234-.445,3.658-1.54.62-1.6-.957-3.394-.915-4.909.021-.77.748-1.6,1.011-2.31l-3.466-1.733m-11.552,5.2,2.84-.144,1.2-1.251,2.022-.1,1.444-1.973-2.84-.144-1.2,1.155-2.022.193-1.444,2.262m36.966-2.888-1.733-.578c.884-.372,1.416-.4,1.733.578m22.815,12.418c.158,1.462,1.765,2.012,2.888,2.792a52.324,52.324,0,0,1,4.861,3.658c1.508,1.335,2.293,2.668,4.38,2.5-.617,1.563.747,2.373,1.733,3.466,1.241,1.375,2.838,3,2.888,4.91l2.792-.866-.048-2.31,1.925-2.166,2.84.144-.289-4.043h-2.551l-.915,1.444-2.31,2.888h-.289l-2.6-3.466,1.733-2.6c-1.243-.523-3.019-.634-3.466.866l-2.888-2.31V219.1c1.3-.954,1-2.982-.289-3.947-2.031-1.523-5.463-1.153-7.8-1.829l1.155-2.31c-1.371,0-2.063.086-2.6,1.444l-2.888-1.444v-.578c1.484-.6,2.208-2.982.289-3.658-2.141-.754-3.871,1.1-5.776,1.4a4.932,4.932,0,0,1-2.022-.529c-1.488-.5-4.293-.864-5.054-2.407-.407-.826.263-1.79.433-2.6-2.117.613-3.743,4.645-1.685,6.257,1.049.822,3.028.929,4.284,1.348a53.85,53.85,0,0,1,6.931,2.84c1.56.78,2.546,1.725,4.332,1.4m-4.043-11.263c1.129,2.258,2.1,2.144,4.332,1.733-1.239-2.14-2.065-2.448-4.332-1.733m-48.229,4.621v.289l-2.6.578c.647-1.261,1.37-1.739,2.6-.866m49.384,2.022-2.31-1.444c1.284,0,2.156-.022,2.31,1.444m-30.035,2.6a4.1,4.1,0,0,0,1.444.481c.528-.029.88-.471,1.444-.385,1.281.2,2.106.695,2.6-.963-.653-.326-1.255-.878-2.022-.722-.289.059-.552.446-.866.481-.48.053-.737-.427-1.155-.481-1.041-.135-1.354.73-1.444,1.588m41.875,5.2-3.466-2.31c1.41-1.026,3.312.855,3.466,2.31m-79.13-2.022.289,2.6c.7,0,1.947-.244,2.551.144.7.451.454,1.216.289,1.877-.536,2.144-1.648,3.122-3.417,4.332.6.356,1.818-.018,2.6-.289a5.288,5.288,0,0,0,2.262-1.155c1.37-1.6.892-5.67-.818-6.835a6.789,6.789,0,0,0-3.754-.674m-6.931,1.155.1,2.888,1.637,1.54,4.332,3.081c0-3.267-3.115-6.345-6.065-7.509m93.281,0c.06,2.285.994,3,3.177,3.177-.177-2.247-.986-3-3.177-3.177m-100.5,6.642-.578,2.5-1.588,1.011-.144,2.84,2.455-1.733.289-1.444,2.022-1.733.144-2.31-2.6.866m4.621-.289c.051,1.942.661,2.735,2.6,2.888l-3.658,4.91-1.829,1.685-2.31-1.107c.176,2.224,2.876,4.951,5.2,3.369,1.6-1.092,2.591-3.6,3.8-5.1.522-.647,1.371-1.41,1.4-2.31.073-2.644-2.943-4.332-5.2-4.332M203.5,234.982c.674.018,1.364.286,2.022.241,2.027-.141,6.1-2.973,6.642-4.861l-3.177-.241-3.562,2.84-1.925,2.022m-.866,8.375.289.289-.289-.289m-96.457.578.289.289-.289-.289m96.746,0,.289.289-.289-.289m-97.035.578c-2.179,3.451-3.86,7.344-5.776,10.974-1.829,3.466-3.576,6.957-5.487,10.4-.561,1.01-2.01,2.852-1.877,4.043.162,1.462,1.916,3.075,3.032,3.85,3.648,2.534,9.455,2.052,13.573,1.252,2.363-.459,4.883-.441,7.22-1.155,10.376-3.17,22.888-5.044,32.056,2.214a29.09,29.09,0,0,1,5.776,6.257h.578c6.138-8.972,16-12.29,26.569-11.263,1.672.163,3.269.983,4.91,1.348a119.068,119.068,0,0,0,12.418,2.407c4.677.52,12.475,2.21,15.932-2.022.629-.77,1.713-1.846,1.829-2.888.131-1.179-1.3-3.023-1.829-4.043-1.74-3.386-3.594-6.707-5.295-10.108-1.868-3.736-3.792-7.741-6.016-11.263h-.289a38.814,38.814,0,0,0,2.214,5.776c1.8,4.618,3.861,9.181,5.487,13.862.542,1.56,1.257,3.082,1.877,4.621.208.518.617,1.162.192,1.685a5.011,5.011,0,0,1-1.973.915,14.92,14.92,0,0,1-5.487.866c-7.413,0-14.833-3.264-21.66-5.824-6.144-2.3-13.616-3.754-19.927-1.3a26.141,26.141,0,0,0-6.353,3.466c-.656.492-2.065,2.214-2.888,2.214-.663,0-1.8-1.321-2.31-1.733a26.937,26.937,0,0,0-5.487-3.417c-5.41-2.555-11.725-1.93-17.328-.53-7.615,1.9-14.63,6.067-22.526,6.835-3.067.3-7.367,1-10.108-.963-1.664-1.192.786-5.032,1.4-6.546,1.974-4.9,3.9-9.826,5.872-14.729.471-1.17,2.248-4.245,1.685-5.2m4.621,13.573v.289c2.349.989,6.315-.276,8.664-1.059,5.735-1.912,11.537-4.992,17.616-5.583,4.2-.408,8.526-.454,12.418,1.492a16.519,16.519,0,0,1,3.466,2.262c.618.55,1.345,1.576,2.31,1.348.711-.168,1.22-.892,1.733-1.348a16.518,16.518,0,0,1,3.466-2.262c4.917-2.459,10.429-1.894,15.595-.818,5.589,1.164,10.649,3.962,16.173,5.343,2.076.519,4.89,1.485,6.931.626-.81-.589-2.651-.4-3.754-.674a34.886,34.886,0,0,1-4.91-1.733c-7.819-3.258-14.936-8.579-23.97-7.7a22.58,22.58,0,0,0-7.8,2.07c-.96.48-2.724,2.166-3.754,2.166-.574,0-1.256-.719-1.733-1.011a19.339,19.339,0,0,0-3.466-1.781,25.527,25.527,0,0,0-14.44-.77c-8.5,2.008-15.573,9.145-24.548,9.145m-8.086,8.953v.289a25.916,25.916,0,0,0,4.621.289c9.139-.889,17.13-6.781,26.28-7.8,4.622-.513,9.8-.79,14.151,1.2a26,26,0,0,1,4.91,2.936c.624.477,1.473,1.829,2.31,1.829.605,0,1.041-.7,1.444-1.059a23.5,23.5,0,0,1,2.6-1.925,19.531,19.531,0,0,1,8.664-3.273c7.153-.7,14.463,1.277,21.082,3.85,4.486,1.745,9.014,3.764,13.862,4.236a25.914,25.914,0,0,0,4.621-.289c-.9-.651-2.6-.16-3.754-.385a35.8,35.8,0,0,1-6.931-2.214c-4.86-2.025-9.268-4.868-14.151-6.835a35.088,35.088,0,0,0-10.108-2.118,10.9,10.9,0,0,0-2.022-.289c-3.572.3-7.417.724-10.685,2.359a26.109,26.109,0,0,0-3.177,1.877c-.405.282-.9.841-1.444.818-.741-.031-1.711-1-2.31-1.4a23.13,23.13,0,0,0-4.332-2.118,27.523,27.523,0,0,0-15.017-.866c-10.786,2.247-19.27,10.878-30.612,10.878Z" transform="translate(-92.736 -196.57)" fill="#fff"/>
      <path id="path505259" d="M159.162,253.471h.289l.866-23.681-6.931.866-1.877.674.337,2.214,1.251,3.466,4.139,11.263,1.925,5.2m2.31-23.681,1.155,17.039.578,6.642,1.829-5.2,4.043-12.129,1.637-5.2-9.241-1.155m9.819,1.733-1.059,5.776-2.214,11.263-1.059,6.065c1.438-1.051,2.235-2.895,3.273-4.332,2.217-3.069,4.372-6.214,6.642-9.241.867-1.156,1.8-2.259,2.6-3.466.273-.413.727-.92.674-1.444-.079-.777-1.359-1.35-1.974-1.733-2.016-1.256-4.447-2.824-6.883-2.888m-29.746,4.91,3.8,5.487,10.06,13h.289l-1.637-6.931-2.791-12.129-1.059-4.043c-3.236.088-5.868,3.487-8.664,4.621m39.276.578-6.979,13.285-2.551,4.909c2.946,0,4.62-1.7,6.931-3.369,3.205-2.315,6.59-5.268,10.108-7.027a4.233,4.233,0,0,0-1.4-2.6c-1.461-1.753-3.693-4.944-6.113-5.2m-68.444.578.289.289-.289-.289m38.7,17.616L148,249.717l-4.621-7.8-1.877-3.177-1.107-1.011-1.733,1.3-4.236,4.621-.818,2.214,4.188,2.7,6.931,4.428,3.466,2.118,2.888.1m27.435.289,4.621,1.54,2.6,1.059,3.177-.77,5.776-1.54c-.695-3.77-3.4-7.134-5.2-10.4l-3.466,2.6-7.509,7.509M132.3,246.54c-1.41,3.573-4.6,6.991-4.91,10.974l6.642,1.251,3.466.674,6.642-2.792-2.31-2.6-5.68-4.861-3.85-2.647m78.263,9.53.289,1.155h.289l-.578-1.155m-21.948,3.177,2.31,1.492L196.705,263l-1.733-6.353-6.354,2.6m-61.513-1.155-1.444,5.487a17.4,17.4,0,0,0,8.664-2.6l-5.2-2.118Z" transform="translate(-100.489 -209.684)" fill="#fff"/>
    </g>
  </g>
</svg>
