<svg xmlns="http://www.w3.org/2000/svg" xmlns:xlink="http://www.w3.org/1999/xlink" width="175" height="168" viewBox="0 0 175 168">
  <defs>
    <filter id="Rectangle_15" x="0" y="0" width="175" height="168" filterUnits="userSpaceOnUse">
      <feOffset dx="5" dy="15" input="SourceAlpha"/>
      <feGaussianBlur stdDeviation="15" result="blur"/>
      <feFlood flood-opacity="0.161"/>
      <feComposite operator="in" in2="blur"/>
      <feComposite in="SourceGraphic"/>
    </filter>
  </defs>
  <g id="Group_253" data-name="Group 253" transform="translate(-1639 -951)">
    <g transform="matrix(1, 0, 0, 1, 1639, 951)" filter="url(#Rectangle_15)">
      <g id="Rectangle_15-2" data-name="Rectangle 15" transform="translate(40 30)" fill="#f5f5f5" stroke="#d2d2d2" stroke-width="1">
        <rect width="85" height="78" rx="16" stroke="none"/>
        <rect x="0.5" y="0.5" width="84" height="77" rx="15.5" fill="none"/>
      </g>
    </g>
    <g id="layer1" transform="translate(1692.564 926.566)">
      <g id="g505289" transform="translate(5.822 77.434)">
        <path id="path505245" d="M116.6,197.11c.718.359.915.48,1.616,0-.486-.685-1.168-.753-1.616,0m-5.279.215-.5.97.251.97.575,1.724c.716-.656.307-1.87.09-2.694a2.042,2.042,0,0,0-.413-.97m7.219,1.832v.431l-1.832-.108-.754-.072-.539.934a1.274,1.274,0,0,1,1.185.431c-.662.052-2.236.413-2.155-.754.028-.4.333-.7.431-1.077-.92.46-1.923,2.309-.431,2.765a3.444,3.444,0,0,0,2.352-.323c.228-.179.323-.516.575-.664.435-.257,1.076.273,1.455,0,.2-.142.236-.485.287-.7a2.833,2.833,0,0,0-.18-2.047c-.575-.827-2.05-.056-2.011.862.035.833,1.188.481,1.616.323m-9.8-1.4-.431,1.077c.307.178,1.2.944.844,1.383-.279.344-1.087.44-1.49.557a2.276,2.276,0,0,0,.072-.646.725.725,0,0,0-1.131-.4,2.383,2.383,0,0,0-.772,1.9l-1.042.341-.467-.449-1.185-.97.054,1.042.916.9-1.508.862-.431-.431c.079.426.3,1.272.754,1.454.326.132,1.391-.551,1.562-.826a1.028,1.028,0,0,0,.054-.521c.591.358.956-.029,1.508-.305a20.1,20.1,0,0,1,2.586-1.059c.359-.12,1.207-.166,1.365-.575.231-.6-.357-1.266-.341-1.832.008-.287.279-.6.377-.862l-1.293-.646m-4.31,1.939,1.059-.054.449-.467.754-.036.539-.736-1.059-.054-.449.431-.754.072-.539.844m13.791-1.077-.646-.215c.33-.139.528-.15.646.215m8.512,4.633c.059.546.658.751,1.077,1.042a19.522,19.522,0,0,1,1.814,1.365c.563.5.856,1,1.634.934-.23.583.279.885.646,1.293a3.2,3.2,0,0,1,1.077,1.832l1.042-.323L134,208.53l.718-.808,1.059.054-.108-1.508h-.952l-.341.539-.862,1.077h-.108l-.97-1.293.646-.97c-.464-.2-1.126-.237-1.293.323l-1.077-.862v-.108a.935.935,0,0,0-.108-1.473c-.758-.568-2.038-.43-2.909-.682l.431-.862c-.512,0-.77.032-.97.539l-1.077-.539v-.216c.554-.224.824-1.113.108-1.365-.8-.281-1.444.412-2.155.521a1.84,1.84,0,0,1-.754-.2c-.555-.185-1.6-.322-1.885-.9-.152-.308.1-.668.162-.97-.79.229-1.4,1.733-.628,2.334a5.643,5.643,0,0,0,1.6.5,20.1,20.1,0,0,1,2.586,1.059c.582.291.95.643,1.616.521m-1.508-4.2c.421.842.783.8,1.616.646-.462-.8-.771-.913-1.616-.646m-17.993,1.724v.108l-.97.215c.242-.47.511-.649.97-.323m18.424.754-.862-.539c.479,0,.8-.008.862.539m-11.205.97a1.53,1.53,0,0,0,.539.18c.2-.011.328-.176.539-.144.478.073.786.259.97-.359-.243-.122-.468-.328-.754-.269-.108.022-.206.167-.323.18-.179.02-.275-.159-.431-.18-.388-.05-.5.272-.539.593m15.623,1.939-1.293-.862c.526-.383,1.236.319,1.293.862m-29.521-.754.108.97c.26,0,.727-.091.952.054.262.168.169.454.108.7a2.556,2.556,0,0,1-1.275,1.616c.225.133.678-.007.97-.108a1.973,1.973,0,0,0,.844-.431,2.112,2.112,0,0,0-.305-2.55,2.533,2.533,0,0,0-1.4-.251m-2.586.431L98,205.19l.611.575,1.616,1.149a3.456,3.456,0,0,0-2.263-2.8m34.8,0c.022.853.371,1.121,1.185,1.185-.066-.838-.368-1.121-1.185-1.185m-37.494,2.478-.215.934-.593.377-.054,1.059.916-.646.108-.539.754-.646.054-.862-.97.323m1.724-.108c.019.725.247,1.02.97,1.077L96.6,209.392l-.682.628-.862-.413c.066.83,1.073,1.847,1.939,1.257.6-.407.967-1.342,1.419-1.9.195-.242.511-.526.521-.862.027-.986-1.1-1.616-1.939-1.616m37.063,4.417c.251.007.509.107.754.09a3.847,3.847,0,0,0,2.478-1.814l-1.185-.09-1.329,1.059-.718.754m-.323,3.125.108.108-.108-.108m-35.986.215.108.108-.108-.108m36.093,0,.108.108-.108-.108m-36.2.215c-.813,1.287-1.44,2.74-2.155,4.094-.682,1.293-1.334,2.6-2.047,3.879-.209.377-.75,1.064-.7,1.508a2.625,2.625,0,0,0,1.131,1.437c1.361.945,3.527.766,5.064.467a26.044,26.044,0,0,0,2.694-.431c3.871-1.183,8.539-1.882,11.959.826a10.853,10.853,0,0,1,2.155,2.334h.215c2.29-3.347,5.969-4.585,9.912-4.2a15.888,15.888,0,0,1,1.832.5,44.424,44.424,0,0,0,4.633.9c1.745.194,4.654.825,5.944-.754a2.55,2.55,0,0,0,.682-1.077c.049-.44-.487-1.128-.682-1.508-.649-1.263-1.341-2.5-1.975-3.771-.7-1.394-1.415-2.888-2.245-4.2h-.108a14.482,14.482,0,0,0,.826,2.155c.67,1.723,1.441,3.425,2.047,5.172.2.582.469,1.15.7,1.724.078.193.23.433.072.628a1.87,1.87,0,0,1-.736.341,5.566,5.566,0,0,1-2.047.323c-2.766,0-5.534-1.218-8.081-2.173-2.292-.859-5.08-1.4-7.434-.485a9.751,9.751,0,0,0-2.37,1.293c-.245.183-.77.826-1.077.826-.247,0-.671-.493-.862-.646a10.048,10.048,0,0,0-2.047-1.275,9.716,9.716,0,0,0-6.465-.2c-2.841.71-5.458,2.264-8.4,2.55-1.144.111-2.748.373-3.771-.359-.621-.445.293-1.877.521-2.442.737-1.829,1.454-3.666,2.191-5.495.176-.437.839-1.584.628-1.939m1.724,5.064v.108c.876.369,2.356-.1,3.232-.4,2.14-.713,4.3-1.862,6.572-2.083a8.361,8.361,0,0,1,4.633.557,6.163,6.163,0,0,1,1.293.844c.231.205.5.588.862.5.265-.063.455-.333.646-.5a6.164,6.164,0,0,1,1.293-.844,8.807,8.807,0,0,1,5.818-.305c2.085.434,3.973,1.478,6.034,1.993a4.492,4.492,0,0,0,2.586.233c-.3-.22-.989-.148-1.4-.251a13.014,13.014,0,0,1-1.832-.646c-2.917-1.216-5.572-3.2-8.943-2.873a8.424,8.424,0,0,0-2.909.772c-.358.179-1.016.808-1.4.808-.214,0-.468-.268-.646-.377a7.215,7.215,0,0,0-1.293-.664,9.524,9.524,0,0,0-5.387-.287c-3.172.749-5.81,3.412-9.158,3.412m-3.017,3.34v.108a9.668,9.668,0,0,0,1.724.108c3.409-.332,6.391-2.53,9.8-2.909a10.127,10.127,0,0,1,5.279.449,9.7,9.7,0,0,1,1.832,1.1c.233.178.55.682.862.682.226,0,.388-.261.539-.4a8.77,8.77,0,0,1,.97-.718,7.287,7.287,0,0,1,3.232-1.221,17.477,17.477,0,0,1,7.865,1.437,19.832,19.832,0,0,0,5.172,1.58,9.67,9.67,0,0,0,1.724-.108c-.334-.243-.968-.06-1.4-.144a13.36,13.36,0,0,1-2.586-.826c-1.813-.755-3.458-1.816-5.279-2.55a13.09,13.09,0,0,0-3.771-.79,4.064,4.064,0,0,0-.754-.108,10.959,10.959,0,0,0-3.986.88,9.739,9.739,0,0,0-1.185.7c-.151.105-.337.314-.539.305-.276-.012-.638-.375-.862-.521a8.629,8.629,0,0,0-1.616-.79,10.268,10.268,0,0,0-5.6-.323c-4.024.838-7.189,4.058-11.421,4.058Z" transform="translate(-92.736 -196.57)" fill="#1a6a8b"/>
        <path id="path505259" d="M129.831,238.625h.108l.323-8.835-2.586.323-.7.251.126.826.467,1.293,1.544,4.2.718,1.939m.862-8.835.431,6.357.215,2.478.682-1.939,1.508-4.525.611-1.939-3.448-.431m3.663.646-.4,2.155-.826,4.2-.4,2.263a6.678,6.678,0,0,0,1.221-1.616c.827-1.145,1.631-2.318,2.478-3.448.323-.431.672-.843.97-1.293.1-.154.271-.343.251-.539-.029-.29-.507-.5-.736-.646a5.582,5.582,0,0,0-2.568-1.077m-11.1,1.832,1.419,2.047,3.753,4.848h.108l-.611-2.586-1.041-4.525-.4-1.508c-1.207.033-2.189,1.3-3.232,1.724m14.653.215-2.6,4.956-.952,1.832a4.275,4.275,0,0,0,2.586-1.257,29.735,29.735,0,0,1,3.771-2.622,1.579,1.579,0,0,0-.521-.97c-.545-.654-1.378-1.844-2.281-1.939m-25.535.215.108.108-.108-.108m14.437,6.572-1.149-2.047-1.724-2.909-.7-1.185-.413-.377-.646.485-1.58,1.724-.305.826,1.562,1.006,2.586,1.652,1.293.79,1.077.036m10.235.108,1.724.575.97.4,1.185-.287,2.155-.575c-.259-1.406-1.267-2.661-1.939-3.879l-1.293.97-2.8,2.8m-17.239-3.34c-.526,1.333-1.714,2.608-1.832,4.094l2.478.467,1.293.251,2.478-1.042-.862-.97-2.119-1.814-1.437-.988m29.2,3.555.108.431h.108l-.215-.431m-8.188,1.185.862.557,2.155.844-.646-2.37-2.37.97m-22.949-.431-.539,2.047a6.49,6.49,0,0,0,3.232-.97l-1.939-.79Z" transform="translate(-107.942 -222.289)" fill="#f1a325"/>
      </g>
    </g>
  </g>
</svg>
