<svg xmlns="http://www.w3.org/2000/svg" width="80.898" height="56" viewBox="0 0 80.898 56">
  <g id="layer1" transform="translate(-5.823 -77.434)">
    <g id="g505289" transform="translate(5.822 77.434)">
      <path id="path505245" d="M134.5,197.514c1.257.629,1.6.84,2.828,0-.85-1.2-2.045-1.318-2.828,0m-9.239.377-.88,1.7.44,1.7,1.006,3.017c1.253-1.149.538-3.272.157-4.714a3.573,3.573,0,0,0-.723-1.7M137.9,201.1v.754l-3.205-.189-1.32-.126-.943,1.634a2.23,2.23,0,0,1,2.074.754c-1.158.091-3.913.722-3.771-1.32.048-.694.582-1.232.754-1.885-1.609.8-3.365,4.042-.754,4.839a6.027,6.027,0,0,0,4.117-.566c.4-.314.566-.9,1.006-1.163.762-.45,1.882.477,2.545,0,.345-.249.414-.848.5-1.226a4.957,4.957,0,0,0-.314-3.582c-1.007-1.447-3.588-.1-3.52,1.508.062,1.457,2.079.842,2.828.566m-17.158-2.451-.754,1.885c.537.311,2.1,1.652,1.477,2.42-.488.6-1.9.77-2.608.974a3.984,3.984,0,0,0,.126-1.131A1.268,1.268,0,0,0,117,202.1a4.17,4.17,0,0,0-1.351,3.331l-1.823.6-.817-.786-2.074-1.7.094,1.823,1.6,1.571-2.64,1.508-.754-.754c.137.746.532,2.226,1.32,2.545.571.232,2.435-.963,2.734-1.446a1.8,1.8,0,0,0,.094-.911c1.034.626,1.673-.051,2.64-.534a35.174,35.174,0,0,1,4.525-1.854c.629-.21,2.112-.291,2.388-1.006.4-1.047-.625-2.216-.6-3.205.014-.5.489-1.043.66-1.508l-2.263-1.131m-7.542,3.394,1.854-.094.786-.817,1.32-.063.943-1.288-1.854-.094-.786.754-1.32.126-.943,1.477m24.134-1.885-1.131-.377c.577-.243.924-.263,1.131.377m14.9,8.108c.1.955,1.152,1.313,1.885,1.823a34.166,34.166,0,0,1,3.174,2.388c.984.871,1.5,1.742,2.86,1.634-.4,1.02.487,1.549,1.131,2.263.81.9,1.853,1.958,1.885,3.205l1.823-.566-.032-1.508,1.257-1.414,1.854.094-.189-2.64h-1.665l-.6.943-1.508,1.885h-.189l-1.7-2.263,1.131-1.7c-.812-.342-1.971-.414-2.263.566l-1.885-1.508v-.189a1.636,1.636,0,0,0-.189-2.577c-1.326-.994-3.567-.753-5.091-1.194l.754-1.508c-.9,0-1.347.056-1.7.943L151.1,206v-.377c.969-.393,1.442-1.947.189-2.388-1.4-.492-2.527.721-3.771.911a3.22,3.22,0,0,1-1.32-.346c-.971-.324-2.8-.564-3.3-1.571-.266-.539.172-1.169.283-1.7-1.382.4-2.444,3.033-1.1,4.085.685.537,1.977.607,2.8.88a35.166,35.166,0,0,1,4.525,1.854c1.018.509,1.662,1.126,2.828.911m-2.64-7.353c.737,1.474,1.37,1.4,2.828,1.131-.809-1.4-1.349-1.6-2.828-1.131M118.1,203.925v.189l-1.7.377c.423-.823.895-1.136,1.7-.566m32.242,1.32-1.508-.943c.838,0,1.408-.014,1.508.943m-19.609,1.7a2.677,2.677,0,0,0,.943.314c.345-.019.574-.308.943-.252.836.128,1.375.453,1.7-.628-.426-.213-.819-.573-1.32-.471-.189.038-.36.292-.566.314-.313.035-.481-.279-.754-.314-.68-.088-.884.476-.943,1.037m27.339,3.394-2.263-1.508c.921-.669,2.163.558,2.263,1.508m-51.662-1.32.189,1.7c.454,0,1.271-.159,1.665.094.458.295.3.794.189,1.226a4.474,4.474,0,0,1-2.231,2.828c.393.232,1.187-.011,1.7-.189a3.452,3.452,0,0,0,1.477-.754c.894-1.046.582-3.7-.534-4.462a4.433,4.433,0,0,0-2.451-.44m-4.525.754.063,1.885,1.068,1.006,2.828,2.011c0-2.133-2.034-4.142-3.96-4.9m60.9,0c.039,1.492.649,1.961,2.074,2.074-.116-1.467-.644-1.961-2.074-2.074m-65.615,4.337-.377,1.634-1.037.66-.094,1.854,1.6-1.131.189-.943,1.32-1.131.094-1.508-1.7.566m3.017-.189c.033,1.268.432,1.786,1.7,1.885L99.5,219.009l-1.194,1.1-1.508-.723c.115,1.452,1.878,3.232,3.394,2.2,1.046-.713,1.691-2.349,2.483-3.331.341-.423.895-.921.911-1.508.048-1.726-1.921-2.828-3.394-2.828m64.861,7.73c.44.011.891.187,1.32.157,1.323-.092,3.98-1.941,4.337-3.174l-2.074-.157-2.325,1.854-1.257,1.32m-.566,5.468.189.189-.189-.189m-62.975.377.189.189-.189-.189m63.164,0,.189.189-.189-.189m-63.352.377c-1.423,2.253-2.52,4.795-3.771,7.165-1.194,2.263-2.335,4.542-3.582,6.788-.366.659-1.312,1.862-1.226,2.64a4.6,4.6,0,0,0,1.98,2.514c2.382,1.654,6.173,1.34,8.862.817a45.58,45.58,0,0,0,4.714-.754c6.774-2.07,14.943-3.293,20.929,1.445A18.993,18.993,0,0,1,133,252.57h.377c4.008-5.857,10.446-8.024,17.346-7.353a27.8,27.8,0,0,1,3.205.88,77.74,77.74,0,0,0,8.108,1.571c3.054.339,8.145,1.443,10.4-1.32a4.463,4.463,0,0,0,1.194-1.885c.086-.77-.852-1.973-1.194-2.64-1.136-2.211-2.346-4.379-3.457-6.6-1.219-2.439-2.476-5.054-3.928-7.353h-.189a25.341,25.341,0,0,0,1.446,3.771c1.172,3.015,2.521,5.994,3.582,9.05.354,1.019.821,2.012,1.226,3.017.136.338.4.758.126,1.1a3.272,3.272,0,0,1-1.288.6,9.741,9.741,0,0,1-3.582.566c-4.84,0-9.684-2.131-14.141-3.8-4.011-1.5-8.889-2.451-13.01-.848a17.066,17.066,0,0,0-4.148,2.263c-.428.321-1.348,1.446-1.885,1.446-.433,0-1.174-.862-1.508-1.131a17.584,17.584,0,0,0-3.582-2.231c-3.532-1.668-7.655-1.26-11.313-.346-4.971,1.243-9.552,3.961-14.707,4.462-2,.195-4.81.654-6.6-.628-1.086-.778.513-3.285.911-4.274,1.289-3.2,2.545-6.415,3.834-9.616.308-.764,1.468-2.771,1.1-3.394m3.017,8.862v.189c1.534.646,4.123-.18,5.656-.691,3.744-1.248,7.532-3.259,11.5-3.645,2.74-.266,5.566-.3,8.108.974a10.785,10.785,0,0,1,2.263,1.477c.4.359.878,1.029,1.508.88.464-.11.8-.582,1.131-.88a10.786,10.786,0,0,1,2.263-1.477c3.21-1.605,6.809-1.237,10.182-.534,3.649.76,6.952,2.587,10.559,3.488,1.355.339,3.193.97,4.525.409-.529-.384-1.73-.26-2.451-.44a22.777,22.777,0,0,1-3.205-1.131c-5.105-2.127-9.752-5.6-15.649-5.028a14.742,14.742,0,0,0-5.091,1.351c-.627.313-1.778,1.414-2.451,1.414-.375,0-.82-.47-1.131-.66a12.626,12.626,0,0,0-2.263-1.163,16.666,16.666,0,0,0-9.427-.5c-5.551,1.311-10.167,5.971-16.027,5.971m-5.279,5.845v.189a16.92,16.92,0,0,0,3.017.189c5.967-.58,11.184-4.427,17.158-5.091,3.018-.335,6.4-.516,9.239.786a16.976,16.976,0,0,1,3.205,1.917c.407.311.962,1.194,1.508,1.194.4,0,.68-.457.943-.691a15.346,15.346,0,0,1,1.7-1.257,12.752,12.752,0,0,1,5.656-2.137c4.67-.454,9.443.834,13.764,2.514,2.929,1.139,5.885,2.458,9.05,2.765a16.921,16.921,0,0,0,3.017-.189c-.585-.425-1.694-.1-2.451-.251a23.381,23.381,0,0,1-4.525-1.446c-3.173-1.322-6.051-3.178-9.239-4.462a22.907,22.907,0,0,0-6.6-1.383,7.113,7.113,0,0,0-1.32-.189,19.179,19.179,0,0,0-6.976,1.54,17.041,17.041,0,0,0-2.074,1.226c-.265.184-.59.549-.943.534-.484-.02-1.117-.656-1.508-.911a15.1,15.1,0,0,0-2.828-1.383,17.968,17.968,0,0,0-9.8-.566c-7.042,1.467-12.581,7.1-19.986,7.1Z" transform="translate(-92.736 -196.57)" fill="#1a6a8b"/>
      <path id="path505259" d="M142.922,245.251h.189l.566-15.461-4.525.566-1.226.44.22,1.446.817,2.263,2.7,7.353,1.257,3.394m1.508-15.461.754,11.124.377,4.337,1.194-3.394,2.64-7.919,1.069-3.394-6.034-.754m6.411,1.131-.691,3.771-1.445,7.353-.691,3.96a11.686,11.686,0,0,0,2.137-2.828c1.447-2,2.854-4.057,4.337-6.034.566-.755,1.175-1.475,1.7-2.263.178-.269.475-.6.44-.943-.051-.507-.887-.881-1.289-1.131-1.316-.82-2.9-1.844-4.494-1.885m-19.42,3.205,2.483,3.582,6.568,8.485h.189l-1.068-4.525-1.823-7.919-.691-2.64c-2.113.057-3.831,2.277-5.656,3.017m25.643.377-4.557,8.673-1.665,3.205c1.924,0,3.016-1.11,4.525-2.2a52.032,52.032,0,0,1,6.6-4.588,2.764,2.764,0,0,0-.911-1.7c-.954-1.144-2.411-3.228-3.991-3.394m-44.686.377.189.189-.189-.189m25.265,11.5-2.011-3.582-3.017-5.091-1.226-2.074-.723-.66-1.131.848-2.765,3.017-.534,1.446,2.734,1.76,4.525,2.891,2.263,1.383,1.885.063m17.912.189,3.017,1.006,1.7.691,2.074-.5,3.771-1.006c-.453-2.461-2.217-4.657-3.394-6.788l-2.263,1.7-4.9,4.9m-30.168-5.845c-.921,2.333-3,4.565-3.205,7.165l4.337.817,2.263.44,4.337-1.823-1.508-1.7-3.708-3.174-2.514-1.728m51.1,6.222.189.754h.189l-.377-.754m-14.33,2.074,1.508.974,3.771,1.477-1.131-4.148-4.148,1.7m-40.161-.754-.943,3.582a11.357,11.357,0,0,0,5.656-1.7l-3.394-1.383Z" transform="translate(-104.616 -216.663)" fill="#f1a325"/>
    </g>
  </g>
</svg>
