<svg xmlns="http://www.w3.org/2000/svg" width="34.671" height="24" viewBox="0 0 34.671 24">
  <g id="layer1" transform="translate(-5.823 -77.434)">
    <g id="g505289" transform="translate(5.822 77.434)">
      <path id="path505245" d="M110.637,196.975c.539.269.686.36,1.212,0-.364-.514-.876-.565-1.212,0m-3.96.162-.377.727.189.727.431,1.293c.537-.492.23-1.4.067-2.02a1.532,1.532,0,0,0-.31-.727m5.414,1.374v.323l-1.374-.081-.566-.054-.4.7a.956.956,0,0,1,.889.323c-.5.039-1.677.31-1.616-.566.021-.3.25-.528.323-.808-.69.345-1.442,1.732-.323,2.074a2.583,2.583,0,0,0,1.764-.242c.171-.134.243-.387.431-.5.327-.193.807.2,1.091,0,.148-.107.177-.363.215-.525a2.125,2.125,0,0,0-.135-1.535c-.432-.62-1.538-.042-1.508.646.026.625.891.361,1.212.242m-7.353-1.05-.323.808c.23.133.9.708.633,1.037-.209.258-.815.33-1.118.418a1.707,1.707,0,0,0,.054-.485.544.544,0,0,0-.848-.3,1.787,1.787,0,0,0-.579,1.428l-.781.256-.35-.337-.889-.727.04.781.687.673-1.131.646-.323-.323c.059.32.228.954.566,1.091.245.1,1.043-.413,1.172-.62a.771.771,0,0,0,.04-.391c.443.268.717-.022,1.131-.229a15.071,15.071,0,0,1,1.939-.795c.27-.09.9-.125,1.024-.431.174-.449-.268-.95-.256-1.374.006-.215.209-.447.283-.646l-.97-.485m-3.232,1.454.795-.04.337-.35.566-.027.4-.552-.795-.04-.337.323-.566.054-.4.633m10.343-.808-.485-.162c.247-.1.4-.113.485.162m6.384,3.475c.044.409.494.563.808.781a14.638,14.638,0,0,1,1.36,1.023c.422.374.642.746,1.226.7-.173.437.209.664.485.97a2.4,2.4,0,0,1,.808,1.374l.781-.242-.014-.646.539-.606.795.04-.081-1.131h-.714l-.256.4-.646.808h-.081l-.727-.97.485-.727c-.348-.146-.845-.178-.97.242l-.808-.646v-.081a.7.7,0,0,0-.081-1.1c-.568-.426-1.529-.323-2.182-.512l.323-.646c-.384,0-.577.024-.727.4l-.808-.4v-.162c.415-.168.618-.834.081-1.024-.6-.211-1.083.309-1.616.391a1.38,1.38,0,0,1-.566-.148c-.416-.139-1.2-.242-1.414-.673-.114-.231.074-.5.121-.727-.592.171-1.047,1.3-.471,1.751a4.233,4.233,0,0,0,1.2.377,15.071,15.071,0,0,1,1.939.795c.436.218.712.483,1.212.391m-1.131-3.151c.316.632.587.6,1.212.485-.347-.6-.578-.685-1.212-.485m-13.495,1.293v.081l-.727.162c.181-.353.383-.487.727-.242m13.818.566-.646-.4c.359,0,.6-.006.646.4m-8.4.727a1.147,1.147,0,0,0,.4.135c.148-.008.246-.132.4-.108.358.055.589.194.727-.269-.183-.091-.351-.246-.566-.2-.081.017-.154.125-.242.135-.134.015-.206-.12-.323-.135-.291-.038-.379.2-.4.444m11.717,1.454-.97-.646c.395-.287.927.239.97.646M98.6,201.9l.081.727c.195,0,.545-.068.714.04.2.126.127.34.081.525a1.917,1.917,0,0,1-.956,1.212c.169.1.509,0,.727-.081a1.479,1.479,0,0,0,.633-.323,1.584,1.584,0,0,0-.229-1.912,1.9,1.9,0,0,0-1.05-.189m-1.939.323.027.808.458.431,1.212.862a2.592,2.592,0,0,0-1.7-2.1m26.1,0c.017.639.278.841.889.889-.05-.629-.276-.84-.889-.889m-28.121,1.859-.162.7-.444.283-.04.795.687-.485.081-.4.566-.485.04-.646-.727.242M95.93,204c.014.543.185.765.727.808l-1.024,1.374-.512.471-.646-.31c.049.622.8,1.385,1.455.943.448-.305.725-1.007,1.064-1.428.146-.181.384-.395.391-.646.021-.74-.823-1.212-1.455-1.212m27.8,3.313c.189,0,.382.08.566.067a2.885,2.885,0,0,0,1.859-1.36l-.889-.067-1,.795-.539.566m-.242,2.343.081.081-.081-.081m-26.989.162.081.081-.081-.081m27.07,0,.081.081-.081-.081m-27.151.162c-.61.966-1.08,2.055-1.616,3.071-.512.97-1,1.947-1.535,2.909-.157.283-.562.8-.525,1.131a1.969,1.969,0,0,0,.848,1.077c1.021.709,2.645.574,3.8.35a19.541,19.541,0,0,0,2.02-.323c2.9-.887,6.4-1.411,8.97.619a8.14,8.14,0,0,1,1.616,1.751h.162a7.676,7.676,0,0,1,7.434-3.151,11.92,11.92,0,0,1,1.374.377,33.319,33.319,0,0,0,3.475.673c1.309.145,3.491.618,4.458-.566a1.912,1.912,0,0,0,.512-.808c.037-.33-.365-.846-.512-1.131-.487-.948-1.006-1.877-1.482-2.828-.523-1.045-1.061-2.166-1.683-3.151h-.081a10.861,10.861,0,0,0,.62,1.616c.5,1.292,1.08,2.569,1.535,3.879.152.437.352.862.525,1.293.058.145.173.325.054.471a1.4,1.4,0,0,1-.552.256,4.175,4.175,0,0,1-1.535.242c-2.074,0-4.15-.913-6.061-1.63a8.065,8.065,0,0,0-5.576-.364,7.314,7.314,0,0,0-1.778.97c-.183.138-.578.62-.808.62-.185,0-.5-.37-.646-.485a7.536,7.536,0,0,0-1.535-.956,7.287,7.287,0,0,0-4.848-.148c-2.131.533-4.094,1.7-6.3,1.912-.858.083-2.061.28-2.828-.269-.466-.334.22-1.408.391-1.832.552-1.372,1.091-2.749,1.643-4.121.132-.327.629-1.188.471-1.454m1.293,3.8v.081a4.13,4.13,0,0,0,2.424-.3A23.446,23.446,0,0,1,105.061,212a6.271,6.271,0,0,1,3.475.418,4.622,4.622,0,0,1,.97.633c.173.154.376.441.646.377.2-.047.341-.25.485-.377a4.622,4.622,0,0,1,.97-.633,6.606,6.606,0,0,1,4.364-.229c1.564.326,2.98,1.109,4.525,1.495a3.369,3.369,0,0,0,1.939.175c-.227-.165-.742-.111-1.05-.189a9.761,9.761,0,0,1-1.374-.485c-2.188-.912-4.179-2.4-6.707-2.155a6.319,6.319,0,0,0-2.182.579c-.269.134-.762.606-1.05.606-.161,0-.351-.2-.485-.283a5.413,5.413,0,0,0-.97-.5,7.143,7.143,0,0,0-4.04-.216c-2.379.562-4.357,2.559-6.869,2.559m-2.263,2.5v.081a7.254,7.254,0,0,0,1.293.081c2.557-.249,4.793-1.9,7.353-2.182a7.6,7.6,0,0,1,3.96.337,7.276,7.276,0,0,1,1.374.822c.175.133.412.512.646.512.169,0,.291-.2.4-.3a6.578,6.578,0,0,1,.727-.539,5.465,5.465,0,0,1,2.424-.916,13.108,13.108,0,0,1,5.9,1.077,14.873,14.873,0,0,0,3.879,1.185,7.253,7.253,0,0,0,1.293-.081c-.251-.182-.726-.045-1.05-.108a10.021,10.021,0,0,1-1.939-.62c-1.36-.567-2.593-1.362-3.96-1.912a9.817,9.817,0,0,0-2.828-.593,3.048,3.048,0,0,0-.566-.081,8.22,8.22,0,0,0-2.99.66,7.307,7.307,0,0,0-.889.525c-.113.079-.253.235-.4.229-.207-.009-.479-.281-.646-.391a6.473,6.473,0,0,0-1.212-.593,7.7,7.7,0,0,0-4.2-.242c-3.018.629-5.392,3.044-8.565,3.044Z" transform="translate(-92.736 -196.57)" fill="#006490"/>
      <path id="path505259" d="M125.468,236.416h.081l.242-6.626-1.939.242-.525.189.094.62.35.97,1.158,3.151.539,1.454m.646-6.626.323,4.768.162,1.859.512-1.454,1.131-3.394.458-1.455-2.586-.323m2.747.485-.3,1.616-.619,3.151-.3,1.7a5.009,5.009,0,0,0,.916-1.212c.62-.859,1.223-1.739,1.859-2.586.243-.323.5-.632.727-.97.076-.115.2-.257.189-.4-.022-.217-.38-.378-.552-.485a4.187,4.187,0,0,0-1.926-.808m-8.323,1.374,1.064,1.535,2.815,3.636h.081l-.458-1.939-.781-3.394-.3-1.131c-.905.025-1.642.976-2.424,1.293m10.99.162-1.953,3.717-.714,1.374a3.206,3.206,0,0,0,1.939-.943,22.3,22.3,0,0,1,2.828-1.966,1.185,1.185,0,0,0-.391-.727c-.409-.49-1.033-1.383-1.71-1.454m-19.151.162.081.081-.081-.081m10.828,4.929-.862-1.535-1.293-2.182-.525-.889-.31-.283-.485.364-1.185,1.293-.229.62,1.172.754,1.939,1.239.97.593.808.027m7.677.081,1.293.431.727.3.889-.215,1.616-.431a10.408,10.408,0,0,0-1.454-2.909l-.97.727-2.1,2.1m-12.929-2.505c-.395,1-1.286,1.956-1.374,3.071l1.859.35.97.189,1.859-.781-.646-.727-1.589-1.36-1.077-.741m21.9,2.667.081.323h.081l-.162-.323m-6.141.889.646.417,1.616.633-.485-1.778-1.778.727m-17.212-.323-.4,1.535a4.867,4.867,0,0,0,2.424-.727l-1.455-.593Z" transform="translate(-109.051 -224.164)" fill="#006490"/>
    </g>
  </g>
</svg>
