<svg xmlns="http://www.w3.org/2000/svg" width="495.558" height="37.807" viewBox="0 0 495.558 37.807">
  <g id="Group_1468" data-name="Group 1468" transform="translate(-1284.712 -422.973)">
    <path id="Path_2424" data-name="Path 2424" d="M-3143,14063.4c21.34-15.028,57.032-13.375,103.694-10.82s39.675,23.443,82.956,21.039,78.748-26.449,110.006-21.039,48.091,22.241,76.344,21.039,40.433-13.225,70.933-13.225,51.067,13.225,51.067,13.225" transform="translate(4428 -13627.52)" fill="none" stroke="#e99005" stroke-width="1"/>
    <path id="Path_2425" data-name="Path 2425" d="M-3143,14063.4c21.34-15.028,57.032-13.375,103.694-10.82s39.675,23.443,82.956,21.039,78.748-26.449,110.006-21.039,48.091,22.241,76.344,21.039,40.433-13.225,70.933-13.225,51.067,13.225,51.067,13.225" transform="translate(4428 -13613.52)" fill="none" stroke="#e99005" stroke-width="1"/>
  </g>
</svg>
