<svg xmlns="http://www.w3.org/2000/svg" width="22.576" height="22.589" viewBox="0 0 22.576 22.589">
  <path id="price-tag_2_" data-name="price-tag (2)" d="M20.964,0c-.024,0-.049,0-.073,0-.144.012-3.37.308-4.582,2.66l-4.377-.445A3.513,3.513,0,0,0,9.081,3.234L1.529,10.761a3.533,3.533,0,0,0,0,4.986l5.792,5.8A3.552,3.552,0,0,0,9.84,22.589a3.483,3.483,0,0,0,2.471-1.018.882.882,0,0,0-1.247-1.248A1.766,1.766,0,0,1,8.57,20.3L2.778,14.5a1.766,1.766,0,0,1,0-2.491l7.552-7.527a1.758,1.758,0,0,1,1.427-.509l6.711.682.087.858a9.317,9.317,0,0,1-2.412.53.882.882,0,0,0,.047,1.763h.047a10.939,10.939,0,0,0,2.5-.489l.411,4.031a1.757,1.757,0,0,1-.506,1.425l-4.3,4.239a.882.882,0,1,0,1.238,1.256l4.305-4.242,0,0A3.514,3.514,0,0,0,20.9,11.168l-.468-4.6a5.82,5.82,0,0,0,1.493-1.223,4.776,4.776,0,0,0,1.149-3.2V2.111A2.114,2.114,0,0,0,20.964,0Zm.347,2.147a3.046,3.046,0,0,1-1.083,2.418l-.082-.8a.882.882,0,0,0-.788-.788l-1.023-.1A5.1,5.1,0,0,1,21,1.765a.348.348,0,0,1,.316.346ZM14.164,12.922a.882.882,0,0,1-1.247-1.247.369.369,0,0,0,.109-.278.487.487,0,0,0-.148-.329l-.54-.54a.729.729,0,0,0-.508-.22.666.666,0,0,0-.489.2l-.139.139a.744.744,0,0,0-.023,1.037l.571.571A2.486,2.486,0,0,1,12.486,14a2.434,2.434,0,0,1-.72,1.759l-.065.065a2.4,2.4,0,0,1-1.709.715,2.476,2.476,0,0,1-1.5-.514l-.369.356A.882.882,0,1,1,6.9,15.108l.331-.319a2.209,2.209,0,0,1-.594-1.455,2.127,2.127,0,0,1,.631-1.561.882.882,0,0,1,1.247,1.247A.367.367,0,0,0,8.4,13.3a.459.459,0,0,0,.142.313l.929.929a.683.683,0,0,0,.986.035l.065-.065a.683.683,0,0,0,.2-.493.733.733,0,0,0-.22-.511l-.572-.571A2.5,2.5,0,0,1,9.954,9.4l.139-.139a2.428,2.428,0,0,1,1.728-.72h.027a2.463,2.463,0,0,1,1.262.364l.379-.391a.882.882,0,1,1,1.267,1.227l-.374.386a2.229,2.229,0,0,1,.406,1.217,2.12,2.12,0,0,1-.625,1.577Zm0,0" transform="translate(-0.5)" fill="#039a7b"/>
</svg>
