<svg xmlns="http://www.w3.org/2000/svg" xmlns:xlink="http://www.w3.org/1999/xlink" width="88.73" height="80" viewBox="0 0 88.73 80">
  <defs>
    <linearGradient id="linear-gradient" x1="0.163" y1="0.843" x2="0.811" y2="-0.015" gradientUnits="objectBoundingBox">
      <stop offset="0" stop-color="#ffd9d9" stop-opacity="0"/>
      <stop offset="0.998" stop-color="#ffb3b3"/>
    </linearGradient>
    <linearGradient id="linear-gradient-2" x1="0.5" y1="1" x2="0.5" gradientUnits="objectBoundingBox">
      <stop offset="0" stop-color="#ff4d4d" stop-opacity="0.4"/>
      <stop offset="0.146" stop-color="#ff4d4d" stop-opacity="0.341"/>
      <stop offset="1" stop-color="#ff4d4d" stop-opacity="0"/>
    </linearGradient>
  </defs>
  <g id="research_2_" data-name="research (2)" transform="translate(0 -25.187)">
    <g id="Group_1517" data-name="Group 1517" transform="translate(0 25.187)">
      <g id="Group_1489" data-name="Group 1489" transform="translate(0 0.068)">
        <path id="Path_3225" data-name="Path 3225" d="M72.9,32.777c-30.828,4.807-31.206-10.339-53.447-6.6-25.035,4.213-23.332,45.161-9.4,62C34.49,117.7,84.214,109.757,78.141,62.43c-.814-6.341,3.8-9.756,8.152-13.54C91.759,44.137,88.335,30.371,72.9,32.777Z" transform="translate(0 -25.58)" fill="url(#linear-gradient)"/>
      </g>
      <g id="Group_1516" data-name="Group 1516" transform="translate(6.978 0)">
        <g id="Group_1510" data-name="Group 1510" transform="translate(0 2.831)">
          <g id="Group_1503" data-name="Group 1503">
            <g id="Group_1494" data-name="Group 1494">
              <g id="Group_1491" data-name="Group 1491" transform="translate(0 8.879)">
                <path id="Path_3226" data-name="Path 3226" d="M92.591,94.32v48.25a1.566,1.566,0,0,1-1.567,1.565H41.835a1.564,1.564,0,0,1-1.565-1.565V94.32a1.566,1.566,0,0,1,1.565-1.567h49.19A1.567,1.567,0,0,1,92.591,94.32Z" transform="translate(-40.269 -92.753)" fill="#fff"/>
                <g id="Group_1490" data-name="Group 1490" transform="translate(7.347)">
                  <path id="Path_3227" data-name="Path 3227" d="M127.635,94.32v34.445a19.183,19.183,0,0,1-19.6-6.007c-2.825,3.239-4.917,6.154-4.917,11.057a5.265,5.265,0,0,1-10.53,0c0-9.552,4.839-14.985,8.726-19.349.816-.917,1.542-1.743,2.173-2.523a19.234,19.234,0,0,1,1.934-10.2,6.589,6.589,0,0,0-12.232,3.405,5.264,5.264,0,1,1-10.528,0,17.07,17.07,0,0,1,5.327-12.4h23.579q.572.541,1.092,1.135c.113-.069.224-.137.338-.2a19.022,19.022,0,0,1,1.835-.932h11.237a1.567,1.567,0,0,1,1.567,1.567Z" transform="translate(-82.66 -92.753)" fill="#d9d9ff"/>
                </g>
                <path id="Path_3228" data-name="Path 3228" d="M111.625,177.21v29.822a.866.866,0,0,1-.867.867H70.266a.865.865,0,0,1-.867-.867V177.21a.866.866,0,0,1,.867-.867h40.492A.867.867,0,0,1,111.625,177.21Z" transform="translate(-64.351 -161.857)" fill="#ffe8dc"/>
                <path id="Path_3229" data-name="Path 3229" d="M169.94,177.21v21.338a19.176,19.176,0,0,1-14.554-6.686c-2.825,3.239-4.917,6.154-4.917,11.057a5.265,5.265,0,0,1-3.554,4.979h-3.421a5.265,5.265,0,0,1-3.554-4.979c0-9.552,4.839-14.985,8.726-19.349.816-.917,1.542-1.743,2.173-2.523a19.051,19.051,0,0,1,.175-4.7h18.06A.867.867,0,0,1,169.94,177.21Z" transform="translate(-122.667 -161.857)" fill="#ffd6bb"/>
                <path id="Path_3230" data-name="Path 3230" d="M92.588,101.364V94.323a1.566,1.566,0,0,0-1.566-1.566H41.833a1.566,1.566,0,0,0-1.566,1.566v7.041Z" transform="translate(-40.267 -92.756)" fill="#ff9d33"/>
              </g>
              <g id="Group_1493" data-name="Group 1493" transform="translate(7.346)">
                <g id="Group_1492" data-name="Group 1492">
                  <path id="Path_3231" data-name="Path 3231" d="M99.775,41.52A17.139,17.139,0,0,0,82.656,58.639a5.264,5.264,0,0,0,10.529,0,6.591,6.591,0,0,1,13.181,0c0,3.466-1.827,5.687-5.056,9.312-3.887,4.365-8.726,9.8-8.726,19.35a5.264,5.264,0,0,0,10.529,0c0-5.544,2.674-8.546,6.059-12.347,3.441-3.863,7.723-8.671,7.723-16.315A17.138,17.138,0,0,0,99.775,41.52Z" transform="translate(-82.656 -41.52)" fill="#ff4d4d"/>
                  <path id="Path_3232" data-name="Path 3232" d="M215.9,101.076c0,7.644-4.282,12.452-7.724,16.314-1,1.126-1.941,2.182-2.768,3.253q-.218-.343-.425-.7a19.072,19.072,0,0,1-2.385-12.218c1.792-2.243,2.771-4.112,2.771-6.65a6.576,6.576,0,0,0-.055-.851,19.2,19.2,0,0,1,8.478-7.372A17.01,17.01,0,0,1,215.9,101.076Z" transform="translate(-181.659 -83.957)" fill="#ff2c2c"/>
                  <circle id="Ellipse_972" data-name="Ellipse 972" cx="5.264" cy="5.264" r="5.264" transform="translate(10.16 55.885)" fill="#ff4d4d"/>
                </g>
              </g>
            </g>
            <g id="Group_1499" data-name="Group 1499" transform="translate(28.103 3.085)">
              <g id="Group_1495" data-name="Group 1495" transform="translate(26.391 33.894)">
                <path id="Path_3233" data-name="Path 3233" d="M0,0H4.417V9.236H0Z" transform="matrix(0.866, -0.5, 0.5, 0.866, 0, 2.208)" fill="#d9d9ff"/>
                <path id="Path_3234" data-name="Path 3234" d="M360.543,258.365a19.2,19.2,0,0,1-3.473,2.561l-.113.064-2.237-3.877,3.826-2.208Z" transform="translate(-354.719 -254.905)" fill="#b3b3ff"/>
              </g>
              <g id="Group_1496" data-name="Group 1496">
                <circle id="Ellipse_973" data-name="Ellipse 973" cx="19.161" cy="19.161" r="19.161" fill="#9494ff"/>
                <path id="Path_3235" data-name="Path 3235" d="M358.85,118.5V91.247a15.777,15.777,0,0,1,0,27.257Z" transform="translate(-331.742 -85.715)" fill="#d9d9ff"/>
              </g>
              <g id="Group_1498" data-name="Group 1498" transform="translate(29.629 40.505)">
                <path id="Path_3236" data-name="Path 3236" d="M386.674,305.416l-2.525,2.471-3.9,1.24-6.6-11.438a1.848,1.848,0,0,1,.676-2.525l3.225-1.861a1.848,1.848,0,0,1,2.525.676Z" transform="translate(-373.396 -293.053)" fill="#ffab66"/>
                <path id="Path_3237" data-name="Path 3237" d="M429.908,382.661l-2.286,2.566-4.14,1.144-1.272-2.2L425,381.382l3.638-.925Z" transform="translate(-413.751 -365.31)" fill="#ffab66"/>
                <g id="Group_1497" data-name="Group 1497" transform="translate(6.849 12.36)">
                  <path id="Path_3238" data-name="Path 3238" d="M0,0H7.42V3.216H0Z" transform="matrix(0.866, -0.5, 0.5, 0.866, 0, 3.71)" fill="#ffd6bb"/>
                  <path id="Path_3239" data-name="Path 3239" d="M429.55,396.886l2.406,4.167a1.849,1.849,0,0,0,2.525.677l3.224-1.862a1.849,1.849,0,0,0,.677-2.525l-2.406-4.167Z" transform="translate(-426.667 -388.185)" fill="#ffd6bb"/>
                </g>
              </g>
            </g>
            <g id="Group_1500" data-name="Group 1500" transform="translate(7.828 44.088)">
              <circle id="Ellipse_974" data-name="Ellipse 974" cx="0.867" cy="0.867" r="0.867" fill="#ff9d33"/>
              <circle id="Ellipse_975" data-name="Ellipse 975" cx="0.867" cy="0.867" r="0.867" transform="translate(0 3.401)" fill="#ff9d33"/>
              <circle id="Ellipse_976" data-name="Ellipse 976" cx="0.867" cy="0.867" r="0.867" transform="translate(0 6.802)" fill="#ff9d33"/>
            </g>
            <g id="Group_1502" data-name="Group 1502" transform="translate(33.116 47.488)">
              <path id="Path_3240" data-name="Path 3240" d="M232.226,317.276h7.033a.867.867,0,1,0,0-1.733h-7.033a.867.867,0,1,0,0,1.733Z" transform="translate(-231.36 -315.543)" fill="#ffab66"/>
              <path id="Path_3241" data-name="Path 3241" d="M232.226,337.658h7.033a.867.867,0,1,0,0-1.733h-7.033a.867.867,0,1,0,0,1.733Z" transform="translate(-231.36 -332.393)" fill="#ffab66"/>
              <g id="Group_1501" data-name="Group 1501" transform="translate(10.152)">
                <circle id="Ellipse_977" data-name="Ellipse 977" cx="0.867" cy="0.867" r="0.867" fill="#ff6c6c"/>
                <circle id="Ellipse_978" data-name="Ellipse 978" cx="0.867" cy="0.867" r="0.867" transform="translate(0 3.532)" fill="#ff6c6c"/>
              </g>
            </g>
            <path id="Path_3242" data-name="Path 3242" d="M265.235,104.937v24.884l-.059.035A15.775,15.775,0,0,1,245.61,126.8c3.541-4,7.568-9.01,7.568-16.682a18.231,18.231,0,0,0-.747-5.183Z" transform="translate(-210.024 -93.947)" fill="#fff"/>
            <path id="Path_3243" data-name="Path 3243" d="M258.15,163.195v16.133a15.789,15.789,0,0,1-12.54-5.147c2.752-3.111,5.8-6.828,7.019-11.933H257.2A.947.947,0,0,1,258.15,163.195Z" transform="translate(-210.024 -141.325)" fill="#fff3ee"/>
            <path id="Path_3244" data-name="Path 3244" d="M291.491,81v2.372h-12.8a18.138,18.138,0,0,0-1.317-3.262A15.777,15.777,0,0,1,291.491,81Z" transform="translate(-236.28 -72.381)" fill="#ffab66"/>
            <path id="Path_3245" data-name="Path 3245" d="M233.62,94.558c0,7.672-4.027,12.679-7.568,16.682a15.781,15.781,0,0,1,3.79-24.271,15.958,15.958,0,0,1,1.714-.856A18.211,18.211,0,0,1,233.62,94.558Z" transform="translate(-190.466 -78.385)" fill="#ff6c6c"/>
          </g>
          <g id="Group_1504" data-name="Group 1504" transform="translate(7.778 23.365)">
            <path id="Path_3246" data-name="Path 3246" d="M94.815,176.343a5.263,5.263,0,0,1-9.665,0Z" transform="translate(-85.15 -176.343)" fill="#ffd6bb"/>
          </g>
          <g id="Group_1509" data-name="Group 1509" transform="translate(33.057 63.736)">
            <g id="Group_1508" data-name="Group 1508">
              <g id="Group_1505" data-name="Group 1505">
                <path id="Path_3247" data-name="Path 3247" d="M235.1,411.029h-3.22a.867.867,0,0,1,0-1.733h3.22a.867.867,0,1,1,0,1.733Z" transform="translate(-231.017 -409.296)" fill="#8383ff"/>
              </g>
              <g id="Group_1506" data-name="Group 1506" transform="translate(0 3.532)">
                <path id="Path_3248" data-name="Path 3248" d="M242.036,431.411H231.883a.867.867,0,0,1,0-1.733h10.152a.867.867,0,0,1,0,1.733Z" transform="translate(-231.017 -429.678)" fill="#8383ff"/>
              </g>
              <g id="Group_1507" data-name="Group 1507" transform="translate(0 7.064)">
                <path id="Path_3249" data-name="Path 3249" d="M242.036,451.793H231.883a.867.867,0,0,1,0-1.733h10.152a.867.867,0,1,1,0,1.733Z" transform="translate(-231.017 -450.06)" fill="#8383ff"/>
              </g>
            </g>
          </g>
        </g>
        <g id="Group_1511" data-name="Group 1511" transform="translate(2.218 69.744)">
          <path id="Path_3250" data-name="Path 3250" d="M55.9,433.293a.866.866,0,0,1-.867-.866,1.1,1.1,0,0,0-1.1-1.1.866.866,0,1,1,0-1.733,1.1,1.1,0,0,0,1.1-1.1.867.867,0,0,1,1.733,0,1.1,1.1,0,0,0,1.1,1.1.866.866,0,1,1,0,1.733,1.1,1.1,0,0,0-1.1,1.1A.866.866,0,0,1,55.9,433.293Z" transform="translate(-53.066 -427.632)" fill="#ff6c6c"/>
        </g>
        <g id="Group_1512" data-name="Group 1512" transform="translate(55.886)">
          <path id="Path_3251" data-name="Path 3251" d="M365.581,30.848a.866.866,0,0,1-.866-.867,1.1,1.1,0,0,0-1.1-1.1.867.867,0,1,1,0-1.733,1.1,1.1,0,0,0,1.1-1.1.867.867,0,1,1,1.733,0,1.1,1.1,0,0,0,1.1,1.1.867.867,0,0,1,0,1.733,1.1,1.1,0,0,0-1.1,1.1A.866.866,0,0,1,365.581,30.848Z" transform="translate(-362.75 -25.187)" fill="#ffab66"/>
        </g>
        <g id="Group_1513" data-name="Group 1513" transform="translate(53.922 67.78)">
          <path id="Path_3252" data-name="Path 3252" d="M354.247,421.96a.866.866,0,0,1-.867-.867,1.1,1.1,0,0,0-1.1-1.1.867.867,0,1,1,0-1.733,1.1,1.1,0,0,0,1.1-1.1.867.867,0,0,1,1.733,0,1.1,1.1,0,0,0,1.1,1.1.867.867,0,1,1,0,1.733,1.1,1.1,0,0,0-1.1,1.1A.866.866,0,0,1,354.247,421.96Z" transform="translate(-351.417 -416.299)" fill="#8383ff"/>
        </g>
        <g id="Group_1514" data-name="Group 1514" transform="translate(10.875 75.087)">
          <path id="Path_3253" data-name="Path 3253" d="M107.006,461.758a.863.863,0,0,1-.613-.254l-.947-.947-.947.947a.866.866,0,0,1-1.225-1.225l1.56-1.56a.866.866,0,0,1,1.225,0l1.56,1.56a.866.866,0,0,1-.613,1.479Z" transform="translate(-103.02 -458.465)" fill="#ffab66"/>
        </g>
        <g id="Group_1515" data-name="Group 1515" transform="translate(68.63 33.226)">
          <path id="Path_3254" data-name="Path 3254" d="M440.273,220.206a.863.863,0,0,1-.613-.254l-.947-.947-.947.947a.866.866,0,1,1-1.225-1.225l1.56-1.56a.866.866,0,0,1,1.225,0l1.56,1.56a.866.866,0,0,1-.613,1.479Z" transform="translate(-436.287 -216.913)" fill="#8383ff"/>
        </g>
      </g>
    </g>
    <path id="Path_3255" data-name="Path 3255" d="M116.564,106.629l-11.89-20.593a1.848,1.848,0,0,0-2.208-.821l-3.5-6.068a19.161,19.161,0,0,0-21.01-31.974c-.114.066-.227.134-.339.2A17.1,17.1,0,0,0,49.734,50.4h-7.9a1.566,1.566,0,0,0-1.565,1.567v48.25a1.564,1.564,0,0,0,1.565,1.565H57.851a5.264,5.264,0,1,0,10.376,0h22.8a1.566,1.566,0,0,0,1.567-1.565V82.252a19.086,19.086,0,0,0,2.547-.9l3.5,6.068a1.848,1.848,0,0,0-.393,2.323l11.89,20.593a1.849,1.849,0,0,0,2.525.677l3.224-1.862a1.848,1.848,0,0,0,.676-2.525Z" transform="translate(-33.291 -13.502)" fill="url(#linear-gradient-2)"/>
  </g>
</svg>
