<svg xmlns="http://www.w3.org/2000/svg" width="78.729" height="80" viewBox="0 0 78.729 80">
  <g id="question_4_" data-name="question (4)" transform="translate(-4.064)" opacity="0.6" style="mix-blend-mode: luminosity;isolation: isolate">
    <path id="Path_3406" data-name="Path 3406" d="M40.1,68.75V84.992a6.186,6.186,0,0,0,6.247,6.247H50.1a1.18,1.18,0,0,1,1.249,1.249v5.747a1.25,1.25,0,0,0,2.124.875l6-6a6.362,6.362,0,0,1,4.373-1.874h10a6.186,6.186,0,0,0,6.247-6.247V68.75A6.186,6.186,0,0,0,73.835,62.5H46.349A6.265,6.265,0,0,0,40.1,68.75Z" transform="translate(-30.407 -52.737)" fill="#ffa000"/>
    <path id="Path_3407" data-name="Path 3407" d="M49.229,96.717a1.935,1.935,0,0,1-.737-.148,1.822,1.822,0,0,1-1.144-1.708V89.114a.564.564,0,0,0-.625-.625H42.975A6.8,6.8,0,0,1,36.1,81.618V65.376A6.879,6.879,0,0,1,42.975,58.5H70.461a6.8,6.8,0,0,1,6.872,6.872V81.618a6.8,6.8,0,0,1-6.872,6.872h-10a5.708,5.708,0,0,0-3.931,1.692l-6,6A1.849,1.849,0,0,1,49.229,96.717ZM42.975,59.754a5.629,5.629,0,0,0-5.622,5.622V81.618a5.563,5.563,0,0,0,5.622,5.622h3.748A1.813,1.813,0,0,1,48.6,89.114v5.747a.58.58,0,0,0,.372.553.622.622,0,0,0,.685-.121l6-6a6.987,6.987,0,0,1,4.815-2.058h10a5.563,5.563,0,0,0,5.622-5.622V65.374a5.563,5.563,0,0,0-5.622-5.622H42.975Z" transform="translate(-27.033 -49.363)" fill="#37474f"/>
    <path id="Path_3408" data-name="Path 3408" d="M40.1,36.766V53.008a6.186,6.186,0,0,0,6.247,6.247H50.1A1.18,1.18,0,0,1,51.346,60.5v5.747a1.25,1.25,0,0,0,2.124.875l6-6a6.362,6.362,0,0,1,4.373-1.874h10a6.186,6.186,0,0,0,6.247-6.247V36.766a6.186,6.186,0,0,0-6.247-6.247H46.349A6.265,6.265,0,0,0,40.1,36.766Z" transform="translate(-30.407 -25.75)" fill="#ffca28"/>
    <path id="Path_3409" data-name="Path 3409" d="M49.229,64.732a1.935,1.935,0,0,1-.737-.147,1.822,1.822,0,0,1-1.144-1.708V57.13a.564.564,0,0,0-.625-.625H42.975A6.8,6.8,0,0,1,36.1,49.633V33.392a6.879,6.879,0,0,1,6.872-6.872H70.461a6.8,6.8,0,0,1,6.872,6.872V49.634a6.8,6.8,0,0,1-6.872,6.872h-10A5.708,5.708,0,0,0,56.535,58.2l-6,6A1.849,1.849,0,0,1,49.229,64.732ZM42.975,27.77a5.629,5.629,0,0,0-5.622,5.622V49.634a5.563,5.563,0,0,0,5.622,5.622h3.748A1.813,1.813,0,0,1,48.6,57.13v5.747a.58.58,0,0,0,.372.553.622.622,0,0,0,.685-.121l6-6a6.988,6.988,0,0,1,4.815-2.057h10a5.563,5.563,0,0,0,5.622-5.622V33.392a5.563,5.563,0,0,0-5.622-5.622Z" transform="translate(-27.033 -22.376)" fill="#37474f"/>
    <path id="Path_3410" data-name="Path 3410" d="M52.721,52.508a.625.625,0,0,1-.625-.625v-5a4.327,4.327,0,0,1,4.373-4.373h5a.625.625,0,0,1,0,1.249h-5a3.055,3.055,0,0,0-3.123,3.123v5A.624.624,0,0,1,52.721,52.508Z" transform="translate(-40.527 -35.87)" fill="#ffe082"/>
    <path id="Path_3411" data-name="Path 3411" d="M256,252.661V268.9a6.186,6.186,0,0,1-6.247,6.247H246a1.18,1.18,0,0,0-1.249,1.249v5.747a1.25,1.25,0,0,1-2.124.875l-6-6a6.362,6.362,0,0,0-4.373-1.874h-10a6.186,6.186,0,0,1-6.247-6.247V252.661a6.186,6.186,0,0,1,6.247-6.247h27.486A6.265,6.265,0,0,1,256,252.661Z" transform="translate(-178.837 -207.912)" fill="#d32f2f"/>
    <path id="Path_3412" data-name="Path 3412" d="M240.123,280.622a1.842,1.842,0,0,1-1.309-.54l-6-6a5.705,5.705,0,0,0-3.931-1.692h-10a6.8,6.8,0,0,1-6.872-6.872V249.28a6.8,6.8,0,0,1,6.872-6.872h27.486a6.88,6.88,0,0,1,6.872,6.872v16.242a6.8,6.8,0,0,1-6.872,6.872h-3.748a.564.564,0,0,0-.625.625v5.747a1.821,1.821,0,0,1-1.144,1.708A1.91,1.91,0,0,1,240.123,280.622ZM218.89,243.659a5.563,5.563,0,0,0-5.622,5.622v16.242a5.563,5.563,0,0,0,5.622,5.622h10A6.983,6.983,0,0,1,233.7,273.2l6,6a.622.622,0,0,0,.685.121.581.581,0,0,0,.372-.553v-5.747a1.793,1.793,0,0,1,1.874-1.874h3.748A5.563,5.563,0,0,0,252,265.523V249.281a5.629,5.629,0,0,0-5.622-5.622Z" transform="translate(-175.461 -204.532)" fill="#37474f"/>
    <path id="Path_3413" data-name="Path 3413" d="M256,220.676v16.242a6.186,6.186,0,0,1-6.247,6.247H246a1.18,1.18,0,0,0-1.249,1.249v5.747a1.25,1.25,0,0,1-2.124.875l-6-6a6.362,6.362,0,0,0-4.373-1.874h-10a6.186,6.186,0,0,1-6.247-6.247V220.676a6.186,6.186,0,0,1,6.247-6.247h27.486A6.265,6.265,0,0,1,256,220.676Z" transform="translate(-178.837 -180.925)" fill="#ef5350"/>
    <path id="Path_3414" data-name="Path 3414" d="M240.123,248.637a1.842,1.842,0,0,1-1.309-.54l-6-6a5.705,5.705,0,0,0-3.931-1.692h-10a6.8,6.8,0,0,1-6.872-6.872V217.295a6.8,6.8,0,0,1,6.872-6.872h27.486a6.88,6.88,0,0,1,6.872,6.872v16.242a6.8,6.8,0,0,1-6.872,6.872h-3.748a.564.564,0,0,0-.625.625v5.747a1.821,1.821,0,0,1-1.144,1.708A1.91,1.91,0,0,1,240.123,248.637ZM218.89,211.674a5.563,5.563,0,0,0-5.622,5.622v16.242a5.563,5.563,0,0,0,5.622,5.622h10a6.983,6.983,0,0,1,4.815,2.057l6,6a.622.622,0,0,0,.685.121.581.581,0,0,0,.372-.553v-5.747a1.793,1.793,0,0,1,1.874-1.874h3.748A5.563,5.563,0,0,0,252,233.538V217.3a5.629,5.629,0,0,0-5.622-5.622Z" transform="translate(-175.461 -177.545)" fill="#37474f"/>
    <path id="Path_3415" data-name="Path 3415" d="M228.636,236.419a.625.625,0,0,1-.625-.625v-5a4.327,4.327,0,0,1,4.373-4.373h5a.625.625,0,1,1,0,1.249h-5a3.055,3.055,0,0,0-3.123,3.123v5A.624.624,0,0,1,228.636,236.419Z" transform="translate(-188.956 -191.046)" fill="#ef9a9a"/>
    <path id="Path_3416" data-name="Path 3416" d="M302.633,263.205l-7.5-14.993a1.95,1.95,0,0,0-1.624-1,1.8,1.8,0,0,0-1.624,1l-7.5,14.993a1.872,1.872,0,0,0,3.373,1.624l1.374-2.749h8.871l1.374,2.749a1.95,1.95,0,0,0,1.624,1,2.318,2.318,0,0,0,.875-.25A1.687,1.687,0,0,0,302.633,263.205Zm-11.744-4.873,2.624-5.122,2.624,5.122Z" transform="translate(-236.341 -208.586)" fill="#eceff1"/>
    <path id="Path_3417" data-name="Path 3417" d="M282.719,263.169a2.265,2.265,0,0,1-1.136-.3,2.569,2.569,0,0,1-1.308-1.533,2.3,2.3,0,0,1,.2-1.818l7.48-14.961a2.406,2.406,0,0,1,2.183-1.346,2.578,2.578,0,0,1,2.16,1.3l7.513,15.02a2.342,2.342,0,0,1,.174,1.889,2.241,2.241,0,0,1-1.228,1.354,2.88,2.88,0,0,1-1.121.3,2.574,2.574,0,0,1-2.16-1.3l-1.223-2.444h-8.1l-1.2,2.4a2.608,2.608,0,0,1-1.552,1.339A2.29,2.29,0,0,1,282.719,263.169Zm7.42-18.711a1.2,1.2,0,0,0-1.044.607L281.577,260.1a1.078,1.078,0,0,0-.106.866,1.327,1.327,0,0,0,.7.795,1.081,1.081,0,0,0,.865.108,1.33,1.33,0,0,0,.8-.7l1.374-2.747a.626.626,0,0,1,.558-.345h8.872a.626.626,0,0,1,.558.345l1.374,2.747a1.3,1.3,0,0,0,1.066.655,1.831,1.831,0,0,0,.6-.184,1.016,1.016,0,0,0,.57-.618,1.094,1.094,0,0,0-.084-.887l-.016-.03-7.5-14.993A1.316,1.316,0,0,0,290.139,244.459Zm2.625,11.12h-5.247a.625.625,0,0,1-.557-.908l2.624-5.124a.651.651,0,0,1,1.113,0l2.625,5.124a.625.625,0,0,1-.557.908Zm-4.227-1.25h3.2l-1.6-3.128Z" transform="translate(-232.968 -205.207)" fill="#37474f"/>
    <path id="Path_3418" data-name="Path 3418" d="M125.31,77.8a9.118,9.118,0,0,0,1.5-5.122,9.37,9.37,0,1,0-9.37,9.37,10.227,10.227,0,0,0,5.122-1.5l1,1a2.14,2.14,0,0,0,2.749,0,1.812,1.812,0,0,0,0-2.624Zm-7.871.375a5.622,5.622,0,1,1,5.622-5.622,5.168,5.168,0,0,1-.625,2.374L121.312,73.8a1.855,1.855,0,0,0-2.624,2.624l1.125,1.125A4,4,0,0,1,117.439,78.171Z" transform="translate(-87.753 -53.412)" fill="#eceff1"/>
    <path id="Path_3419" data-name="Path 3419" d="M121.563,79.3a2.466,2.466,0,0,1-1.815-.682l-.666-.666a10.561,10.561,0,0,1-5.015,1.348,10,10,0,1,1,10-10,9.73,9.73,0,0,1-1.346,5.059l.687.773a2.416,2.416,0,0,1-.025,3.481A2.465,2.465,0,0,1,121.563,79.3Zm-2.373-2.749a.629.629,0,0,1,.442.182l1,1a1.523,1.523,0,0,0,1.867,0,1.192,1.192,0,0,0,0-1.74l-1.025-1.151a.624.624,0,0,1-.053-.761,8.446,8.446,0,0,0,1.394-4.776,8.746,8.746,0,1,0-8.746,8.746,9.531,9.531,0,0,0,4.808-1.414A.6.6,0,0,1,119.191,76.546Zm-5.124-1.124a6.247,6.247,0,1,1,6.247-6.247,5.714,5.714,0,0,1-.691,2.654.624.624,0,0,1-.459.337.614.614,0,0,1-.542-.175L117.5,70.867a1.231,1.231,0,0,0-1.74,1.74l1.125,1.125a.622.622,0,0,1,.18.5.629.629,0,0,1-.275.459A4.647,4.647,0,0,1,114.067,75.422Zm0-11.244a5,5,0,0,0,0,10A4.112,4.112,0,0,0,115.385,74l-.511-.511a2.48,2.48,0,1,1,3.507-3.507l.469.469a3.963,3.963,0,0,0,.214-1.276A5,5,0,0,0,114.067,64.178Z" transform="translate(-84.382 -50.039)" fill="#37474f"/>
    <path id="Path_3420" data-name="Path 3420" d="M341.786,14.531h0a1.883,1.883,0,0,1-1-2.5l2.874-6.872a1.883,1.883,0,0,1,2.5-1h0a1.883,1.883,0,0,1,1,2.5l-2.874,6.872A1.969,1.969,0,0,1,341.786,14.531Z" transform="translate(-283.989 -3.39)" fill="#eceff1"/>
    <path id="Path_3421" data-name="Path 3421" d="M339.108,11.909a2.4,2.4,0,0,1-.937-.19,2.5,2.5,0,0,1-1.351-3.3L339.7,1.528A2.5,2.5,0,0,1,343,.185a2.331,2.331,0,0,1,1.379,1.378,2.72,2.72,0,0,1-.015,1.925l-2.884,6.894A2.675,2.675,0,0,1,339.108,11.909ZM342,1.253a1.15,1.15,0,0,0-1.133.736l-2.882,6.893a1.258,1.258,0,0,0,.643,1.673l.026.011a1.335,1.335,0,0,0,1.693-.7L343.2,3.028a1.457,1.457,0,0,0,.008-1.021,1.089,1.089,0,0,0-.651-.651A1.587,1.587,0,0,0,342,1.253Z" transform="translate(-280.608 0)" fill="#37474f"/>
    <path id="Path_3422" data-name="Path 3422" d="M397.691,61.067h0a1.812,1.812,0,0,1,0-2.624l5.372-5.372a1.812,1.812,0,0,1,2.624,0h0a1.812,1.812,0,0,1,0,2.624l-5.247,5.247A1.859,1.859,0,0,1,397.691,61.067Z" transform="translate(-331.649 -44.304)" fill="#eceff1"/>
    <path id="Path_3423" data-name="Path 3423" d="M395.635,58.989a2.5,2.5,0,0,1-1.759-.731h0a2.434,2.434,0,0,1,0-3.507l5.372-5.372a2.48,2.48,0,1,1,3.507,3.507l-5.246,5.247a2.462,2.462,0,0,1-1.78.855ZM401,49.884a1.231,1.231,0,0,0-.87.38l-5.372,5.372a1.187,1.187,0,0,0,0,1.74h0a1.233,1.233,0,0,0,1.832-.09L401.871,52a1.25,1.25,0,0,0-.87-2.12Z" transform="translate(-328.275 -41.055)" fill="#37474f"/>
    <path id="Path_3424" data-name="Path 3424" d="M435.94,130.275h0a1.926,1.926,0,0,1,1-2.5l6.872-2.874a1.926,1.926,0,0,1,2.5,1h0a1.926,1.926,0,0,1-1,2.5l-6.872,2.874A1.791,1.791,0,0,1,435.94,130.275Z" transform="translate(-364.276 -105.267)" fill="#eceff1"/>
    <path id="Path_3425" data-name="Path 3425" d="M434.255,128.725a2.393,2.393,0,0,1-.877-.167,2.461,2.461,0,0,1-1.4-1.437,2.539,2.539,0,0,1,1.3-3.277l6.909-2.891a2.528,2.528,0,0,1,2.022,4.634l-6.909,2.891A2.336,2.336,0,0,1,434.255,128.725Zm6.939-6.714a1.547,1.547,0,0,0-.543.1l-6.849,2.865a1.3,1.3,0,0,0-.656,1.7,1.221,1.221,0,0,0,.69.711,1.142,1.142,0,0,0,.946-.053l6.909-2.891a1.3,1.3,0,0,0,.656-1.7A1.275,1.275,0,0,0,441.194,122.011Z" transform="translate(-360.895 -101.894)" fill="#37474f"/>
    <path id="Path_3426" data-name="Path 3426" d="M134.261,439.95h0a1.883,1.883,0,0,1,1,2.5l-2.874,6.872a1.883,1.883,0,0,1-2.5,1h0a1.883,1.883,0,0,1-1-2.5l2.874-6.872A1.969,1.969,0,0,1,134.261,439.95Z" transform="translate(-105.201 -371.088)" fill="#eceff1"/>
    <path id="Path_3427" data-name="Path 3427" d="M127.3,447.7a2.839,2.839,0,0,1-1-.184,2.331,2.331,0,0,1-1.379-1.378,2.727,2.727,0,0,1,.015-1.925l2.882-6.894a2.6,2.6,0,0,1,3.307-1.337,2.329,2.329,0,0,1,1.367,1.373,2.727,2.727,0,0,1-.015,1.925l-2.882,6.894A2.4,2.4,0,0,1,127.3,447.7Zm2.886-10.656a1.379,1.379,0,0,0-1.232.8l-2.856,6.834a1.468,1.468,0,0,0-.007,1.02,1.087,1.087,0,0,0,.65.652,1.264,1.264,0,0,0,1.694-.635l2.882-6.894a1.468,1.468,0,0,0,.007-1.02,1.087,1.087,0,0,0-.65-.652l-.026-.01A1.171,1.171,0,0,0,130.183,437.047Z" transform="translate(-101.83 -367.703)" fill="#37474f"/>
    <path id="Path_3428" data-name="Path 3428" d="M65.052,401.781h0a1.812,1.812,0,0,1,0,2.624l-5.372,5.372a1.812,1.812,0,0,1-2.624,0h0a1.812,1.812,0,0,1,0-2.624l5.247-5.247A1.859,1.859,0,0,1,65.052,401.781Z" transform="translate(-44.237 -338.541)" fill="#eceff1"/>
    <path id="Path_3429" data-name="Path 3429" d="M54.994,407.585a2.479,2.479,0,0,1-1.753-4.252l5.247-5.247a2.459,2.459,0,0,1,1.778-.855,2.539,2.539,0,0,1,1.853.73h0a2.433,2.433,0,0,1,0,3.506l-5.372,5.372A2.461,2.461,0,0,1,54.994,407.585Zm5.367-9.106h-.046a1.253,1.253,0,0,0-.91.452l-5.281,5.284a1.185,1.185,0,0,0,0,1.739,1.211,1.211,0,0,0,1.74,0l5.372-5.372a1.185,1.185,0,0,0,0-1.739h0A1.249,1.249,0,0,0,60.361,398.479Z" transform="translate(-40.864 -335.163)" fill="#37474f"/>
    <path id="Path_3430" data-name="Path 3430" d="M18.517,345.507h0a1.926,1.926,0,0,1-1,2.5l-6.872,2.874a1.926,1.926,0,0,1-2.5-1h0a1.926,1.926,0,0,1,1-2.5l6.872-2.874A1.791,1.791,0,0,1,18.517,345.507Z" transform="translate(-3.325 -290.513)" fill="#eceff1"/>
    <path id="Path_3431" data-name="Path 3431" d="M6.556,348.256a2.52,2.52,0,0,1-1.013-4.824l6.91-2.89a2.348,2.348,0,0,1,1.925-.079,2.473,2.473,0,0,1,1.4,1.434h0a2.539,2.539,0,0,1-1.3,3.277l-6.91,2.891A2.9,2.9,0,0,1,6.556,348.256Zm6.953-6.709a1.18,1.18,0,0,0-.536.13l-6.909,2.89a1.28,1.28,0,1,0,1.04,2.339l6.849-2.866a1.3,1.3,0,0,0,.655-1.7h0a1.214,1.214,0,0,0-.687-.711A1.118,1.118,0,0,0,13.509,341.547Z" transform="translate(0 -287.124)" fill="#37474f"/>
  </g>
</svg>
