<svg id="Group_35188" data-name="Group 35188" xmlns="http://www.w3.org/2000/svg" width="63" height="57" viewBox="0 0 63 57">
  <rect id="Rectangle_1883" data-name="Rectangle 1883" width="63" height="57" rx="7" fill="#ec7b7b"/>
  <path id="garbage_1_" data-name="garbage (1)" d="M72.8,7.125H57.935c-.015.183-.071-.793,1.006,15.355A1.633,1.633,0,0,0,60.566,24h9.606A1.633,1.633,0,0,0,71.8,22.48C72.875,6.318,72.818,7.3,72.8,7.125ZM62.434,21a.75.75,0,0,1-.812-.682l-.75-8.625a.75.75,0,0,1,1.494-.13l.75,8.625A.75.75,0,0,1,62.434,21Zm3.685-.747a.75.75,0,1,1-1.5,0V11.625a.75.75,0,1,1,1.5,0Zm3.747-8.56-.75,8.625a.75.75,0,0,1-1.494-.13l.75-8.625a.75.75,0,0,1,1.494.13Zm3.249-9.065H69.489c.008-.1.006-.025.006-1A1.631,1.631,0,0,0,67.865,0H62.873a1.631,1.631,0,0,0-1.629,1.629c0,.952,0,.9.006,1H57.623a1.631,1.631,0,0,0-1.629,1.629c0,1.34,0,1.276.005,1.371h18.74c.007-.1.005-.039.005-1.371A1.631,1.631,0,0,0,73.115,2.625ZM67.994,2.5a.129.129,0,0,1-.129.129H62.873a.129.129,0,0,1-.129-.129V1.629a.129.129,0,0,1,.129-.129h4.992a.129.129,0,0,1,.129.129Z" transform="translate(-33.994 17)" fill="#fff"/>
</svg>
