<svg xmlns="http://www.w3.org/2000/svg" width="48" height="48.188" viewBox="0 0 48 48.188">
  <g id="Group_21" data-name="Group 21" transform="translate(0 0.188)">
    <circle id="Oval_Copy_5" data-name="Oval Copy 5" cx="24" cy="24" r="24" transform="translate(0 -0.188)" fill="#039a7b" opacity="0.149"/>
    <g id="Oval_Copy_9" data-name="Oval Copy 9" transform="translate(0 0)" fill="none" stroke-dasharray="42 99">
      <path d="M24,0A24,24,0,1,1,0,24,24,24,0,0,1,24,0Z" stroke="none"/>
      <path d="M 23.99998474121094 -3.814697265625e-06 C 24.0193977355957 -3.814697265625e-06 24.03886032104492 1.9073486328125e-05 24.05826759338379 6.4849853515625e-05 C 26.50901222229004 0.005886077880859375 28.87400245666504 0.3792190551757812 31.09999847412109 1.067558288574219 C 31.86432647705078 1.303932189941406 32.61228561401367 1.577449798583984 33.34185409545898 1.886035919189453 C 34.08842468261719 2.201805114746094 34.81550598144531 2.554176330566406 35.52120971679688 2.941093444824219 C 39.80246734619141 5.288379669189453 43.29020690917969 8.903331756591797 45.47901153564453 13.28069686889648 C 45.70463562011719 13.73191452026367 45.91645812988281 14.19123458862305 46.11392593383789 14.65810394287109 C 46.36735916137695 15.25728988647461 46.59714126586914 15.86887359619141 46.80212020874023 16.49175643920898 C 47.57930755615234 18.85359954833984 47.99996566772461 21.37798118591309 47.99996566772461 23.99998474121094 C 47.99996566772461 23.99998474121094 47.99996566772461 23.99998474121094 47.99996566772461 23.99998474121094 C 47.99996566772461 24.00322151184082 47.99996566772461 24.00591087341309 47.99996185302734 24.00914573669434 C 47.99996185302734 24.0101261138916 47.99996185302734 24.01105690002441 47.99996185302734 24.01203536987305 C 47.99996185302734 24.01446151733398 47.99995803833008 24.0159854888916 47.99995803833008 24.01841354370117 C 47.99995803833008 24.01956939697266 47.99995422363281 24.0206298828125 47.99995422363281 24.02178573608398 C 47.99995422363281 24.02340316772461 47.99995040893555 24.02602386474609 47.99995040893555 24.02764129638672 C 47.99994659423828 24.02870941162109 47.99994659423828 24.03000831604004 47.99994277954102 24.03107643127441 C 47.99994277954102 24.03269386291504 47.99993896484375 24.03527069091797 47.99993515014648 24.03688812255859 C 47.99993515014648 24.03813552856445 47.99993133544922 24.03923797607422 47.99993133544922 24.04048347473145 C 47.99992752075195 24.04210090637207 47.99992370605469 24.04472732543945 47.99991989135742 24.04634475708008 C 47.99991989135742 24.04741287231445 47.99991607666016 24.04854011535645 47.99991607666016 24.04960823059082 C 47.99990844726562 24.05203437805176 47.99990463256836 24.05365180969238 47.99990081787109 24.05607795715332 C 47.99989700317383 24.05696868896484 47.99989700317383 24.05794906616211 47.99989318847656 24.05883979797363 C 47.9998779296875 24.0653076171875 47.99986267089844 24.0708065032959 47.99984359741211 24.07727432250977 C 47.99983978271484 24.07807540893555 47.99983978271484 24.07867622375488 47.99983596801758 24.07947731018066 C 47.99982833862305 24.0819034576416 47.99982070922852 24.08430290222168 47.99980926513672 24.08672904968262 C 47.99980926513672 24.08752822875977 47.99980545043945 24.08829498291016 47.99980163574219 24.08909606933594 C 47.99979400634766 24.09152030944824 47.99978637695312 24.09352684020996 47.99977493286133 24.09595108032227 C 47.99977111816406 24.0969295501709 47.99977111816406 24.09771537780762 47.9997673034668 24.09869384765625 C 47.99975967407227 24.10030937194824 47.9997444152832 24.10379219055176 47.99973678588867 24.10540771484375 C 47.99973297119141 24.10629844665527 47.99972915649414 24.10724449157715 47.99972534179688 24.10813331604004 C 47.99971771240234 24.10975074768066 47.99970245361328 24.11296272277832 47.99969482421875 24.11457824707031 C 47.99969100952148 24.11555671691895 47.99968719482422 24.11659049987793 47.99968338012695 24.11756896972656 C 47.99967193603516 24.11999320983887 47.99966049194336 24.12194061279297 47.99964904785156 24.12436485290527 C 47.9996452331543 24.12516593933105 47.99964141845703 24.12595367431641 47.99963760375977 24.12675285339355 C 47.99961853027344 24.12998580932617 47.99961090087891 24.13177299499512 47.99959182739258 24.1350040435791 C 47.99959182739258 24.1352710723877 47.99958801269531 24.13567733764648 47.99958801269531 24.13594436645508 C 47.99955368041992 24.14240837097168 47.99951934814453 24.14813613891602 47.99947738647461 24.15459823608398 C 47.99946975708008 24.15557670593262 47.99946594238281 24.15655708312988 47.99945831298828 24.15753555297852 C 47.99944305419922 24.15995979309082 47.99943161010742 24.16138648986816 47.99941635131836 24.16381072998047 C 47.99940872192383 24.16478729248047 47.9994010925293 24.16595840454102 47.99939727783203 24.16693687438965 C 47.99938583374023 24.16855049133301 47.99936294555664 24.17159843444824 47.99935150146484 24.17321395874023 C 47.99934387207031 24.17419242858887 47.99933624267578 24.17527961730957 47.99933242797852 24.1762580871582 C 47.99931716918945 24.17787170410156 47.99929809570312 24.18094444274902 47.99928283691406 24.18255996704102 C 47.99927520751953 24.18353652954102 47.999267578125 24.18461990356445 47.99925994873047 24.18559646606445 C 47.99924850463867 24.18721199035645 47.99922561645508 24.19021224975586 47.99921417236328 24.19182777404785 C 47.99920654296875 24.19289398193359 47.99919891357422 24.19388198852539 47.99918746948242 24.19495010375977 C 47.99916839599609 24.19737243652344 47.99914932250977 24.19995307922363 47.99913024902344 24.2023754119873 C 47.99912261962891 24.20290756225586 47.99911880493164 24.20339202880859 47.99911499023438 24.20392608642578 C 47.99906158447266 24.21038436889648 47.99900817871094 24.21640014648438 47.99895095825195 24.22285842895508 C 47.99894714355469 24.22330284118652 47.99894332885742 24.22357177734375 47.99893951416016 24.2240161895752 C 47.9989128112793 24.22724533081055 47.99889755249023 24.22860145568848 47.99886703491211 24.23183059692383 C 47.99885940551758 24.23280715942383 47.99884796142578 24.23383903503418 47.99884033203125 24.23481750488281 C 47.99881744384766 24.23723793029785 47.99880218505859 24.23884963989258 47.99877548217773 24.24127197265625 C 47.9987678527832 24.24224853515625 47.99876022338867 24.24311447143555 47.99874877929688 24.24409103393555 C 47.99873352050781 24.24570465087891 47.99869918823242 24.24885940551758 47.99868392944336 24.25047302246094 C 47.99867248535156 24.25144958496094 47.99866104125977 24.25254821777344 47.99865341186523 24.25352478027344 C 47.99863433837891 24.25514030456543 47.99860000610352 24.25849151611328 47.99858474731445 24.26010513305664 C 47.99857330322266 24.26099395751953 47.99856567382812 24.26179695129395 47.99855804443359 24.26268577575684 C 47.99853134155273 24.26510620117188 47.99850463867188 24.26746559143066 47.99847793579102 24.2698860168457 C 47.99847030639648 24.2705078125 47.99846267700195 24.27130126953125 47.99845504760742 24.27192306518555 C 47.99838256835938 24.27837753295898 47.99831390380859 24.28432655334473 47.99823760986328 24.29077911376953 C 47.99823760986328 24.29095649719238 47.99823760986328 24.29098320007324 47.99823379516602 24.29116058349609 C 47.99819564819336 24.29438781738281 47.9981689453125 24.2966136932373 47.99813079833984 24.29984092712402 C 47.99811935424805 24.30081748962402 47.99810791015625 24.30166053771973 47.99809646606445 24.30263710021973 C 47.99807357788086 24.30425071716309 47.99803924560547 24.30725860595703 47.99801635742188 24.30887031555176 C 47.99800109863281 24.31011390686035 47.99798583984375 24.31128311157227 47.99797058105469 24.31252670288086 C 47.99795150756836 24.31413841247559 47.99791717529297 24.31657218933105 47.99789810180664 24.31818580627441 C 47.99788284301758 24.31933975219727 47.99786758422852 24.32044792175293 47.99785232543945 24.32160186767578 C 47.99783325195312 24.32321357727051 47.99779510498047 24.32592010498047 47.99777603149414 24.3275318145752 C 47.99776077270508 24.32868576049805 47.99774551391602 24.32970237731934 47.99773025512695 24.33085441589355 C 47.99770736694336 24.33246803283691 47.99766159057617 24.33582496643066 47.99763870239258 24.33743858337402 C 47.99763107299805 24.33823776245117 47.99761962890625 24.33905410766602 47.99760818481445 24.33985328674316 C 47.99757385253906 24.34227180480957 47.99753189086914 24.34511947631836 47.99749755859375 24.34753799438477 C 47.99748992919922 24.34807205200195 47.99748229980469 24.34863662719727 47.99747467041016 24.34916877746582 C 47.99738311767578 24.35561943054199 47.99729919433594 24.36144065856934 47.99720001220703 24.36789131164551 C 47.9971923828125 24.36842346191406 47.99718475341797 24.36902618408203 47.99717712402344 24.36955833435059 C 47.99713897705078 24.37197685241699 47.99709701538086 24.37478256225586 47.9970588684082 24.37720108032227 C 47.99704742431641 24.37799835205078 47.99703598022461 24.37875938415527 47.99702453613281 24.37955665588379 C 47.99699783325195 24.38116836547852 47.99694442749023 24.38456916809082 47.99692153930664 24.38618087768555 C 47.99690246582031 24.38724517822266 47.99688720703125 24.38827896118164 47.99686813354492 24.38934326171875 C 47.99684524536133 24.39095497131348 47.99679183959961 24.39418411254883 47.99676513671875 24.39579582214355 C 47.99675369262695 24.3965950012207 47.99673843383789 24.3975887298584 47.99672317504883 24.39838600158691 C 47.99668502807617 24.40080451965332 47.99664688110352 24.40304946899414 47.99660873413086 24.40546607971191 C 47.99659729003906 24.40617561340332 47.99658584594727 24.4068660736084 47.99657440185547 24.4075756072998 C 47.99652099609375 24.41079902648926 47.99648666381836 24.41269874572754 47.99643325805664 24.41592216491699 C 47.99642944335938 24.41618728637695 47.99642181396484 24.41650772094727 47.99641799926758 24.41677284240723 C 47.99625396728516 24.42644309997559 47.99609375 24.43545341491699 47.99591827392578 24.44511985778809 C 47.99590682983398 24.44573974609375 47.99589538574219 24.44633865356445 47.99588394165039 24.44696044921875 C 47.99584197998047 24.44937705993652 47.99579620361328 24.45185470581055 47.99575042724609 24.45427131652832 C 47.99573516845703 24.45515823364258 47.99571990966797 24.4559497833252 47.99570465087891 24.45683670043945 C 47.99567413330078 24.45844841003418 47.99561309814453 24.46167755126953 47.99558258056641 24.46328926086426 C 47.99556350708008 24.46435356140137 47.99554061889648 24.46544647216797 47.99552154541016 24.46650886535645 C 47.99549102783203 24.46812057495117 47.99542617797852 24.4714527130127 47.99539566040039 24.47306251525879 C 47.99538040161133 24.4738597869873 47.99536514282227 24.4745922088623 47.9953498840332 24.47539138793945 C 47.99530410766602 24.47780609130859 47.99525451660156 24.48030662536621 47.99520492553711 24.48272132873535 C 47.99519348144531 24.48343086242676 47.99517822265625 24.48409080505371 47.99516677856445 24.48480033874512 C 47.99497222900391 24.49446105957031 47.99478912353516 24.50352478027344 47.99458694458008 24.51318359375 C 47.99458312988281 24.51327133178711 47.99458312988281 24.51333808898926 47.99457931518555 24.51342582702637 C 47.99451446533203 24.51664543151855 47.99446105957031 24.5190601348877 47.99439239501953 24.52227973937988 C 47.99438095092773 24.52289962768555 47.99436950683594 24.52339553833008 47.99435806274414 24.52401733398438 C 47.99428939819336 24.52723503112793 47.9942626953125 24.52846527099609 47.99419021606445 24.53168487548828 C 47.99417877197266 24.53230476379395 47.99416351318359 24.53294563293457 47.99414825439453 24.53356552124023 C 47.99407958984375 24.53678512573242 47.99405670166016 24.537841796875 47.99398422241211 24.54106140136719 C 47.99397277832031 24.54168128967285 47.99395751953125 24.54234504699707 47.99394226074219 24.54296493530273 C 47.99387359619141 24.54618453979492 47.99383163452148 24.54802322387695 47.99375915527344 24.55124282836914 C 47.99375152587891 24.55159568786621 47.99374771118164 24.55177879333496 47.99373626708984 24.55213165283203 C 47.9936637878418 24.55535125732422 47.99360275268555 24.55805778503418 47.9935302734375 24.56127548217773 C 47.99352645874023 24.56136322021484 47.99352645874023 24.56149101257324 47.99352264404297 24.56157875061035 C 47.99337387084961 24.56801605224609 47.99322891235352 24.57429122924805 47.99307632446289 24.58072662353516 C 47.99307250976562 24.58090209960938 47.99306488037109 24.58113288879395 47.99306106567383 24.5813102722168 C 47.99298477172852 24.58452796936035 47.99293518066406 24.58671188354492 47.99285507202148 24.58992958068848 C 47.99283981323242 24.59054756164551 47.99282455444336 24.59113883972168 47.99281311035156 24.59175872802734 C 47.99275207519531 24.59417152404785 47.99269104003906 24.5966625213623 47.99263381958008 24.59907531738281 C 47.99261093139648 24.59996223449707 47.99259567260742 24.60065650939941 47.99257278442383 24.60154151916504 C 47.99251174926758 24.60395431518555 47.99245834350586 24.60624885559082 47.99239730834961 24.6086597442627 C 47.99237823486328 24.6093692779541 47.99236297607422 24.60999298095703 47.99234390258789 24.6107006072998 C 47.99228668212891 24.61311340332031 47.99222564697266 24.61550903320312 47.99216461181641 24.61792182922363 C 47.99214553833008 24.61871719360352 47.99212646484375 24.61944580078125 47.99210357666016 24.62024307250977 C 47.99202346801758 24.62345886230469 47.99197769165039 24.62525939941406 47.99189376831055 24.62847518920898 C 47.99188995361328 24.62874031066895 47.99188232421875 24.62897491455078 47.99187469482422 24.62924003601074 C 47.99162673950195 24.63888740539551 47.99139022827148 24.64796829223633 47.99112701416016 24.65761375427246 C 47.99111557006836 24.65814399719238 47.9911003112793 24.65865135192871 47.99108505249023 24.65918159484863 C 47.99100112915039 24.66239738464355 47.99096298217773 24.66371154785156 47.99087524414062 24.66692733764648 C 47.99085998535156 24.66754531860352 47.99084091186523 24.66825103759766 47.99082183837891 24.66887092590332 C 47.9907341003418 24.67208480834961 47.99070739746094 24.67308616638184 47.99061965942383 24.67630195617676 C 47.9906005859375 24.67700958251953 47.99058532714844 24.67753219604492 47.99056625366211 24.6782398223877 C 47.99047470092773 24.68145370483398 47.99043273925781 24.68297386169434 47.9903450012207 24.68618774414062 C 47.99032974243164 24.68663024902344 47.99031829833984 24.68701171875 47.99030685424805 24.68745422363281 C 47.99021911621094 24.6906681060791 47.99017333984375 24.69228744506836 47.99008178710938 24.69550132751465 C 47.99006652832031 24.69594383239746 47.99005126953125 24.69655609130859 47.99003601074219 24.69699859619141 C 47.98976135253906 24.70664024353027 47.98949813842773 24.71575164794922 47.98921203613281 24.72538948059082 C 47.98920440673828 24.72565460205078 47.98920059204102 24.72573852539062 47.98919296264648 24.72600364685059 C 47.98909759521484 24.72921752929688 47.98903656005859 24.73128128051758 47.98893737792969 24.73449325561523 C 47.98892211914062 24.7351131439209 47.98889923095703 24.73580551147461 47.9888801574707 24.73642349243164 C 47.98880767822266 24.73883247375488 47.98872375488281 24.74165534973145 47.98865127563477 24.74406433105469 C 47.9886360168457 24.7445068359375 47.98861694335938 24.74516296386719 47.98860168457031 24.74560546875 C 47.98850631713867 24.74881744384766 47.98846054077148 24.75030517578125 47.98836135864258 24.75351715087891 C 47.98834228515625 24.75404739379883 47.98832702636719 24.75460243225098 47.98831176757812 24.7551326751709 C 47.98821258544922 24.75834465026855 47.9881591796875 24.75997352600098 47.98805999755859 24.76318550109863 C 47.98804473876953 24.76362609863281 47.98803329467773 24.76402473449707 47.98801803588867 24.76446723937988 C 47.98791885375977 24.76767730712891 47.98785781860352 24.76960372924805 47.98775863647461 24.77281379699707 C 47.98774719238281 24.77316856384277 47.98773193359375 24.77356910705566 47.98772048950195 24.77392196655273 C 47.9873161315918 24.78676795959473 47.98691940307617 24.79901123046875 47.98649215698242 24.81185150146484 C 47.98648071289062 24.81220436096191 47.98647308349609 24.81237983703613 47.9864616394043 24.8127326965332 C 47.98635482788086 24.81594276428223 47.98627471923828 24.81830406188965 47.98616790771484 24.82151412963867 C 47.98616027832031 24.82169151306152 47.98615264892578 24.82200813293457 47.98614501953125 24.82218551635742 C 47.98603820800781 24.82539558410645 47.98595809936523 24.82771682739258 47.98584747314453 24.8309268951416 C 47.98583602905273 24.83127975463867 47.98583221435547 24.83143424987793 47.98582077026367 24.831787109375 C 47.98516464233398 24.85104370117188 47.98451232910156 24.86956977844238 47.98381042480469 24.88881492614746 C 47.98380279541016 24.88907814025879 47.98378753662109 24.88946914672852 47.9837760925293 24.88973426818848 C 47.98366165161133 24.89294052124023 47.98357391357422 24.89528274536133 47.98345565795898 24.89849090576172 C 47.98345184326172 24.89866638183594 47.98344039916992 24.89891815185547 47.98343276977539 24.89909362792969 C 47.98260879516602 24.92154312133789 47.98176193237305 24.94366264343262 47.98087310791016 24.96609878540039 C 47.98086929321289 24.9661865234375 47.98087310791016 24.96617126464844 47.98086929321289 24.96625900268555 C 47.97985076904297 24.99189758300781 47.97880935668945 25.01726722717285 47.97771453857422 25.04288482666016 C 47.97770690917969 25.04306030273438 47.97770690917969 25.04302215576172 47.97769927978516 25.04319763183594 C 47.97591781616211 25.0848274230957 47.97404861450195 25.12605476379395 47.9720573425293 25.16762924194336 C 47.97204971313477 25.16780471801758 47.97203826904297 25.16802406311035 47.97203063964844 25.16819953918457 C 47.97187805175781 25.1713981628418 47.97174453735352 25.17417907714844 47.97158813476562 25.17737770080566 C 47.97158432006836 25.17746543884277 47.97158432006836 25.17747116088867 47.97158050537109 25.17755889892578 C 47.97065353393555 25.19674491882324 47.96971893310547 25.21559715270996 47.96875 25.23477172851562 C 47.9687385559082 25.23494720458984 47.96872711181641 25.23521041870117 47.96871566772461 25.23538780212402 C 47.96855545043945 25.23858261108398 47.96841430664062 25.24137878417969 47.9682502746582 25.24457550048828 C 47.9682502746582 25.24457550048828 47.96824645996094 25.24463844299316 47.96824645996094 25.24463844299316 C 47.96710205078125 25.26700592041016 47.96593475341797 25.2892894744873 47.96472930908203 25.31164169311523 C 47.96472930908203 25.31164169311523 47.96472549438477 25.31174087524414 47.96472549438477 25.31174087524414 C 47.94683837890625 25.64382743835449 47.92220687866211 25.97401237487793 47.89095306396484 26.30237579345703 C 47.89094543457031 26.30246162414551 47.89095306396484 26.3023853302002 47.89094543457031 26.30247116088867 C 47.88914108276367 26.3214168548584 47.88732528686523 26.34025192260742 47.88547897338867 26.35918426513672 C 47.88547134399414 26.3592700958252 47.88547515869141 26.35923194885254 47.88546752929688 26.35931968688965 C 47.88515853881836 26.36247444152832 47.88486862182617 26.36542320251465 47.88455963134766 26.36857795715332 C 47.88455200195312 26.3686637878418 47.88454437255859 26.36874961853027 47.88453674316406 26.36883544921875 C 47.88422775268555 26.37199020385742 47.88396835327148 26.3746452331543 47.8836555480957 26.37779998779297 C 47.88364028930664 26.37797355651855 47.88361740112305 26.37820434570312 47.88359832763672 26.37837791442871 C 47.88204956054688 26.39414978027344 47.88051986694336 26.4095287322998 47.87893676757812 26.42529296875 C 47.87892150878906 26.42546653747559 47.87890625 26.42558860778809 47.87889099121094 26.42576217651367 C 47.87857437133789 26.42891502380371 47.87832260131836 26.43142127990723 47.87800598144531 26.43457221984863 C 47.87797927856445 26.43483352661133 47.87794876098633 26.43511009216309 47.87792587280273 26.43536949157715 C 47.87760543823242 26.43852233886719 47.87739562988281 26.44061470031738 47.8770751953125 26.44376754760742 C 47.87704086303711 26.44411468505859 47.87700653076172 26.44445610046387 47.87697219848633 26.44480323791504 C 47.87665176391602 26.44795417785645 47.87646484375 26.44981384277344 47.87614440917969 26.45296478271484 C 47.8761100769043 26.45331192016602 47.87605285644531 26.45388221740723 47.87601470947266 26.4542293548584 C 47.87473678588867 26.46683502197266 47.87351989746094 26.47872161865234 47.87221908569336 26.49132347106934 C 47.87218475341797 26.49166870117188 47.87215423583984 26.4919605255127 47.87211608886719 26.49230575561523 C 47.87179183959961 26.49545669555664 47.87157440185547 26.49756240844727 47.87125015258789 26.50071144104004 C 47.87121200561523 26.50105857849121 47.87118911743164 26.50128746032715 47.87115478515625 26.50163459777832 C 47.87082672119141 26.50478363037109 47.8706169128418 26.50680160522461 47.87029266357422 26.50995063781738 C 47.87025451660156 26.51029777526855 47.87021636962891 26.51068305969238 47.87017822265625 26.51103019714355 C 47.86985015869141 26.51417922973633 47.86962127685547 26.51639175415039 47.86929321289062 26.51954078674316 C 47.8692741394043 26.51971435546875 47.86923980712891 26.52005577087402 47.86922073364258 26.52022933959961 C 47.86790466308594 26.5328254699707 47.86661148071289 26.54512977600098 47.86528015136719 26.55772018432617 C 47.86526870727539 26.55780792236328 47.86526489257812 26.55783462524414 47.86525726318359 26.55792045593262 C 47.86492538452148 26.56106948852539 47.86463928222656 26.5637321472168 47.86430740356445 26.56687927246094 C 47.86427688598633 26.56714057922363 47.86423492431641 26.56755828857422 47.86420822143555 26.56781768798828 C 47.86387252807617 26.57096481323242 47.86367034912109 26.57284736633301 47.86333465576172 26.57599449157715 C 47.86328887939453 26.5764274597168 47.86324310302734 26.57686424255371 47.86319732666016 26.57729721069336 C 47.86286163330078 26.5804443359375 47.8626823425293 26.58211517333984 47.86234283447266 26.58526039123535 C 47.86228942871094 26.58578109741211 47.86225509643555 26.58610153198242 47.86219787597656 26.58662033081055 C 47.86186218261719 26.58976745605469 47.86160278320312 26.59219932556152 47.86126327514648 26.59534454345703 C 47.86125183105469 26.59543228149414 47.86124420166016 26.59552001953125 47.86123275756836 26.59560585021973 C 47.8602180480957 26.60504531860352 47.85920715332031 26.61439895629883 47.85818099975586 26.62383460998535 C 47.85818099975586 26.62383460998535 47.85817337036133 26.62390899658203 47.85817337036133 26.62390899658203 C 47.85783004760742 26.62705421447754 47.85751724243164 26.62994194030762 47.85717391967773 26.63308525085449 C 47.85715484619141 26.63325881958008 47.85712051391602 26.63356971740723 47.85710144042969 26.63374328613281 C 47.85675811767578 26.63688659667969 47.85657501220703 26.63855743408203 47.85623168945312 26.64170074462891 C 47.85615539550781 26.64239311218262 47.8560676574707 26.64319610595703 47.85599136352539 26.64388847351074 C 47.85564804077148 26.64703178405762 47.85553741455078 26.64805603027344 47.85519027709961 26.65119934082031 C 47.85512542724609 26.65180397033691 47.85507965087891 26.65219497680664 47.85501480102539 26.65280151367188 C 47.85466766357422 26.65594482421875 47.85446166992188 26.6578426361084 47.8541145324707 26.66098594665527 C 47.85408401489258 26.66124534606934 47.85404968261719 26.66156959533691 47.85401916503906 26.66182899475098 C 47.85367202758789 26.66497421264648 47.8533935546875 26.66751289367676 47.85304260253906 26.67065620422363 C 47.85302352905273 26.67082977294922 47.85301208496094 26.67093467712402 47.85299301147461 26.67110824584961 C 47.85195159912109 26.68053817749023 47.85092926025391 26.68971633911133 47.84987258911133 26.69914245605469 C 47.849853515625 26.69931602478027 47.84983062744141 26.69951438903809 47.84981155395508 26.69968795776367 C 47.84946060180664 26.70282936096191 47.84922790527344 26.70491600036621 47.84887313842773 26.70805740356445 C 47.84881591796875 26.70857620239258 47.84874725341797 26.70916938781738 47.84869003295898 26.70968818664551 C 47.84833908081055 26.71282958984375 47.84822082519531 26.71387672424316 47.84786605834961 26.71701812744141 C 47.8477897644043 26.71770858764648 47.84770584106445 26.71842765808105 47.84762954711914 26.71912002563477 C 47.84727478027344 26.72226142883301 47.84713745117188 26.72347640991211 47.84678268432617 26.72661781311035 C 47.84672546386719 26.72713661193848 47.8466796875 26.72753715515137 47.84661865234375 26.72805595397949 C 47.84635162353516 26.73041152954102 47.84601974487305 26.73334312438965 47.84575271606445 26.73569869995117 C 47.84568405151367 26.73630332946777 47.84562301635742 26.73683547973633 47.84555435180664 26.73744010925293 C 47.84519958496094 26.74057960510254 47.84494781494141 26.7427864074707 47.84458923339844 26.74592590332031 C 47.84457015991211 26.7460994720459 47.84454727172852 26.74630355834961 47.84452819824219 26.7464771270752 C 47.84416961669922 26.7496166229248 47.84385299682617 26.75240325927734 47.8434944152832 26.75554275512695 C 47.84342575073242 26.75614738464355 47.84334182739258 26.75687026977539 47.8432731628418 26.75747489929199 C 47.84300231933594 26.75983047485352 47.84272766113281 26.76225280761719 47.84245681762695 26.76460838317871 C 47.84235763549805 26.76547241210938 47.84224319458008 26.76645851135254 47.84214401245117 26.7673225402832 C 47.84196472167969 26.76889228820801 47.84162521362305 26.7718334197998 47.84144592285156 26.77340316772461 C 47.84132766723633 26.77443885803223 47.84119415283203 26.77558708190918 47.8410758972168 26.7766227722168 C 47.84089279174805 26.7781925201416 47.84056854248047 26.78101921081543 47.84038543701172 26.78258895874023 C 47.84026718139648 26.78362464904785 47.84014511108398 26.78467559814453 47.84002685546875 26.78571128845215 C 47.83984375 26.78728103637695 47.83954620361328 26.78985214233398 47.83936309814453 26.79142189025879 C 47.8392333984375 26.79254341125488 47.83910751342773 26.79363059997559 47.8389778137207 26.79475212097168 C 47.83879852294922 26.79632186889648 47.83847045898438 26.79914665222168 47.83828735351562 26.80071640014648 C 47.83816528320312 26.8017520904541 47.83805084228516 26.80276107788086 47.83792877197266 26.80379676818848 C 47.83765411376953 26.80615043640137 47.83747482299805 26.80770111083984 47.83720016479492 26.81005477905273 C 47.83709716796875 26.81091690063477 47.83699035644531 26.81184005737305 47.83689117431641 26.81270408630371 C 47.83652496337891 26.81584167480469 47.83621597290039 26.81847763061523 47.83584976196289 26.82161521911621 C 47.83579635620117 26.82204627990723 47.83574295043945 26.82251167297363 47.835693359375 26.82294464111328 C 47.83541870117188 26.82529640197754 47.83507919311523 26.82817649841309 47.83480453491211 26.83053016662598 C 47.83468246459961 26.83156585693359 47.83455276489258 26.8326587677002 47.83443069458008 26.83369445800781 C 47.83424758911133 26.83526229858398 47.83395004272461 26.83778190612793 47.83376312255859 26.83935165405273 C 47.83362197875977 26.8405590057373 47.83348083496094 26.84175872802734 47.83333969116211 26.84296798706055 C 47.83315277099609 26.84453582763672 47.83290863037109 26.84661293029785 47.83272171020508 26.84818077087402 C 47.83255767822266 26.84956169128418 47.8323974609375 26.85092735290527 47.83223342895508 26.85230827331543 C 47.83204650878906 26.8538761138916 47.83185195922852 26.85552978515625 47.8316650390625 26.85709762573242 C 47.83151245117188 26.8583927154541 47.83136367797852 26.85965538024902 47.83120727539062 26.8609504699707 C 47.83102416992188 26.86251831054688 47.83077621459961 26.86457443237305 47.83059310913086 26.86614227294922 C 47.83043670654297 26.86743545532227 47.83027648925781 26.86879348754883 47.83012008666992 26.87008666992188 C 47.82993316650391 26.87165451049805 47.82963562011719 26.8741626739502 47.82944869995117 26.87573051452637 C 47.8293342590332 26.87667846679688 47.82920837402344 26.87772750854492 47.82909774780273 26.87867736816406 C 47.82881546020508 26.88102912902832 47.8286018371582 26.88282012939453 47.82831954956055 26.88516998291016 C 47.8281135559082 26.88689613342285 47.82790756225586 26.88859367370605 47.82770156860352 26.89031791687012 C 47.82741928100586 26.89266967773438 47.82725143432617 26.89406204223633 47.82696914672852 26.89641380310059 C 47.82680511474609 26.89779281616211 47.82661819458008 26.89934539794922 47.82645034790039 26.90072441101074 C 47.82635498046875 26.90150833129883 47.8260383605957 26.90415191650391 47.82594299316406 26.90493583679199 C 47.82575607299805 26.90648651123047 47.82555770874023 26.90813827514648 47.82536697387695 26.90969085693359 C 47.82518005371094 26.91125679016113 47.82503128051758 26.91247367858887 47.82484436035156 26.91404151916504 C 47.82466506958008 26.91550636291504 47.82446670532227 26.9171314239502 47.82429122924805 26.91859817504883 C 47.82410049438477 26.92016410827637 47.82398986816406 26.92106437683105 47.82380294799805 26.92263031005859 C 47.82361221313477 26.9241828918457 47.82341003417969 26.92583847045898 47.82322311401367 26.92739105224609 C 47.82303237915039 26.92895698547363 47.82289886474609 26.9300422668457 47.82270812988281 26.93160820007324 C 47.8225212097168 26.93316078186035 47.82231521606445 26.93484115600586 47.82212829589844 26.93639373779297 C 47.82202911376953 26.93717575073242 47.82177352905273 26.93927383422852 47.82167816162109 26.94005584716797 C 47.82146835327148 26.94178009033203 47.82126998901367 26.94340324401855 47.82106018066406 26.94512748718262 C 47.82077026367188 26.94747734069824 47.82073593139648 26.94775772094727 47.82044982910156 26.95010757446289 C 47.8203010559082 26.95131301879883 47.82015228271484 26.95253944396973 47.82000350952148 26.95374488830566 C 47.81961822509766 26.95687866210938 47.81933212280273 26.95921516418457 47.81894683837891 26.96234703063965 C 47.81876754760742 26.96381187438965 47.81856155395508 26.9654598236084 47.81838226318359 26.9669246673584 C 47.81828689575195 26.96770858764648 47.8179817199707 26.97015762329102 47.81788635253906 26.9709415435791 C 47.81767272949219 26.97266387939453 47.81744384765625 26.97453880310059 47.81723022460938 26.97626113891602 C 47.81713104248047 26.9770450592041 47.81691360473633 26.97880935668945 47.81681823730469 26.97959136962891 C 47.81658172607422 26.98148727416992 47.81636810302734 26.98320770263672 47.81613540649414 26.9851016998291 C 47.81594085693359 26.98666763305664 47.81592178344727 26.98681831359863 47.81572723388672 26.98838424682617 C 47.81550216674805 26.99019241333008 47.81528091430664 26.99196624755859 47.81505584716797 26.99377632141113 C 47.81486129760742 26.99534034729004 47.81485366821289 26.99541473388672 47.81465530395508 26.99698066711426 C 47.81442260742188 26.99887657165527 47.81418228149414 27.00080299377441 47.81394577026367 27.0026969909668 C 47.81384658813477 27.00347900390625 47.8137092590332 27.00456619262695 47.81361389160156 27.00534820556641 C 47.8133544921875 27.00741577148438 47.81310272216797 27.00943565368652 47.81284332275391 27.01150321960449 C 47.81284332275391 27.01150321960449 47.81265640258789 27.01298522949219 47.81265640258789 27.01298522949219 C 47.81137466430664 27.02323341369629 47.81006622314453 27.03361511230469 47.80876922607422 27.04385948181152 C 47.80876922607422 27.04385948181152 47.8086051940918 27.045166015625 47.8086051940918 27.045166015625 C 47.80828857421875 27.04766273498535 47.80797958374023 27.05010986328125 47.80766296386719 27.0526065826416 C 47.80756378173828 27.05338859558105 47.80766296386719 27.0526065826416 47.80756378173828 27.05338859558105 C 47.80725479125977 27.05579948425293 47.80693817138672 27.05830001831055 47.80663299560547 27.06070899963379 C 47.80663299560547 27.06070899963379 47.80644989013672 27.06212615966797 47.80644989013672 27.06212615966797 C 47.80615615844727 27.06444931030273 47.80585098266602 27.06684494018555 47.8055534362793 27.06916809082031 C 47.80545425415039 27.06995010375977 47.80548477172852 27.06970596313477 47.80538558959961 27.07048797607422 C 47.80507659912109 27.07289695739746 47.80476379394531 27.07534027099609 47.80445861816406 27.07774925231934 C 47.80445861816406 27.07774925231934 47.80435943603516 27.07851409912109 47.80435943603516 27.07851409912109 C 47.80262756347656 27.0920238494873 47.80089950561523 27.1054515838623 47.79914474487305 27.11895370483398 C 47.79914474487305 27.11895370483398 47.79909896850586 27.11931610107422 47.79909896850586 27.11931610107422 C 47.79876327514648 27.12189674377441 47.79845428466797 27.1242790222168 47.79811859130859 27.12685966491699 C 47.79811859130859 27.12685966491699 47.79798126220703 27.1279125213623 47.79798126220703 27.1279125213623 C 47.79765701293945 27.13040542602539 47.79730987548828 27.133056640625 47.7969856262207 27.13554954528809 C 47.7969856262207 27.13554954528809 47.79693222045898 27.13596534729004 47.79693222045898 27.13596534729004 C 47.79658508300781 27.13862991333008 47.79624938964844 27.14120101928711 47.7958984375 27.14386749267578 C 47.7958984375 27.14386749267578 47.79585266113281 27.14422035217285 47.79585266113281 27.14422035217285 C 47.79370498657227 27.16064071655273 47.79155349731445 27.17695236206055 47.78937149047852 27.19336318969727 C 47.78937149047852 27.19336318969727 47.78934478759766 27.19354629516602 47.78934478759766 27.19354629516602 C 47.74109268188477 27.55646133422852 47.68474197387695 27.91674041748047 47.62045288085938 28.27434539794922 L 44.66778564453125 27.74355506896973 C 44.88820648193359 26.51741409301758 44.99996566772461 25.25789451599121 44.99996566772461 23.99998474121094 C 44.99996566772461 21.1636848449707 44.44514465332031 18.41381454467773 43.35091400146484 15.82676315307617 C 42.29337310791016 13.32645416259766 40.77878570556641 11.08031463623047 38.84921264648438 9.150745391845703 C 36.91964340209961 7.221176147460938 34.67350387573242 5.706584930419922 32.17320251464844 4.649044036865234 C 29.58615493774414 3.554813385009766 26.83628463745117 2.999996185302734 23.99998474121094 2.999996185302734 L 23.99998474121094 -3.814697265625e-06 C 23.99998474121094 -3.814697265625e-06 23.99998474121094 -3.814697265625e-06 23.99998474121094 -3.814697265625e-06 Z M 23.99998474121094 -3.814697265625e-06 L 23.99998474121094 2.999996185302734 C 21.09719467163086 2.999996185302734 18.28790473937988 3.580276489257812 15.65015411376953 4.724704742431641 L 14.45609283447266 1.972576141357422 C 14.47842025756836 1.962890625 14.50117492675781 1.953056335449219 14.52353668212891 1.943435668945312 C 14.52353668212891 1.943435668945312 14.52374649047852 1.943347930908203 14.52374649047852 1.943347930908203 C 14.52653884887695 1.942146301269531 14.52886962890625 1.941143035888672 14.53166580200195 1.93994140625 C 14.53388214111328 1.93896484375 14.53670501708984 1.937778472900391 14.53897857666016 1.936801910400391 C 14.54161834716797 1.935665130615234 14.54484939575195 1.934280395507812 14.54747772216797 1.933151245117188 C 14.5503044128418 1.931957244873047 14.552734375 1.930900573730469 14.55554580688477 1.929695129394531 C 14.55834579467773 1.928485870361328 14.56108474731445 1.927318572998047 14.56389999389648 1.926116943359375 C 14.56672668457031 1.924915313720703 14.56888961791992 1.923976898193359 14.57170486450195 1.922779083251953 C 14.57469940185547 1.921493530273438 14.57706832885742 1.920486450195312 14.58006286621094 1.919204711914062 C 14.583251953125 1.917854309082031 14.5853385925293 1.916954040527344 14.58851623535156 1.915596008300781 C 14.59167861938477 1.91424560546875 14.59408187866211 1.913227081298828 14.59725952148438 1.911869049072266 C 14.60042953491211 1.910514831542969 14.60210037231445 1.909809112548828 14.60527801513672 1.908451080322266 C 14.60793304443359 1.907321929931641 14.61095428466797 1.906032562255859 14.61360931396484 1.9049072265625 C 14.61626434326172 1.903778076171875 14.61917877197266 1.902538299560547 14.62183380126953 1.901409149169922 C 14.62466812133789 1.90020751953125 14.62753677368164 1.898990631103516 14.63037109375 1.897785186767578 C 14.63320922851562 1.896579742431641 14.63578796386719 1.895492553710938 14.63861846923828 1.894283294677734 C 14.64162826538086 1.89300537109375 14.64412689208984 1.891941070556641 14.64715194702148 1.890670776367188 C 14.65016937255859 1.889396667480469 14.65237426757812 1.888462066650391 14.65539169311523 1.887180328369141 C 14.65857696533203 1.885829925537109 14.66086578369141 1.884860992431641 14.6640625 1.883514404296875 C 14.66725158691406 1.882160186767578 14.66919708251953 1.881343841552734 14.67240524291992 1.879989624023438 C 14.67559814453125 1.878643035888672 14.67778396606445 1.877712249755859 14.68099212646484 1.876365661621094 C 14.68418884277344 1.875019073486328 14.68631362915039 1.874126434326172 14.68951416015625 1.872776031494141 C 14.69253921508789 1.871498107910156 14.69533538818359 1.870326995849609 14.6983528137207 1.869052886962891 C 14.70136260986328 1.867782592773438 14.70382690429688 1.866752624511719 14.70685195922852 1.865478515625 C 14.70969390869141 1.864292144775391 14.71261978149414 1.863063812255859 14.71546173095703 1.861862182617188 C 14.71829605102539 1.860668182373047 14.72098159790039 1.859542846679688 14.72382354736328 1.858352661132812 C 14.72736740112305 1.856868743896484 14.72933197021484 1.856040954589844 14.73288345336914 1.85455322265625 C 14.73554229736328 1.853443145751953 14.73846817016602 1.852218627929688 14.74113082885742 1.851100921630859 C 14.74397659301758 1.84991455078125 14.74671936035156 1.848762512207031 14.74956130981445 1.847572326660156 C 14.75188064575195 1.846603393554688 14.7556266784668 1.845035552978516 14.75794982910156 1.844070434570312 C 14.76097106933594 1.842803955078125 14.76362228393555 1.841697692871094 14.76665115356445 1.840438842773438 C 14.76897430419922 1.839466094970703 14.77261734008789 1.837940216064453 14.77493286132812 1.836986541748047 C 14.77831649780273 1.8355712890625 14.7801628112793 1.834800720214844 14.78355026245117 1.833396911621094 C 14.785888671875 1.832420349121094 14.78794860839844 1.831565856933594 14.79028701782227 1.830593109130859 C 14.79028701782227 1.830593109130859 14.79180908203125 1.829959869384766 14.79180908203125 1.829959869384766 C 14.79485321044922 1.828697204589844 14.79757690429688 1.82757568359375 14.80060958862305 1.826301574707031 C 14.80364990234375 1.825035095214844 14.80595779418945 1.824066162109375 14.80900573730469 1.822818756103516 C 14.8115234375 1.821773529052734 14.81373977661133 1.820854187011719 14.81625747680664 1.819808959960938 C 14.81696319580078 1.81951904296875 14.81696701049805 1.819515228271484 14.81767272949219 1.819225311279297 C 14.82289123535156 1.817058563232422 14.82794570922852 1.814968109130859 14.83316802978516 1.812808990478516 C 14.83386993408203 1.812515258789062 14.83423614501953 1.812366485595703 14.83493804931641 1.812076568603516 C 14.84070205688477 1.8096923828125 14.84632873535156 1.807369232177734 14.85209274291992 1.804988861083984 C 14.85209274291992 1.804988861083984 14.85222244262695 1.804935455322266 14.85222244262695 1.804935455322266 C 14.85798645019531 1.802555084228516 14.86345291137695 1.800304412841797 14.86922073364258 1.797927856445312 C 14.87228012084961 1.796665191650391 14.87495422363281 1.795570373535156 14.87799835205078 1.794319152832031 C 14.87870407104492 1.794029235839844 14.8779182434082 1.794349670410156 14.87862396240234 1.794059753417969 C 14.88132858276367 1.792949676513672 14.88381195068359 1.791927337646484 14.88652038574219 1.790817260742188 C 14.88722229003906 1.79052734375 14.88721084594727 1.790531158447266 14.88791656494141 1.790241241455078 C 14.89044189453125 1.789207458496094 14.89277648925781 1.788246154785156 14.89529800415039 1.787212371826172 C 14.89600372314453 1.786922454833984 14.8951530456543 1.787269592285156 14.89585876464844 1.786983489990234 C 14.89838409423828 1.785945892333984 14.901123046875 1.784824371337891 14.90364837646484 1.783786773681641 C 14.90669631958008 1.78253173828125 14.9095458984375 1.7813720703125 14.91259765625 1.780120849609375 C 14.91259765625 1.780120849609375 14.91305160522461 1.779933929443359 14.91305160522461 1.779933929443359 C 14.9157600402832 1.778827667236328 14.91841888427734 1.777740478515625 14.92112731933594 1.776630401611328 C 14.92112731933594 1.776630401611328 14.922119140625 1.776226043701172 14.922119140625 1.776226043701172 C 14.92482757568359 1.775119781494141 14.92707443237305 1.774200439453125 14.92977905273438 1.773094177246094 C 14.92977905273438 1.773094177246094 14.93088150024414 1.77264404296875 14.93088150024414 1.77264404296875 C 14.93393325805664 1.771400451660156 14.93720626831055 1.770053863525391 14.94025802612305 1.768817901611328 C 14.94313049316406 1.767650604248047 14.9454460144043 1.766696929931641 14.94831466674805 1.765533447265625 C 14.95136642456055 1.764289855957031 14.95419311523438 1.763130187988281 14.95724868774414 1.761894226074219 C 14.96030044555664 1.760646820068359 14.96306228637695 1.759536743164062 14.96611785888672 1.758285522460938 C 14.96880340576172 1.757194519042969 14.972412109375 1.755718231201172 14.97511291503906 1.754631042480469 C 14.97780990600586 1.753532409667969 14.98089218139648 1.752273559570312 14.98358154296875 1.751194000244141 C 14.98627090454102 1.750102996826172 14.98950958251953 1.748786926269531 14.99220657348633 1.747695922851562 C 14.99489974975586 1.746608734130859 14.99837493896484 1.745216369628906 15.00106811523438 1.744110107421875 C 15.0042839050293 1.742801666259766 15.00672912597656 1.741813659667969 15.00995254516602 1.740512847900391 C 15.01316833496094 1.739215850830078 15.01497268676758 1.738479614257812 15.01820373535156 1.7371826171875 C 15.02142715454102 1.735877990722656 15.02360534667969 1.734996795654297 15.02682113647461 1.73370361328125 C 15.02952575683594 1.732612609863281 15.03245162963867 1.731441497802734 15.03513336181641 1.730350494384766 C 15.03871536254883 1.728904724121094 15.04026794433594 1.728271484375 15.04385757446289 1.726837158203125 C 15.04673767089844 1.725677490234375 15.04922485351562 1.724689483642578 15.05210113525391 1.723522186279297 C 15.05463409423828 1.722503662109375 15.05683898925781 1.72161865234375 15.05937194824219 1.720600128173828 C 15.06008148193359 1.720314025878906 15.05996704101562 1.720359802246094 15.06067276000977 1.720077514648438 C 15.06320571899414 1.719058990478516 15.06583786010742 1.718006134033203 15.0683708190918 1.716987609863281 C 15.07144165039062 1.715770721435547 15.0733528137207 1.714984893798828 15.07641220092773 1.713764190673828 C 15.07948303222656 1.712516784667969 15.08218383789062 1.711448669433594 15.08524322509766 1.710224151611328 C 15.08595275878906 1.709941864013672 15.08604049682617 1.709907531738281 15.08674621582031 1.709625244140625 C 15.08928298950195 1.708610534667969 15.0916633605957 1.707656860351562 15.09420013427734 1.706642150878906 C 15.09490585327148 1.70635986328125 15.09453582763672 1.706508636474609 15.09524154663086 1.706226348876953 C 15.0977783203125 1.705211639404297 15.10057067871094 1.704097747802734 15.10310745239258 1.703083038330078 C 15.10310745239258 1.703083038330078 15.10383987426758 1.702789306640625 15.10383987426758 1.702789306640625 C 15.1065559387207 1.701705932617188 15.10888290405273 1.700778961181641 15.11159896850586 1.699695587158203 C 15.11159896850586 1.699695587158203 15.11258697509766 1.699298858642578 15.11258697509766 1.699298858642578 C 15.12400436401367 1.694747924804688 15.13554763793945 1.690151214599609 15.14697265625 1.685615539550781 C 15.14697265625 1.685615539550781 15.14714813232422 1.685546875 15.14714813232422 1.685546875 C 15.21678924560547 1.657894134521484 15.28646469116211 1.630603790283203 15.35642623901367 1.603588104248047 C 15.35713958740234 1.603313446044922 15.35594940185547 1.603771209716797 15.35665893554688 1.603496551513672 C 15.36832046508789 1.598995208740234 15.3796501159668 1.594627380371094 15.39131927490234 1.590145111083984 C 15.39131927490234 1.590145111083984 15.39172744750977 1.589988708496094 15.39172744750977 1.589988708496094 C 15.40339660644531 1.585502624511719 15.41463470458984 1.581192016601562 15.42631149291992 1.576725006103516 C 15.42631149291992 1.576725006103516 15.42670822143555 1.576572418212891 15.42670822143555 1.576572418212891 C 17.3885498046875 0.8260231018066406 19.47367858886719 0.3256187438964844 21.64389610290527 0.1141777038574219 C 21.64771270751953 0.1138076782226562 21.64993858337402 0.11358642578125 21.65375709533691 0.1132164001464844 C 21.65375709533691 0.1132164001464844 21.65388679504395 0.1132049560546875 21.65388679504395 0.1132049560546875 C 21.65711784362793 0.1128921508789062 21.66022300720215 0.1125907897949219 21.66345405578613 0.1122779846191406 C 21.66345405578613 0.1122779846191406 21.66356658935547 0.1122665405273438 21.66356658935547 0.1122665405273438 C 21.6700267791748 0.1116447448730469 21.67626190185547 0.1110458374023438 21.68272399902344 0.1104240417480469 C 21.68272399902344 0.1104240417480469 21.68308258056641 0.1103897094726562 21.68308258056641 0.1103897094726562 C 21.68954467773438 0.109771728515625 21.69578742980957 0.1091766357421875 21.70225143432617 0.1085624694824219 C 21.70225143432617 0.1085624694824219 21.70229148864746 0.1085586547851562 21.70229148864746 0.1085586547851562 C 21.70875549316406 0.1079444885253906 21.71495819091797 0.1073570251464844 21.7214241027832 0.10675048828125 C 21.7214241027832 0.10675048828125 21.72187232971191 0.1067085266113281 21.72187232971191 0.1067085266113281 C 21.73480224609375 0.1054878234863281 21.74745750427246 0.10430908203125 21.7603931427002 0.1031112670898438 C 21.7603931427002 0.1031112670898438 21.76050186157227 0.1030998229980469 21.76050186157227 0.1030998229980469 C 21.7734375 0.1019020080566406 21.7861499786377 0.100738525390625 21.79909133911133 0.09955978393554688 C 21.79909133911133 0.09955978393554688 21.79935264587402 0.09953689575195312 21.79935264587402 0.09953689575195312 C 21.87053298950195 0.09306716918945312 21.94160079956055 0.08692550659179688 22.01295852661133 0.08107757568359375 C 22.01295852661133 0.08107757568359375 22.01348114013672 0.08103179931640625 22.01348114013672 0.08103179931640625 C 22.01711273193359 0.0807342529296875 22.02015113830566 0.08048248291015625 22.02377510070801 0.08019256591796875 C 22.0272045135498 0.07991409301757812 22.03042411804199 0.07965087890625 22.03384590148926 0.07937240600585938 C 22.03727531433105 0.07909393310546875 22.03959083557129 0.07889175415039062 22.04302406311035 0.07863235473632812 C 22.04665565490723 0.07833480834960938 22.0494213104248 0.07811737060546875 22.05304908752441 0.07782363891601562 C 22.05647850036621 0.07754898071289062 22.05937767028809 0.07731246948242188 22.06280517578125 0.0770416259765625 C 22.06623077392578 0.07677078247070312 22.06903839111328 0.07656478881835938 22.07247543334961 0.07627105712890625 C 22.07590484619141 0.07600021362304688 22.07843208312988 0.07580184936523438 22.08186912536621 0.07552719116210938 C 22.08550071716309 0.07523727416992188 22.0883846282959 0.07500839233398438 22.09203147888184 0.07472610473632812 C 22.09546279907227 0.07445526123046875 22.09834098815918 0.07422256469726562 22.10177421569824 0.07396316528320312 C 22.10500526428223 0.07371139526367188 22.10845947265625 0.07342910766601562 22.11168670654297 0.07318878173828125 C 22.11412239074707 0.072998046875 22.11669731140137 0.0727996826171875 22.11913299560547 0.07260894775390625 C 22.11913299560547 0.07260894775390625 22.12119483947754 0.07244873046875 22.12119483947754 0.07244873046875 C 22.12363052368164 0.07226181030273438 22.12651443481445 0.07204055786132812 22.12895011901855 0.07184982299804688 C 22.12895011901855 0.07184982299804688 22.13076591491699 0.07171249389648438 22.13076591491699 0.07171249389648438 C 22.13360786437988 0.07149124145507812 22.13607978820801 0.07130050659179688 22.1389217376709 0.07108306884765625 C 22.1389217376709 0.07108306884765625 22.14026069641113 0.07098007202148438 22.14026069641113 0.07098007202148438 C 22.14389801025391 0.07070541381835938 22.14628601074219 0.07051849365234375 22.1499195098877 0.07024383544921875 C 22.1535587310791 0.06996536254882812 22.15580177307129 0.0698089599609375 22.1594295501709 0.06951904296875 C 22.16326904296875 0.06923294067382812 22.16551208496094 0.06904983520507812 22.16935348510742 0.0687713623046875 C 22.17299270629883 0.06848907470703125 22.17549514770508 0.06829452514648438 22.17912864685059 0.06803512573242188 C 22.18255996704102 0.06777572631835938 22.18555068969727 0.06755828857421875 22.18898582458496 0.06729507446289062 C 22.19242477416992 0.06704330444335938 22.19514465332031 0.06685256958007812 22.19857215881348 0.06658172607421875 C 22.2020092010498 0.06632614135742188 22.2048511505127 0.06610488891601562 22.20828247070312 0.06586456298828125 C 22.21112823486328 0.06565475463867188 22.21416664123535 0.0654296875 22.21701240539551 0.06522369384765625 C 22.21701240539551 0.06522369384765625 22.2179012298584 0.06515884399414062 22.2179012298584 0.06515884399414062 C 22.22115325927734 0.06491851806640625 22.22396278381348 0.0647125244140625 22.22721481323242 0.06447601318359375 C 22.22721481323242 0.06447601318359375 22.22748756408691 0.06445693969726562 22.22748756408691 0.06445693969726562 C 22.28276443481445 0.06042098999023438 22.33793449401855 0.05658340454101562 22.39331245422363 0.05292129516601562 C 22.39331245422363 0.05292129516601562 22.39384460449219 0.052886962890625 22.39384460449219 0.052886962890625 C 22.39689826965332 0.05268478393554688 22.39998245239258 0.05248260498046875 22.40303802490234 0.05228042602539062 C 22.40303802490234 0.05228042602539062 22.40377807617188 0.05223464965820312 22.40377807617188 0.05223464965820312 C 22.40683174133301 0.052032470703125 22.40966033935547 0.05184555053710938 22.4127140045166 0.05164718627929688 C 22.4127140045166 0.05164718627929688 22.41386985778809 0.05157089233398438 22.41386985778809 0.05157089233398438 C 22.41751670837402 0.05133438110351562 22.4208984375 0.05110549926757812 22.42454147338867 0.05088043212890625 C 22.42778015136719 0.05066680908203125 22.43085670471191 0.0504608154296875 22.4340934753418 0.050262451171875 C 22.43733787536621 0.05005645751953125 22.44033050537109 0.04987335205078125 22.44357490539551 0.049652099609375 C 22.44701766967773 0.04943084716796875 22.44969177246094 0.04927825927734375 22.45313835144043 0.049041748046875 C 22.45658493041992 0.04882431030273438 22.45959281921387 0.04864120483398438 22.4630298614502 0.0484161376953125 C 22.46647644042969 0.04819869995117188 22.46920776367188 0.04803848266601562 22.4726619720459 0.04780960083007812 C 22.47610855102539 0.0475921630859375 22.47933197021484 0.04739761352539062 22.48278045654297 0.04717636108398438 C 22.48602104187012 0.04697036743164062 22.48944091796875 0.04676055908203125 22.4926929473877 0.04655838012695312 C 22.49593353271484 0.046356201171875 22.49936294555664 0.04615402221679688 22.50260925292969 0.04594802856445312 C 22.50564575195312 0.04575729370117188 22.50934028625488 0.04553985595703125 22.51238822937012 0.04534530639648438 C 22.5162239074707 0.04510879516601562 22.51836967468262 0.04498672485351562 22.5222110748291 0.04474639892578125 C 22.52604866027832 0.04451751708984375 22.52791786193848 0.04439926147460938 22.53175163269043 0.04417037963867188 C 22.53558921813965 0.04393768310546875 22.53788185119629 0.04380035400390625 22.54171562194824 0.04357147216796875 C 22.54534721374512 0.04335403442382812 22.54763603210449 0.043212890625 22.55127143859863 0.042999267578125 C 22.55431175231934 0.04281997680664062 22.55799674987793 0.0426025390625 22.56103897094727 0.04241943359375 C 22.5640811920166 0.04224777221679688 22.5677661895752 0.04203414916992188 22.5708065032959 0.04184341430664062 C 22.57384872436523 0.04166793823242188 22.57755470275879 0.04145050048828125 22.58059692382812 0.04127120971679688 C 22.58363723754883 0.0410919189453125 22.58715438842773 0.04088211059570312 22.59019470214844 0.04071426391601562 C 22.59323692321777 0.04053878784179688 22.59697341918945 0.04031753540039062 22.60001373291016 0.0401458740234375 C 22.60305595397949 0.03997802734375 22.60638999938965 0.03977584838867188 22.60943603515625 0.03960800170898438 C 22.61268424987793 0.03942108154296875 22.61605644226074 0.0392303466796875 22.61930656433105 0.03904342651367188 C 22.6225528717041 0.0388641357421875 22.62563896179199 0.03868484497070312 22.62888145446777 0.03850555419921875 C 22.63212966918945 0.0383148193359375 22.63557815551758 0.03813934326171875 22.63882255554199 0.03794479370117188 C 22.64207458496094 0.03776168823242188 22.6451530456543 0.03757858276367188 22.64839172363281 0.03741455078125 C 22.65143775939941 0.0372467041015625 22.65526962280273 0.0370330810546875 22.6583194732666 0.036865234375 C 22.66156768798828 0.03668594360351562 22.66465950012207 0.03651809692382812 22.66790008544922 0.03633880615234375 C 22.6711483001709 0.03615951538085938 22.67438507080078 0.03596878051757812 22.67762565612793 0.03580856323242188 C 22.68128395080566 0.03561019897460938 22.68352127075195 0.03551101684570312 22.68718338012695 0.03528976440429688 C 22.6910457611084 0.03508758544921875 22.69306564331055 0.03498458862304688 22.69693756103516 0.03476715087890625 C 22.72308540344238 0.03336715698242188 22.74916076660156 0.03201675415039062 22.77533149719238 0.03070068359375 C 22.77533149719238 0.03070068359375 22.77555465698242 0.03068923950195312 22.77555465698242 0.03068923950195312 C 22.77962684631348 0.030487060546875 22.78151512145996 0.03041458129882812 22.78558158874512 0.03018569946289062 C 22.78944778442383 0.02999496459960938 22.79210662841797 0.02986907958984375 22.79597091674805 0.02967071533203125 C 22.7988338470459 0.02952957153320312 22.80170440673828 0.029388427734375 22.80456733703613 0.02924728393554688 C 22.80456733703613 0.02924728393554688 22.80617904663086 0.02916717529296875 22.80617904663086 0.02916717529296875 C 22.8104362487793 0.028961181640625 22.81269073486328 0.0288543701171875 22.81694984436035 0.02864456176757812 C 22.81999778747559 0.02849197387695312 22.8232421875 0.02832794189453125 22.82630157470703 0.02819061279296875 C 22.82955551147461 0.02803421020507812 22.83269500732422 0.0278778076171875 22.83596229553223 0.02772903442382812 C 22.8392162322998 0.02756881713867188 22.84313201904297 0.02737808227539062 22.84639358520508 0.02723312377929688 C 22.84923934936523 0.02709579467773438 22.85383033752441 0.02688217163085938 22.85667991638184 0.0267486572265625 C 22.85932159423828 0.0266265869140625 22.86341667175293 0.02643966674804688 22.86605262756348 0.02630996704101562 C 22.868896484375 0.02617645263671875 22.87275314331055 0.0260009765625 22.87560272216797 0.02586746215820312 C 22.8786506652832 0.02572250366210938 22.88262367248535 0.02553939819335938 22.88568305969238 0.0254058837890625 C 22.88932609558105 0.02523422241210938 22.89205741882324 0.02510833740234375 22.89570808410645 0.0249481201171875 C 22.89935493469238 0.02478408813476562 22.90167045593262 0.0246734619140625 22.90531730651855 0.02451705932617188 C 22.90816497802734 0.02438735961914062 22.91179275512695 0.02423477172851562 22.91464233398438 0.02409744262695312 C 22.91769790649414 0.02396392822265625 22.92136383056641 0.02379226684570312 22.92440795898438 0.0236663818359375 C 22.92805862426758 0.02350616455078125 22.9307861328125 0.02338790893554688 22.93443298339844 0.02322769165039062 C 22.93808555603027 0.02306747436523438 22.94058799743652 0.02296066284179688 22.9442310333252 0.02280044555664062 C 22.94787979125977 0.02264785766601562 22.95025062561035 0.02254486083984375 22.95390129089355 0.0223846435546875 C 22.95755004882812 0.0222320556640625 22.96034622192383 0.0221099853515625 22.96399116516113 0.02195358276367188 C 22.96743583679199 0.0218048095703125 22.97025299072266 0.02169036865234375 22.97369766235352 0.02154159545898438 C 22.97714424133301 0.02139663696289062 22.97999954223633 0.02127838134765625 22.98344612121582 0.0211334228515625 C 22.98689270019531 0.02098846435546875 22.98943519592285 0.02088546752929688 22.99288177490234 0.02074432373046875 C 22.99593544006348 0.0206146240234375 22.99972152709961 0.02046585083007812 23.00277519226074 0.02033615112304688 C 23.00642967224121 0.0201873779296875 23.00899124145508 0.02008056640625 23.01264381408691 0.01993560791015625 C 23.01549530029297 0.01981353759765625 23.01953315734863 0.01964569091796875 23.02239036560059 0.01954269409179688 C 23.02503395080566 0.019439697265625 23.02945137023926 0.01924896240234375 23.0320987701416 0.01915740966796875 C 23.03474235534668 0.01904678344726562 23.03931617736816 0.01887893676757812 23.04196739196777 0.01876449584960938 C 23.04461288452148 0.01865768432617188 23.04903030395508 0.01848602294921875 23.05167770385742 0.0183868408203125 C 23.05432319641113 0.018280029296875 23.05856132507324 0.01812362670898438 23.06120872497559 0.01801681518554688 C 23.06426811218262 0.01790237426757812 23.06778526306152 0.01776885986328125 23.07083892822266 0.01765060424804688 C 23.07469940185547 0.01749801635742188 23.07687377929688 0.01741409301757812 23.08073425292969 0.01727676391601562 C 23.08438491821289 0.01713180541992188 23.08696174621582 0.01703262329101562 23.09062194824219 0.01690673828125 C 23.09427833557129 0.01676559448242188 23.09668159484863 0.0166778564453125 23.10033798217773 0.01654434204101562 C 23.10399627685547 0.01641082763671875 23.10635948181152 0.01633071899414062 23.11001205444336 0.0161895751953125 C 23.11346244812012 0.0160675048828125 23.11650466918945 0.01595306396484375 23.11995506286621 0.01583099365234375 C 23.12320327758789 0.01570892333984375 23.12640571594238 0.01559829711914062 23.1296501159668 0.01548385620117188 C 23.13271331787109 0.01537704467773438 23.13623809814453 0.01525497436523438 23.1392993927002 0.01514053344726562 C 23.14995193481445 0.01476669311523438 23.15925407409668 0.01446151733398438 23.1699390411377 0.01408004760742188 C 23.17361640930176 0.01395034790039062 23.17660522460938 0.01384353637695312 23.1802864074707 0.01372909545898438 C 23.18456077575684 0.01358795166015625 23.1876220703125 0.01348876953125 23.19189262390137 0.01334381103515625 C 23.19534492492676 0.0132293701171875 23.19900512695312 0.01311492919921875 23.20246124267578 0.01299667358398438 C 23.20571327209473 0.0128936767578125 23.20890617370605 0.012786865234375 23.21215438842773 0.0126800537109375 C 23.21560859680176 0.0125732421875 23.2177791595459 0.01250457763671875 23.22123146057129 0.01239013671875 C 23.22488975524902 0.01227188110351562 23.22702026367188 0.01219940185546875 23.23068237304688 0.01209259033203125 C 23.23434066772461 0.01197433471679688 23.23732566833496 0.01187896728515625 23.24098777770996 0.01176834106445312 C 23.24444389343262 0.01166152954101562 23.24778747558594 0.01155853271484375 23.25124359130859 0.01145172119140625 C 23.25449371337891 0.01135635375976562 23.25754547119141 0.011260986328125 23.26079559326172 0.01116180419921875 C 23.26345062255859 0.01108169555664062 23.26796531677246 0.01094436645507812 23.27061653137207 0.01086807250976562 C 23.27407646179199 0.01076126098632812 23.27703857421875 0.01067352294921875 23.28049087524414 0.0105743408203125 C 23.2839469909668 0.01047134399414062 23.28695106506348 0.01038360595703125 23.2904109954834 0.010284423828125 C 23.2928581237793 0.01021194458007812 23.29728126525879 0.01008224487304688 23.29972839355469 0.01001358032226562 C 23.30318450927734 0.009918212890625 23.30624389648438 0.00982666015625 23.30970001220703 0.009731292724609375 C 23.31294822692871 0.0096435546875 23.31611824035645 0.009552001953125 23.31937408447266 0.00946044921875 C 23.32283210754395 0.00936126708984375 23.32586860656738 0.009273529052734375 23.3293285369873 0.009185791015625 C 23.33257865905762 0.00909423828125 23.33579063415527 0.00901031494140625 23.33904838562012 0.00891876220703125 C 23.34250450134277 0.008823394775390625 23.34565162658691 0.008739471435546875 23.3491096496582 0.0086517333984375 C 23.35215950012207 0.008575439453125 23.3557243347168 0.00847625732421875 23.3587703704834 0.008396148681640625 C 23.36202430725098 0.00830841064453125 23.36550140380859 0.00821685791015625 23.36875343322754 0.008136749267578125 C 23.37201118469238 0.00804901123046875 23.37495231628418 0.0079803466796875 23.37820053100586 0.007892608642578125 C 23.38145637512207 0.0078125 23.38479614257812 0.00772857666015625 23.38805198669434 0.0076446533203125 C 23.3911018371582 0.007572174072265625 23.39470100402832 0.007476806640625 23.39775276184082 0.007404327392578125 C 23.40100479125977 0.007320404052734375 23.4044246673584 0.007236480712890625 23.40768432617188 0.007160186767578125 C 23.41094017028809 0.00708770751953125 23.41397094726562 0.00701141357421875 23.41722869873047 0.006931304931640625 C 23.42048263549805 0.0068511962890625 23.42367362976074 0.006778717041015625 23.42692947387695 0.006702423095703125 C 23.43039131164551 0.006622314453125 23.43311309814453 0.006561279296875 23.43657493591309 0.00647735595703125 C 23.44004058837891 0.006397247314453125 23.4432258605957 0.00632476806640625 23.44668769836426 0.00624847412109375 C 23.44994354248047 0.00617218017578125 23.45295143127441 0.006103515625 23.45620536804199 0.00603485107421875 C 23.4588623046875 0.005970001220703125 23.46343040466309 0.005863189697265625 23.46609115600586 0.005817413330078125 C 23.46875 0.005756378173828125 23.47313690185547 0.0056610107421875 23.47579574584961 0.00560760498046875 C 23.47905349731445 0.00553131103515625 23.48258781433105 0.005462646484375 23.4858455657959 0.00539398193359375 C 23.48910331726074 0.005329132080078125 23.49208068847656 0.0052642822265625 23.49533843994141 0.00519561767578125 C 23.49880027770996 0.005123138427734375 23.50192832946777 0.00505828857421875 23.50539207458496 0.0049896240234375 C 23.5084400177002 0.004924774169921875 23.51186561584473 0.004852294921875 23.51492118835449 0.00479888916015625 C 23.51817893981934 0.00473785400390625 23.5217456817627 0.00466156005859375 23.5250072479248 0.00460052490234375 C 23.52886581420898 0.004528045654296875 23.53068923950195 0.00449371337890625 23.53454399108887 0.00441741943359375 C 23.53780364990234 0.00435638427734375 23.54119682312012 0.004291534423828125 23.54445648193359 0.004230499267578125 C 23.54751396179199 0.00417327880859375 23.55108642578125 0.004108428955078125 23.55414009094238 0.004055023193359375 C 23.56101608276367 0.00392913818359375 23.56681823730469 0.00382232666015625 23.57369422912598 0.003704071044921875 C 23.57915115356445 0.003589630126953125 23.58459091186523 0.00351715087890625 23.59004592895508 0.00342559814453125 C 23.5934886932373 0.0033721923828125 23.59723663330078 0.003307342529296875 23.60068702697754 0.0032501220703125 C 23.60291290283203 0.003200531005859375 23.60519409179688 0.003173828125 23.60742378234863 0.003139495849609375 C 23.61008262634277 0.00310516357421875 23.61307716369629 0.00304412841796875 23.61574554443359 0.003009796142578125 C 23.6196231842041 0.0029449462890625 23.6231689453125 0.002887725830078125 23.62705039978027 0.002834320068359375 C 23.63051986694336 0.002788543701171875 23.63360977172852 0.002742767333984375 23.6370792388916 0.002681732177734375 C 23.64033889770508 0.002635955810546875 23.64379692077637 0.002582550048828125 23.64706039428711 0.002536773681640625 C 23.65031814575195 0.0024871826171875 23.65345191955566 0.002445220947265625 23.65671730041504 0.002399444580078125 C 23.65998458862305 0.002353668212890625 23.66318511962891 0.00231170654296875 23.66644477844238 0.00226593017578125 C 23.66970634460449 0.002216339111328125 23.67316246032715 0.002170562744140625 23.67642784118652 0.002132415771484375 C 23.67969512939453 0.002086639404296875 23.68280410766602 0.002044677734375 23.68606758117676 0.00200653076171875 C 23.68852233886719 0.001972198486328125 23.6931324005127 0.001926422119140625 23.69558906555176 0.00188446044921875 C 23.69906234741211 0.001842498779296875 23.70219802856445 0.00180816650390625 23.70566749572754 0.00176239013671875 C 23.70913887023926 0.0017242431640625 23.71208953857422 0.00168609619140625 23.71556091308594 0.001644134521484375 C 23.71882629394531 0.001605987548828125 23.72217178344727 0.0015716552734375 23.72543716430664 0.00153350830078125 C 23.72870445251465 0.001495361328125 23.73196983337402 0.00145721435546875 23.73523330688477 0.00142669677734375 C 23.73849678039551 0.0013885498046875 23.74173545837402 0.00135040283203125 23.74500274658203 0.001323699951171875 C 23.74826622009277 0.00128173828125 23.75159454345703 0.001247406005859375 23.75486183166504 0.001220703125 C 23.7579231262207 0.001190185546875 23.76150703430176 0.001155853271484375 23.76456642150879 0.001125335693359375 C 23.76803970336914 0.001087188720703125 23.77089500427246 0.001064300537109375 23.77437210083008 0.001033782958984375 C 23.77763557434082 0.001003265380859375 23.78085327148438 0.0009765625 23.78412055969238 0.000946044921875 C 23.78738784790039 0.00091552734375 23.79077529907227 0.000885009765625 23.79404258728027 0.00086212158203125 C 23.79710578918457 0.000835418701171875 23.80078125 0.0008087158203125 23.8038387298584 0.0007781982421875 C 23.80710983276367 0.000759124755859375 23.81023406982422 0.000732421875 23.81349754333496 0.000705718994140625 C 23.8167667388916 0.00067901611328125 23.82013893127441 0.000659942626953125 23.82341003417969 0.000629425048828125 C 23.8266773223877 0.000606536865234375 23.82992362976074 0.00058746337890625 23.83319473266602 0.000560760498046875 C 23.83646202087402 0.00054168701171875 23.83978080749512 0.000514984130859375 23.84305191040039 0.00049591064453125 C 23.8463191986084 0.000484466552734375 23.84953689575195 0.000453948974609375 23.85280418395996 0.000438690185546875 C 23.85586738586426 0.0004119873046875 23.85961151123047 0.000396728515625 23.86267471313477 0.0003814697265625 C 23.86573600769043 0.000354766845703125 23.86941337585449 0.000339508056640625 23.87247657775879 0.00032806396484375 C 23.87553977966309 0.00031280517578125 23.87914848327637 0.0002899169921875 23.88221168518066 0.000278472900390625 C 23.8848819732666 0.00026702880859375 23.8892765045166 0.000244140625 23.89194679260254 0.000232696533203125 C 23.89521980285645 0.00022125244140625 23.89861869812012 0.00020599365234375 23.90188407897949 0.00019073486328125 C 23.9051570892334 0.00017547607421875 23.90840339660645 0.0001678466796875 23.91167640686035 0.000152587890625 C 23.91474151611328 0.00014495849609375 23.91843223571777 0.00012969970703125 23.9214973449707 0.0001220703125 C 23.92477416992188 0.000110626220703125 23.92803192138672 0.000102996826171875 23.93130111694336 9.1552734375e-05 C 23.93457412719727 8.7738037109375e-05 23.93781280517578 7.62939453125e-05 23.94108200073242 6.4849853515625e-05 C 23.94455909729004 5.7220458984375e-05 23.94734764099121 4.1961669921875e-05 23.95082855224609 4.57763671875e-05 C 23.95430755615234 3.4332275390625e-05 23.95726013183594 3.0517578125e-05 23.96074104309082 2.6702880859375e-05 C 23.96401405334473 1.9073486328125e-05 23.96735382080078 1.9073486328125e-05 23.97062683105469 1.1444091796875e-05 C 23.97369384765625 1.1444091796875e-05 23.97731018066406 3.814697265625e-06 23.98037719726562 3.814697265625e-06 C 23.98387908935547 -3.814697265625e-06 23.98660659790039 -7.62939453125e-06 23.99009704589844 -3.814697265625e-06 C 23.993408203125 -3.814697265625e-06 23.99667358398438 -3.814697265625e-06 23.99998474121094 -3.814697265625e-06 C 23.99998474121094 -3.814697265625e-06 23.99998474121094 -3.814697265625e-06 23.99998474121094 -3.814697265625e-06 Z" stroke="none" fill="#039a7b"/>
    </g>
    <g id="pause_copy" data-name="pause copy" transform="translate(15.963 15.151)">
      <path id="Path" d="M1529.2,1271h-3.982a1.2,1.2,0,0,0-1.194,1.195v16.724a1.2,1.2,0,0,0,1.194,1.195h3.982a1.2,1.2,0,0,0,1.195-1.195v-16.724A1.2,1.2,0,0,0,1529.2,1271Z" transform="translate(-1524.023 -1271)" fill="#039a7b"/>
      <path id="Path-2" data-name="Path" d="M1538.172,1271h-3.982a1.2,1.2,0,0,0-1.195,1.195v16.724a1.2,1.2,0,0,0,1.195,1.195h3.982a1.2,1.2,0,0,0,1.195-1.195v-16.724A1.2,1.2,0,0,0,1538.172,1271Z" transform="translate(-1523.438 -1271)" fill="#039a7b"/>
    </g>
  </g>
</svg>
