<svg xmlns="http://www.w3.org/2000/svg" width="16.5" height="18" viewBox="0 0 16.5 18">
  <g id="share_3_" data-name="share (3)" transform="translate(0 0)">
    <path id="Path_434" data-name="Path 434" d="M319.543,18.437A2.437,2.437,0,1,1,317.105,16,2.437,2.437,0,0,1,319.543,18.437Zm0,0" transform="translate(-303.605 -15.437)" fill="#fff"/>
    <path id="Path_435" data-name="Path 435" d="M301.668,6a3,3,0,1,1,3-3A3,3,0,0,1,301.668,6Zm0-4.875A1.875,1.875,0,1,0,303.543,3a1.877,1.877,0,0,0-1.875-1.875Zm0,0" transform="translate(-288.168)" fill="#fff"/>
    <path id="Path_436" data-name="Path 436" d="M319.543,359.77a2.437,2.437,0,1,1-2.437-2.438A2.437,2.437,0,0,1,319.543,359.77Zm0,0" transform="translate(-303.605 -344.77)" fill="#fff"/>
    <path id="Path_437" data-name="Path 437" d="M301.668,347.332a3,3,0,1,1,3-3A3,3,0,0,1,301.668,347.332Zm0-4.875a1.875,1.875,0,1,0,1.875,1.875A1.877,1.877,0,0,0,301.668,342.457Zm0,0" transform="translate(-288.168 -329.332)" fill="#fff"/>
    <path id="Path_438" data-name="Path 438" d="M20.875,189.105a2.438,2.438,0,1,1-2.438-2.437A2.437,2.437,0,0,1,20.875,189.105Zm0,0" transform="translate(-15.438 -180.105)" fill="#fff"/>
    <path id="Path_439" data-name="Path 439" d="M3,176.668a3,3,0,1,1,3-3,3,3,0,0,1-3,3Zm0-4.875a1.875,1.875,0,1,0,1.875,1.875A1.877,1.877,0,0,0,3,171.793Zm0,0" transform="translate(0 -164.668)" fill="#fff"/>
    <path id="Path_440" data-name="Path 440" d="M115.1,95.683a.75.75,0,0,1-.372-1.4l6.959-3.967a.75.75,0,1,1,.743,1.3l-6.959,3.967a.745.745,0,0,1-.37.1Zm0,0" transform="translate(-110.328 -87.043)" fill="#fff"/>
    <path id="Path_441" data-name="Path 441" d="M122.08,271.687a.745.745,0,0,1-.371-.1l-6.959-3.967a.75.75,0,0,1,.743-1.3l6.959,3.967a.75.75,0,0,1-.372,1.4Zm0,0" transform="translate(-110.35 -256.859)" fill="#fff"/>
  </g>
</svg>
