<svg id="_Group_" data-name="&lt;Group&gt;" xmlns="http://www.w3.org/2000/svg" width="18.216" height="18.395" viewBox="0 0 18.216 18.395">
  <path id="_Compound_Path_" data-name="&lt;Compound Path&gt;" d="M0,9.2a9.164,9.164,0,0,0,9.108,9.2A9.2,9.2,0,0,0,9.108,0,9.164,9.164,0,0,0,0,9.2Zm1.6,0a7.5,7.5,0,1,1,7.5,7.578A7.55,7.55,0,0,1,1.6,9.2Z" fill="#e99005"/>
  <path id="_Compound_Path_2" data-name="&lt;Compound Path&gt;" d="M.059,3.817a1.209,1.209,0,0,0,.3,1.236L1.943,6.61l-.372,2.2a1.2,1.2,0,0,0,.476,1.18,1.18,1.18,0,0,0,1.258.092L5.259,9.043l1.955,1.038a1.184,1.184,0,0,0,1.26-.094,1.2,1.2,0,0,0,.474-1.18l-.372-2.2,1.581-1.557a1.208,1.208,0,0,0,.3-1.238,1.191,1.191,0,0,0-.964-.821l-2.187-.32-.978-2a1.189,1.189,0,0,0-2.142,0l-.978,2-2.185.32A1.19,1.19,0,0,0,.059,3.817Zm2.016.66,1.579-.232a1.2,1.2,0,0,0,.9-.659L5.259,2.14l.706,1.445a1.2,1.2,0,0,0,.9.66l1.579.232L7.3,5.6a1.217,1.217,0,0,0-.344,1.069l.271,1.587-1.413-.75a1.181,1.181,0,0,0-1.112,0l-1.413.75.271-1.589A1.215,1.215,0,0,0,3.217,5.6Z" transform="translate(3.849 4.087)" fill="#e99005"/>
</svg>
