<svg xmlns="http://www.w3.org/2000/svg" width="20" height="19" viewBox="0 0 20 19">
  <path id="Vector" d="M4.4,12.789l-.889,4.92a1.08,1.08,0,0,0,.45,1.08,1.1,1.1,0,0,0,1.17.08l4.428-2.31a1.131,1.131,0,0,1,.5-.131h.271a.812.812,0,0,1,.27.09l4.429,2.321a1.168,1.168,0,0,0,.71.11,1.111,1.111,0,0,0,.89-1.271l-.89-4.92a1.119,1.119,0,0,1,.319-.979l3.611-3.5a1.079,1.079,0,0,0,.269-1.13,1.123,1.123,0,0,0-.889-.75l-4.969-.721a1.112,1.112,0,0,1-.88-.609L11.012.58a1.041,1.041,0,0,0-.2-.27l-.09-.07a.671.671,0,0,0-.161-.13L10.452.07,10.282,0H9.861a1.118,1.118,0,0,0-.88.6L6.763,5.07a1.111,1.111,0,0,1-.83.609L.964,6.4a1.133,1.133,0,0,0-.91.75,1.086,1.086,0,0,0,.29,1.13l3.74,3.54A1.1,1.1,0,0,1,4.4,12.789Z" fill="#fc0"/>
</svg>
