<svg xmlns="http://www.w3.org/2000/svg" width="79.353" height="80" viewBox="0 0 79.353 80">
  <g id="survey" transform="translate(-0.378)" opacity="0.6" style="mix-blend-mode: luminosity;isolation: isolate">
    <path id="Path_3367" data-name="Path 3367" d="M390.843,22.355c-.345,4.1-4.613,4.742-4.613,4.742,3.665.173,4.578,4.98,4.578,4.98.078-3.428,4.718-5.03,4.718-5.03-3.475-.208-4.682-4.691-4.682-4.691Zm0,0" transform="translate(-317.524 -18.397)" fill="#d7e057"/>
    <path id="Path_3368" data-name="Path 3368" d="M393.089,24.048c-3.048-.183-4.191-4.259-4.2-4.3a.531.531,0,0,0-1.042.094c-.3,3.618-4.007,4.237-4.163,4.261a.531.531,0,0,0,.055,1.056c3.2.151,4.072,4.5,4.081,4.548a.532.532,0,0,0,.522.431h.045a.532.532,0,0,0,.487-.517c.068-3.014,4.318-4.525,4.361-4.54a.532.532,0,0,0-.143-1.033Zm-4.8,3.664a6.192,6.192,0,0,0-2.687-3.144,5.7,5.7,0,0,0,2.9-2.93,6.483,6.483,0,0,0,2.952,3.089A7.554,7.554,0,0,0,388.284,27.712Zm0,0" transform="translate(-315.055 -15.928)" fill="#3a312a"/>
    <path id="Path_3369" data-name="Path 3369" d="M353.72,56.313c-.244,2.9-3.263,3.355-3.263,3.355,2.592.122,3.238,3.522,3.238,3.522.055-2.425,3.337-3.558,3.337-3.558-2.458-.147-3.312-3.319-3.312-3.319Zm0,0" transform="translate(-288.085 -46.34)" fill="#d7e057"/>
    <path id="Path_3370" data-name="Path 3370" d="M354.6,56.633c-2.043-.122-2.824-2.9-2.831-2.927a.531.531,0,0,0-1.042.094,3.327,3.327,0,0,1-2.813,2.873.531.531,0,0,0,.055,1.056c2.137.1,2.736,3.062,2.741,3.091a.53.53,0,0,0,.521.432h.044a.532.532,0,0,0,.488-.517c.046-2.022,2.951-3.058,2.979-3.068a.531.531,0,0,0-.142-1.033ZM351.2,59.039a4.544,4.544,0,0,0-1.575-1.87,4.239,4.239,0,0,0,1.725-1.741,4.742,4.742,0,0,0,1.75,1.85,5.549,5.549,0,0,0-1.9,1.761Zm0,0" transform="translate(-285.617 -43.872)" fill="#3a312a"/>
    <path id="Path_3371" data-name="Path 3371" d="M353.72,3c-.244,2.9-3.263,3.354-3.263,3.354,2.592.122,3.238,3.522,3.238,3.522.055-2.425,3.337-3.558,3.337-3.558C354.574,6.171,353.72,3,353.72,3Zm0,0" transform="translate(-288.085 -2.469)" fill="#d7e057"/>
    <path id="Path_3372" data-name="Path 3372" d="M354.6,3.32C352.561,3.2,351.778.442,351.764.394a.531.531,0,0,0-1.042.093,3.327,3.327,0,0,1-2.813,2.873.531.531,0,0,0,.055,1.056c2.137.1,2.736,3.062,2.741,3.091a.53.53,0,0,0,.521.432h.044a.531.531,0,0,0,.488-.517c.046-2.022,2.951-3.058,2.979-3.068A.531.531,0,0,0,354.6,3.32ZM351.2,5.726a4.548,4.548,0,0,0-1.575-1.87,4.235,4.235,0,0,0,1.725-1.741,4.742,4.742,0,0,0,1.75,1.85,5.549,5.549,0,0,0-1.9,1.761Zm0,0" transform="translate(-285.617 -0.001)" fill="#3a312a"/>
    <path id="Path_3373" data-name="Path 3373" d="M56.081,49.922H9.726a6.347,6.347,0,0,0-6.347,6.347V114.2a6.348,6.348,0,0,0,6.347,6.347H56.081a6.347,6.347,0,0,0,6.347-6.347V56.269a6.348,6.348,0,0,0-6.347-6.347Zm0,0" transform="translate(-2.469 -41.081)" fill="#fce8cb"/>
    <path id="Path_3374" data-name="Path 3374" d="M53.612,46.922H7.257A6.887,6.887,0,0,0,.378,53.8V83.383a.531.531,0,0,0,1.063,0V53.8a5.822,5.822,0,0,1,5.816-5.816H53.612A5.823,5.823,0,0,1,59.428,53.8v57.934a5.823,5.823,0,0,1-5.816,5.816H7.257a5.823,5.823,0,0,1-5.816-5.816V88.805a.531.531,0,1,0-1.063,0v22.929a6.887,6.887,0,0,0,6.879,6.879H53.612a6.887,6.887,0,0,0,6.879-6.879V53.8a6.887,6.887,0,0,0-6.879-6.879Zm0,0" transform="translate(0 -38.613)" fill="#3a312a"/>
    <path id="Path_3375" data-name="Path 3375" d="M56.081,49.922H9.726a6.347,6.347,0,0,0-6.347,6.347v3.562h59.05V56.269a6.348,6.348,0,0,0-6.347-6.347Zm0,0" transform="translate(-2.469 -41.081)" fill="#87796f"/>
    <path id="Path_3376" data-name="Path 3376" d="M53.612,46.922H7.257A6.887,6.887,0,0,0,.378,53.8v3.562a.531.531,0,0,0,.531.531H59.96a.531.531,0,0,0,.531-.531V53.8a6.887,6.887,0,0,0-6.879-6.879Zm5.816,9.909H1.441V53.8a5.822,5.822,0,0,1,5.816-5.816H53.612A5.823,5.823,0,0,1,59.429,53.8Zm0,0" transform="translate(0 -38.613)" fill="#3a312a"/>
    <path id="Path_3377" data-name="Path 3377" d="M117.178,7.454a4.489,4.489,0,0,0-2.238.6,6.742,6.742,0,0,0-13.054,0,4.51,4.51,0,1,0-2.237,8.425h17.529a4.511,4.511,0,0,0,0-9.022Zm0,0" transform="translate(-77.979 -2.466)" fill="#8ac6dd"/>
    <path id="Path_3378" data-name="Path 3378" d="M114.708,4.457a5.033,5.033,0,0,0-1.911.378,7.275,7.275,0,0,0-13.707,0,5.042,5.042,0,1,0-1.911,9.706h7.833a.531.531,0,0,0,0-1.063H97.18a3.98,3.98,0,1,1,1.974-7.433.531.531,0,0,0,.778-.329,6.211,6.211,0,0,1,12.026,0,.531.531,0,0,0,.779.328,3.979,3.979,0,1,1,1.973,7.433h-4.473a.531.531,0,0,0,0,1.063h4.473a5.042,5.042,0,1,0,0-10.085Zm0,0" transform="translate(-75.51)" fill="#3a312a"/>
    <path id="Path_3379" data-name="Path 3379" d="M61.753,304.874a10.409,10.409,0,1,0-8.607,11.941A10.408,10.408,0,0,0,61.753,304.874Zm0,0" transform="translate(-33.484 -243.691)" fill="#f16c7a"/>
    <path id="Path_3380" data-name="Path 3380" d="M49.01,293.137a10.94,10.94,0,1,0,10.94,10.94A10.953,10.953,0,0,0,49.01,293.137Zm0,20.818a9.878,9.878,0,1,1,9.877-9.878A9.889,9.889,0,0,1,49.01,313.955Zm0,0" transform="translate(-31.017 -241.227)" fill="#3a312a"/>
    <path id="Path_3381" data-name="Path 3381" d="M55.457,144.544a10.409,10.409,0,1,0,5.633,13.6A10.409,10.409,0,0,0,55.457,144.544Zm0,0" transform="translate(-33.479 -118.293)" fill="#d7e057"/>
    <path id="Path_3382" data-name="Path 3382" d="M49.01,140.766a10.94,10.94,0,1,0,10.94,10.94A10.952,10.952,0,0,0,49.01,140.766Zm0,20.817a9.877,9.877,0,1,1,9.877-9.877A9.888,9.888,0,0,1,49.01,161.583Zm0,0" transform="translate(-31.017 -115.839)" fill="#3a312a"/>
    <path id="Path_3383" data-name="Path 3383" d="M79.017,179.784a.568.568,0,0,0-.136-.3.673.673,0,0,0-.258-.144c-.11-.037-.257-.094-.44-.174a6.484,6.484,0,0,1-.681-.355,6.379,6.379,0,0,1-.931-.695,4.031,4.031,0,0,0,.618-.8,5.262,5.262,0,0,0,.457-1.007,7,7,0,0,0,.284-1.2,9.284,9.284,0,0,0,.1-1.383,8.089,8.089,0,0,0-.335-2.463,4.413,4.413,0,0,0-.982-1.722,3.948,3.948,0,0,0-1.591-1.011,6.561,6.561,0,0,0-2.171-.33,6.078,6.078,0,0,0-2.289.4,4.41,4.41,0,0,0-1.654,1.138,4.85,4.85,0,0,0-1.008,1.8,7.857,7.857,0,0,0-.338,2.391,8.871,8.871,0,0,0,.318,2.526,4.373,4.373,0,0,0,.952,1.748,3.8,3.8,0,0,0,1.587,1.011,6.893,6.893,0,0,0,2.229.326,5.338,5.338,0,0,0,1.232-.131,5.128,5.128,0,0,0,.943-.309,6.7,6.7,0,0,0,1.011.944,8.673,8.673,0,0,0,1.07.694,6.342,6.342,0,0,0,.978.436,2.42,2.42,0,0,0,.732.152.288.288,0,0,0,.127-.029.282.282,0,0,0,.11-.131,1,1,0,0,0,.08-.288,3.2,3.2,0,0,0,.03-.49,3.259,3.259,0,0,0-.042-.6Zm-3.466-4.446a3.486,3.486,0,0,1-.478,1.226,2.463,2.463,0,0,1-.888.829,2.8,2.8,0,0,1-1.371.305,3.088,3.088,0,0,1-1.363-.266,2.1,2.1,0,0,1-.863-.775,3.462,3.462,0,0,1-.457-1.227A8.8,8.8,0,0,1,70,173.806a7.328,7.328,0,0,1,.139-1.451,3.409,3.409,0,0,1,.479-1.206,2.489,2.489,0,0,1,.888-.821,2.805,2.805,0,0,1,1.371-.3,2.972,2.972,0,0,1,1.354.275,2.2,2.2,0,0,1,.867.778,3.386,3.386,0,0,1,.461,1.206,8.217,8.217,0,0,1,.136,1.556,7.656,7.656,0,0,1-.14,1.5Zm0,0" transform="translate(-55.367 -138.411)" fill="#87796f"/>
    <path id="Path_3384" data-name="Path 3384" d="M77.072,177.211a1.063,1.063,0,0,0-.289-.587,1.211,1.211,0,0,0-.457-.264c-.1-.033-.232-.086-.4-.158a6.24,6.24,0,0,1-.624-.326,4.349,4.349,0,0,1-.439-.3,4.954,4.954,0,0,0,.315-.469,5.827,5.827,0,0,0,.5-1.107,7.513,7.513,0,0,0,.306-1.289,9.908,9.908,0,0,0,.1-1.463,8.649,8.649,0,0,0-.36-2.624,4.966,4.966,0,0,0-1.1-1.926,4.5,4.5,0,0,0-1.8-1.147,7.123,7.123,0,0,0-2.346-.36,6.646,6.646,0,0,0-2.487.436,4.96,4.96,0,0,0-1.85,1.275,5.385,5.385,0,0,0-1.119,2,8.432,8.432,0,0,0-.363,2.553A9.462,9.462,0,0,0,65,174.13a4.915,4.915,0,0,0,1.072,1.957,4.339,4.339,0,0,0,1.8,1.152,7.455,7.455,0,0,0,2.4.354,5.892,5.892,0,0,0,1.354-.145,6.75,6.75,0,0,0,.679-.2,7.052,7.052,0,0,0,.835.739,9.148,9.148,0,0,0,1.137.737,6.85,6.85,0,0,0,1.06.472,2.9,2.9,0,0,0,.9.18.813.813,0,0,0,.367-.086.794.794,0,0,0,.347-.369,1.509,1.509,0,0,0,.129-.441,4.529,4.529,0,0,0-.017-1.272Zm-1.029,1.082a3.084,3.084,0,0,1-.359-.1,5.849,5.849,0,0,1-.894-.4,8.16,8.16,0,0,1-1-.651,6.111,6.111,0,0,1-.93-.869.532.532,0,0,0-.4-.182.519.519,0,0,0-.221.048,4.635,4.635,0,0,1-.845.275,4.854,4.854,0,0,1-1.109.117,6.409,6.409,0,0,1-2.058-.3,3.277,3.277,0,0,1-1.369-.87,3.853,3.853,0,0,1-.833-1.538,8.4,8.4,0,0,1-.3-2.374,7.347,7.347,0,0,1,.314-2.229,4.324,4.324,0,0,1,.894-1.608,3.916,3.916,0,0,1,1.459-1,5.587,5.587,0,0,1,2.09-.359,6.063,6.063,0,0,1,1.995.3,3.447,3.447,0,0,1,1.381.876,3.91,3.91,0,0,1,.861,1.518,7.608,7.608,0,0,1,.309,2.3,8.8,8.8,0,0,1-.091,1.3,6.4,6.4,0,0,1-.261,1.106,4.775,4.775,0,0,1-.411.907,3.5,3.5,0,0,1-.536.7.531.531,0,0,0,.027.777,6.911,6.911,0,0,0,1.012.753,7.036,7.036,0,0,0,.738.384c.2.087.362.149.483.19l.032.012c0,.009,0,.021.008.035a2.682,2.682,0,0,1,.033.495,2.833,2.833,0,0,1-.019.383Zm-2.286-6.925a8.825,8.825,0,0,0-.145-1.657,3.907,3.907,0,0,0-.537-1.394A2.736,2.736,0,0,0,72,167.353a3.5,3.5,0,0,0-1.594-.333,3.336,3.336,0,0,0-1.629.371,3.016,3.016,0,0,0-1.075.994,3.959,3.959,0,0,0-.555,1.392,7.874,7.874,0,0,0-.15,1.556,9.379,9.379,0,0,0,.145,1.723,4,4,0,0,0,.53,1.413,2.635,2.635,0,0,0,1.078.966,3.611,3.611,0,0,0,1.6.321,3.344,3.344,0,0,0,1.628-.371,2.99,2.99,0,0,0,1.077-1.006,4.02,4.02,0,0,0,.553-1.411A8.174,8.174,0,0,0,73.757,171.368Zm-1.192,1.395a2.978,2.978,0,0,1-.4,1.042,1.915,1.915,0,0,1-.7.652,2.3,2.3,0,0,1-1.113.239,2.571,2.571,0,0,1-1.128-.212,1.567,1.567,0,0,1-.65-.582,2.966,2.966,0,0,1-.383-1.041,8.347,8.347,0,0,1-.126-1.527,6.79,6.79,0,0,1,.129-1.345,2.893,2.893,0,0,1,.4-1.02,1.939,1.939,0,0,1,.7-.648,2.3,2.3,0,0,1,1.114-.238,2.48,2.48,0,0,1,1.113.217,1.663,1.663,0,0,1,.662.594,2.869,2.869,0,0,1,.385,1.018,7.737,7.737,0,0,1,.126,1.456,7.136,7.136,0,0,1-.129,1.395Zm0,0" transform="translate(-52.901 -135.939)" fill="#3a312a"/>
    <path id="Path_3385" data-name="Path 3385" d="M81.333,330.137l-3.385-9.706a.839.839,0,0,0-.123-.255.445.445,0,0,0-.237-.14,2.158,2.158,0,0,0-.461-.059q-.3-.014-.8-.013c-.288,0-.519,0-.694.013a1.72,1.72,0,0,0-.41.059.418.418,0,0,0-.216.136.841.841,0,0,0-.118.233l-3.376,9.715a2.788,2.788,0,0,0-.127.474.329.329,0,0,0,.059.275.468.468,0,0,0,.3.122,5.7,5.7,0,0,0,.609.026c.243,0,.439-.006.589-.017a1.277,1.277,0,0,0,.347-.064.362.362,0,0,0,.178-.127.7.7,0,0,0,.089-.2l.694-2.141h4.112l.736,2.2a.6.6,0,0,0,.085.178.334.334,0,0,0,.178.105,1.629,1.629,0,0,0,.368.051q.241.012.672.012c.276,0,.494-.007.652-.021a.549.549,0,0,0,.33-.111.29.29,0,0,0,.068-.266,2.913,2.913,0,0,0-.127-.482Zm-6.584-3.376,1.549-4.654h.009l1.548,4.654Zm0,0" transform="translate(-58.431 -263.304)" fill="#87796f"/>
    <g id="Group_1589" data-name="Group 1589" transform="translate(12.42 28.954)">
      <path id="Path_3386" data-name="Path 3386" d="M79.515,328.079a3.452,3.452,0,0,0-.149-.576l0-.007-3.38-9.691a1.344,1.344,0,0,0-.209-.419.962.962,0,0,0-.513-.326,2.618,2.618,0,0,0-.583-.078q-.3-.013-.818-.013c-.3,0-.537,0-.72.013a2.183,2.183,0,0,0-.544.084.936.936,0,0,0-.479.32,1.393,1.393,0,0,0-.2.38l-3.377,9.717a3.147,3.147,0,0,0-.15.571.841.841,0,0,0,.184.7.967.967,0,0,0,.645.3,6.079,6.079,0,0,0,.67.029q.388,0,.629-.018a1.77,1.77,0,0,0,.495-.1.88.88,0,0,0,.428-.324,1.182,1.182,0,0,0,.156-.335l.575-1.774h3.344l.611,1.824a1.1,1.1,0,0,0,.168.342.845.845,0,0,0,.449.295,2.082,2.082,0,0,0,.493.073c.168.009.4.014.7.014s.523-.008.7-.023a1.036,1.036,0,0,0,.65-.255.81.81,0,0,0,.227-.726Zm-1.576-.059c-.275,0-.49,0-.645-.012-.075,0-.13-.01-.168-.015l-.722-2.158a.531.531,0,0,0-.5-.362H71.787a.531.531,0,0,0-.506.367l-.7,2.146a1.221,1.221,0,0,1-.147.018q-.21.016-.549.015c-.158,0-.293,0-.4-.01.015-.05.033-.11.057-.181l3.376-9.712a.4.4,0,0,1,.018-.045,1.366,1.366,0,0,1,.251-.029c.169-.008.392-.012.669-.012.323,0,.581,0,.773.012a1.79,1.79,0,0,1,.32.036c.006.015.014.036.022.062l3.383,9.7c.022.064.039.12.053.167-.129.007-.286.01-.472.01Zm-3.6-8.546a.542.542,0,0,0-.513-.364.532.532,0,0,0-.5.364l-1.549,4.654a.532.532,0,0,0,.5.7h3.106a.532.532,0,0,0,.5-.7Zm-1.325,4.29.816-2.454.816,2.454Zm0,0" transform="translate(-68.381 -289.792)" fill="#3a312a"/>
      <path id="Path_3387" data-name="Path 3387" d="M203.531,163.5H186.078a.531.531,0,0,0,0,1.063h17.453a.531.531,0,0,0,0-1.062Zm0,0" transform="translate(-164.798 -163.504)" fill="#3a312a"/>
      <path id="Path_3388" data-name="Path 3388" d="M203.531,187.879H186.078a.531.531,0,0,0,0,1.063h17.453a.531.531,0,0,0,0-1.062Zm0,0" transform="translate(-164.798 -183.563)" fill="#3a312a"/>
      <path id="Path_3389" data-name="Path 3389" d="M203.531,212.254H186.078a.531.531,0,0,0,0,1.063h17.453a.531.531,0,0,0,0-1.062Zm0,0" transform="translate(-164.798 -203.621)" fill="#3a312a"/>
      <path id="Path_3390" data-name="Path 3390" d="M203.531,236.629H186.078a.531.531,0,0,0,0,1.063h17.453a.531.531,0,0,0,0-1.062Zm0,0" transform="translate(-164.798 -223.68)" fill="#3a312a"/>
      <path id="Path_3391" data-name="Path 3391" d="M203.531,315.066H186.078a.531.531,0,0,0,0,1.063h17.453a.531.531,0,0,0,0-1.062Zm0,0" transform="translate(-164.798 -288.227)" fill="#3a312a"/>
      <path id="Path_3392" data-name="Path 3392" d="M203.531,339.441H186.078a.531.531,0,0,0,0,1.063h17.453a.531.531,0,0,0,0-1.062Zm0,0" transform="translate(-164.798 -308.285)" fill="#3a312a"/>
      <path id="Path_3393" data-name="Path 3393" d="M203.531,363.816H186.078a.531.531,0,0,0,0,1.063h17.453a.531.531,0,0,0,0-1.062Zm0,0" transform="translate(-164.798 -328.344)" fill="#3a312a"/>
      <path id="Path_3394" data-name="Path 3394" d="M203.531,388.191H186.078a.531.531,0,0,0,0,1.063h17.453a.531.531,0,0,0,0-1.062Zm0,0" transform="translate(-164.798 -348.402)" fill="#3a312a"/>
    </g>
    <path id="Path_3395" data-name="Path 3395" d="M260.645,195.5l24.922-44.419,5.873,3.295L266.518,198.8Zm0,0" transform="translate(-214.178 -124.328)" fill="#8ac6dd"/>
    <path id="Path_3396" data-name="Path 3396" d="M289.487,151.766a.53.53,0,0,0-.252-.32l-5.873-3.3a.531.531,0,0,0-.724.2l-24.923,44.419a.532.532,0,0,0,.2.724l5.874,3.295a.523.523,0,0,0,.259.068.532.532,0,0,0,.464-.272l24.923-44.419A.529.529,0,0,0,289.487,151.766Zm-25.638,43.84L258.9,192.83l24.4-43.493,4.947,2.775Zm0,0" transform="translate(-211.711 -121.859)" fill="#3a312a"/>
    <path id="Path_3397" data-name="Path 3397" d="M296.324,236.572l12.285-21.9,5.873,3.295-12.285,21.9Zm0,0" transform="translate(-243.538 -176.66)" fill="#d7e057"/>
    <path id="Path_3398" data-name="Path 3398" d="M312.532,215.363a.531.531,0,0,0-.251-.32l-5.874-3.3a.531.531,0,0,0-.723.2l-12.286,21.9a.531.531,0,0,0,.2.723l5.873,3.3a.528.528,0,0,0,.259.068.535.535,0,0,0,.144-.02.526.526,0,0,0,.32-.251l12.286-21.9a.531.531,0,0,0,.048-.4Zm-13,21.317-4.947-2.775,11.766-20.97,4.947,2.775Zm0,0" transform="translate(-241.075 -174.195)" fill="#3a312a"/>
    <path id="Path_3399" data-name="Path 3399" d="M407.162,129.862a3.366,3.366,0,0,0-4.584,1.289l-1.186,2.115,5.873,3.295,1.186-2.115A3.366,3.366,0,0,0,407.162,129.862Zm0,0" transform="translate(-330 -106.51)" fill="#f16c7a"/>
    <path id="Path_3400" data-name="Path 3400" d="M406.8,129.27a3.9,3.9,0,0,0-7.153-.852l-1.186,2.115a.531.531,0,0,0,.2.724l5.873,3.295a.532.532,0,0,0,.26.068.539.539,0,0,0,.144-.02.532.532,0,0,0,.32-.252l1.186-2.115A3.876,3.876,0,0,0,406.8,129.27Zm-1.28,2.443-.926,1.651-4.947-2.775.927-1.651a2.836,2.836,0,0,1,4.946,2.775Zm0,0" transform="translate(-327.532 -104.037)" fill="#3a312a"/>
    <path id="Path_3401" data-name="Path 3401" d="M259.37,401.922l-.274,5.746a.889.889,0,0,0,1.386.778l4.761-3.228Zm0,0" transform="translate(-212.902 -330.748)" fill="#87796f"/>
    <path id="Path_3402" data-name="Path 3402" d="M263.035,402.285l-5.873-3.3a.531.531,0,0,0-.791.439l-.274,5.746a1.419,1.419,0,0,0,2.215,1.243l4.761-3.228a.532.532,0,0,0-.039-.9Zm-5.319,3.252a.357.357,0,0,1-.558-.313l.233-4.887,4.374,2.454Zm0,0" transform="translate(-210.434 -328.278)" fill="#3a312a"/>
    <path id="Path_3403" data-name="Path 3403" d="M390.539,166.761a.531.531,0,0,0-.519.926,3.263,3.263,0,0,1,1.247,4.437l-10.447,18.62a.531.531,0,1,0,.926.52l10.447-18.62a4.325,4.325,0,0,0-1.654-5.883Zm0,0" transform="translate(-313.015 -137.174)" fill="#3a312a"/>
    <path id="Path_3404" data-name="Path 3404" d="M234.992,158.342h4.017l1.823-3.255h-4.013Zm-1.218,2.171a.5.5,0,0,0-.042.1.03.03,0,0,1,0,.015.94.94,0,0,0-.018.106s0,.011,0,.015l-.273,5.744a1.415,1.415,0,0,0,2.214,1.243l1.8-1.218v-.025l.276-5.744v-.015a.522.522,0,0,1,.021-.106c0-.008,0-.011,0-.015a.5.5,0,0,1,.042-.1l.62-1.109H234.4ZM247.2,162.72a5.822,5.822,0,0,1-5.815,5.815H245.4a5.824,5.824,0,0,0,5.815-5.815v-10.2l-4.016,7.158Zm0-53.841v27.71l-.96,1.714-3.977,7.087h.677a.531.531,0,0,1,0,1.063h-1.276l-1.569,2.8-.255.457h3.1a.531.531,0,0,1,0,1.063h-3.7l-1.823,3.255h4.016l2.677-4.774,6.141-10.947.964-1.714v-27.71Zm0,0" transform="translate(-191.784 -89.598)" fill="#ccae8b"/>
    <path id="Path_3405" data-name="Path 3405" d="M282.337,52.922H278.32a5.821,5.821,0,0,1,5.815,5.815v3.031h4.016V58.737A5.823,5.823,0,0,0,282.337,52.922Zm0,0" transform="translate(-228.723 -43.55)" fill="#6b5b51"/>
  </g>
</svg>
