<svg xmlns="http://www.w3.org/2000/svg" width="517.704" height="372.529" viewBox="0 0 517.704 372.529">
  <g id="Group_35179" data-name="Group 35179" transform="translate(-94.142 -57.977)">
    <path id="Path_96475" data-name="Path 96475" d="M364.41,81.706c88.27,0,143.368,66.129,131.024,151.546a73.079,73.079,0,0,1,44.021,49.84,61.607,61.607,0,1,1-36.548,116.63H171.147c-36.373-29.891-55.8-81.687-47.288-140.589,10.777-74.6,63.071-137.8,125.868-159.534-50.268,28.36-90.045,82.5-101.712,145.3C177.451,153.922,272.169,81.706,364.41,81.706Z" transform="translate(-5.57 -4.766)" fill="#f1f2ce" fill-rule="evenodd"/>
    <path id="Path_96476" data-name="Path 96476" d="M376.509,173.551h28.649a51.956,51.956,0,0,1,51.829,51.829V355.934H324.68V225.38A51.955,51.955,0,0,1,376.509,173.551Z" transform="translate(-46.307 -23.215)" fill="#dddeb4" fill-rule="evenodd"/>
    <path id="Path_96477" data-name="Path 96477" d="M378.948,185.693H407.6a42.251,42.251,0,0,1,42.127,42.126V358.373h-112.9V227.819A42.251,42.251,0,0,1,378.948,185.693Z" transform="translate(-48.746 -25.654)" fill="#f1f2ce" fill-rule="evenodd"/>
    <path id="Path_96478" data-name="Path 96478" d="M348.962,351.108H372.95V287.1H348.962v64.011Zm23.988-76.638v-32.03H348.962v32.03Zm0-44.656V198.961a32.573,32.573,0,0,0-23.983,30.853Zm9.3,121.294H409.18V287.1H382.247v64.011Zm26.933-76.638v-32.03H382.247v32.03Zm0-44.656V197.833H382.247v31.981Zm9.3,121.294H442.46V287.1H418.478v64.011Zm23.982-76.638v-32.03H418.478v32.03Zm0-44.656a32.573,32.573,0,0,0-23.979-30.853v30.853Z" transform="translate(-51.185 -28.092)" fill="#dddeb4" fill-rule="evenodd"/>
    <path id="Path_96490" data-name="Path 96490" d="M584.057,203.448a3.917,3.917,0,1,1-3.808,3.559A3.7,3.7,0,0,1,584.057,203.448Z" transform="translate(-97.639 -29.217)" fill="#754040" fill-rule="evenodd"/>
    <path id="Path_96506" data-name="Path 96506" d="M365.359,285.338a7.9,7.9,0,0,0-7.512,6.469,5.366,5.366,0,0,0,5.425,6.468,7.9,7.9,0,0,0,7.512-6.468A5.366,5.366,0,0,0,365.359,285.338Z" transform="translate(-52.952 -45.669)" fill="#f5844c" fill-rule="evenodd"/>
    <path id="Path_96507" data-name="Path 96507" d="M284.757,301.59l-4.951.266s-4.821,5.74-22.127,6.658a3.465,3.465,0,0,0-.368.043,26.169,26.169,0,0,0-14.107-1.4h0a23.7,23.7,0,0,0-13.073,6.881,3.153,3.153,0,0,0-.627.121c-16.574,5.067-23.069,1.329-23.069,1.329l-4.742,1.446c14.289,11.016,2.2,26.672,2.2,26.672,16.139-3.6,18.172,9.137,18.418,13.1l1.041,39.427,60.556-10.265-6.885-38.962,0-.013-.314-1.777c-.541-4.431-.346-15.692,15.12-17.715C291.83,327.4,275.109,316.836,284.757,301.59Z" transform="translate(-21.603 -48.934)" fill="#4176ab" fill-rule="evenodd"/>
    <path id="Path_96508" data-name="Path 96508" d="M305.078,297.786a14.626,14.626,0,1,0,16.949,11.859A14.628,14.628,0,0,0,305.078,297.786Z" transform="translate(-39.943 -48.124)" fill="#7ab5f0" fill-rule="evenodd"/>
    <path id="Path_96509" data-name="Path 96509" d="M346.236,193.908a10.294,10.294,0,0,0-18.621,8.783c.068.145,24.579,50.351-22,77.014a10.293,10.293,0,0,0,10.211,17.875C379.163,261.326,346.328,194.1,346.236,193.908Z" transform="translate(-41.435 -26.118)" fill="#f5844c" fill-rule="evenodd"/>
    <path id="Path_96510" data-name="Path 96510" d="M333.637,188.682a10.3,10.3,0,0,0-6.022,14.145c.07.145,24.58,50.353-22,77.014a10.3,10.3,0,0,0-1.918,16.467,10.363,10.363,0,0,0,1.815-.817c63.338-36.255,30.5-103.48,30.411-103.673A10.283,10.283,0,0,0,333.637,188.682Z" transform="translate(-41.435 -26.254)" fill="#ff935f" fill-rule="evenodd"/>
    <path id="Path_96511" data-name="Path 96511" d="M338.527,189.619a10.3,10.3,0,0,0-4.325,13.4,71.484,71.484,0,0,1,4.767,14.513l.272-.045c8.224-1.455,12.636-9.109,9.854-17.1A18.445,18.445,0,0,0,338.527,189.619Z" transform="translate(-48.022 -26.442)" fill="#ab564e" fill-rule="evenodd"/>
    <path id="Path_96512" data-name="Path 96512" d="M466.112,354.7a13.7,13.7,0,0,0-17.416,7.84,13.06,13.06,0,0,0,7.3,17.243c.167.065,57.65,22.35,130.405,16.639a13.841,13.841,0,0,0,12.68-14.364,12.875,12.875,0,0,0-13.947-12.3C518.459,375,466.263,354.76,466.112,354.7Z" transform="translate(-71.017 -59.43)" fill="#ff8f57" fill-rule="evenodd"/>
    <path id="Path_96513" data-name="Path 96513" d="M466.112,354.7a13.7,13.7,0,0,0-17.416,7.84,13.06,13.06,0,0,0,7.3,17.243c.148.057,44.534,17.261,104.647,17.567-4.233-7.716-14.032-13.9-31.483-15.346-34.1-2.822-39.772-14.887-40.528-20.531A207.554,207.554,0,0,1,466.112,354.7Z" transform="translate(-71.017 -59.43)" fill="#f5844c" fill-rule="evenodd"/>
    <path id="Path_96514" data-name="Path 96514" d="M590.766,402.184c7.8,0,15.853-.285,24.107-.933a13.868,13.868,0,0,0,12.434-11.078c-4.261-7.227-12.255-12.292-20.614-12.292-11.187,0-18.792,9.069-16.986,20.257A22.171,22.171,0,0,0,590.766,402.184Z" transform="translate(-99.489 -64.258)" fill="#ab564e" fill-rule="evenodd"/>
    <path id="Path_96515" data-name="Path 96515" d="M265.046,242.175h0a7.022,7.022,0,0,0-6.857,7.141l.324,16a7.022,7.022,0,0,0,7.141,6.857h0a7.02,7.02,0,0,0,6.856-7.141l-.325-16A7.019,7.019,0,0,0,265.046,242.175Z" transform="translate(-32.951 -36.999)" fill="#79333d" fill-rule="evenodd"/>
    <path id="Path_96516" data-name="Path 96516" d="M313.667,366.312a13.7,13.7,0,0,1,17.417,7.839,13.063,13.063,0,0,1-7.3,17.245c-.167.064-57.65,22.349-130.406,16.637A13.839,13.839,0,0,1,180.7,393.67a12.874,12.874,0,0,1,13.947-12.3C261.32,386.607,313.514,366.369,313.667,366.312Z" transform="translate(-17.383 -61.762)" fill="#ffa273" fill-rule="evenodd"/>
    <path id="Path_96517" data-name="Path 96517" d="M323.333,366.312a13.7,13.7,0,0,1,17.416,7.84,13.062,13.062,0,0,1-7.3,17.244c-.148.055-44.534,17.261-104.648,17.567,4.234-7.716,14.033-13.9,31.483-15.347,34.1-2.82,39.771-14.887,40.526-20.531A208.128,208.128,0,0,0,323.333,366.312Z" transform="translate(-27.048 -61.762)" fill="#f5844c" fill-rule="evenodd"/>
    <path id="Path_96518" data-name="Path 96518" d="M217.549,413.794c-7.8,0-15.853-.286-24.107-.933a13.866,13.866,0,0,1-12.434-11.077c4.261-7.228,12.255-12.293,20.614-12.293,11.187,0,18.792,9.069,16.986,20.257A22.124,22.124,0,0,1,217.549,413.794Z" transform="translate(-17.449 -66.59)" fill="#ab564e" fill-rule="evenodd"/>
    <path id="Path_96519" data-name="Path 96519" d="M250.2,308.46h0a26.179,26.179,0,0,1,14.1,1.392l.078.407a14.179,14.179,0,0,1-27.876,5.2A26.186,26.186,0,0,1,250.2,308.46Z" transform="translate(-28.594 -50.233)" fill="#7ab5f0" fill-rule="evenodd"/>
    <path id="Path_96520" data-name="Path 96520" d="M377.2,365.122h0a17.267,17.267,0,0,0-21.713-11.02l-31.451,10.276,10.7,32.734,31.451-10.276A17.268,17.268,0,0,0,377.2,365.122Z" transform="translate(-46.177 -59.311)" fill="#376899" fill-rule="evenodd"/>
    <path id="Path_96521" data-name="Path 96521" d="M384.4,352.618h51.96a28.1,28.1,0,0,1,28.019,28.019v28.021h-108V380.637A28.1,28.1,0,0,1,384.4,352.618Z" transform="translate(-52.675 -59.183)" fill="#4176ab" fill-rule="evenodd"/>
    <path id="Path_96522" data-name="Path 96522" d="M439.789,357.094v0A17.265,17.265,0,0,1,461.5,346.075l31.452,10.275L482.26,389.084l-31.452-10.276A17.268,17.268,0,0,1,439.789,357.094Z" transform="translate(-69.258 -57.699)" fill="#4176ab" fill-rule="evenodd"/>
    <path id="Path_96523" data-name="Path 96523" d="M387.371,352.618h45.2a22.6,22.6,0,1,1-45.2,0Z" transform="translate(-58.9 -59.183)" fill="#7ab5f0" fill-rule="evenodd"/>
    <path id="Path_96524" data-name="Path 96524" d="M227.375,218.785l.014.655a7.248,7.248,0,0,0,7.372,7.08h0a7.25,7.25,0,0,0,7.081-7.373l-.014-.655a7.247,7.247,0,0,0-7.373-7.08h0A7.248,7.248,0,0,0,227.375,218.785Z" transform="translate(-26.762 -30.82)" fill="#79333d" fill-rule="evenodd"/>
    <path id="Path_96525" data-name="Path 96525" d="M257.84,227.827l.068,3.363a2.606,2.606,0,0,0,2.652,2.545h0a2.606,2.606,0,0,0,2.544-2.652l-.068-3.363a2.606,2.606,0,0,0-2.651-2.544h0A2.6,2.6,0,0,0,257.84,227.827Z" transform="translate(-32.881 -33.584)" fill="#79333d" fill-rule="evenodd"/>
    <path id="Path_96526" data-name="Path 96526" d="M264.819,230.21l-3.363.068a2.606,2.606,0,0,0-2.546,2.65v0a2.606,2.606,0,0,0,2.651,2.545l3.364-.068a2.606,2.606,0,0,0,2.544-2.652h0A2.605,2.605,0,0,0,264.819,230.21Z" transform="translate(-33.096 -34.596)" fill="#79333d" fill-rule="evenodd"/>
    <path id="Path_96527" data-name="Path 96527" d="M227.04,232.857l-22.5.456a9.169,9.169,0,0,0-8.955,9.326v0a9.168,9.168,0,0,0,9.327,8.954l22.5-.455a9.169,9.169,0,0,0,8.957-9.327v0A9.167,9.167,0,0,0,227.04,232.857Z" transform="translate(-20.375 -35.127)" fill="#612831" fill-rule="evenodd"/>
    <path id="Path_96528" data-name="Path 96528" d="M259.747,280.868l-20.748.42-5.7.115.253,12.457.686-.014a5.029,5.029,0,0,1,5.118,4.913l.175,8.624.01.5h.012a10.161,10.161,0,0,0,10.31,9.416l.495-.01a10.16,10.16,0,0,0,9.919-9.827h.013l-.01-.5-.2-10.127L260,293.323Z" transform="translate(-27.951 -44.771)" fill="#ff935f" fill-rule="evenodd"/>
    <path id="Path_96529" data-name="Path 96529" d="M250.854,281.092,239,281.333l-5.7.116.253,12.456.685-.013a5.03,5.03,0,0,1,5.118,4.913l.034,1.68A26.66,26.66,0,0,0,250.854,281.092Z" transform="translate(-27.952 -44.816)" fill="#ab564e" fill-rule="evenodd"/>
    <path id="Path_96530" data-name="Path 96530" d="M226.625,285.12l14.106-.287a12.5,12.5,0,0,0,12.2-12.709l-.706-34.782-39.586.8a13.579,13.579,0,0,0-13.261,13.811l.144,7.143A26.646,26.646,0,0,0,226.625,285.12Z" transform="translate(-21.138 -36.028)" fill="#ff935f" fill-rule="evenodd"/>
    <path id="Path_96531" data-name="Path 96531" d="M212.641,238.308a13.579,13.579,0,0,0-13.26,13.811l.145,7.143a26.644,26.644,0,0,0,27.1,26.022l5.876-.12a27.719,27.719,0,0,1-21.047-26.256l-.15-7.423a14.124,14.124,0,0,1,8.8-13.329Z" transform="translate(-21.138 -36.192)" fill="#ffa273" fill-rule="evenodd"/>
    <path id="Path_96532" data-name="Path 96532" d="M253.676,258.46a5.836,5.836,0,1,0,5.954,5.716A5.835,5.835,0,0,0,253.676,258.46Z" transform="translate(-30.896 -40.27)" fill="#ab564e" fill-rule="evenodd"/>
    <path id="Path_96533" data-name="Path 96533" d="M227.949,287.91l4.124-.084a2.847,2.847,0,0,0,2.771-3.7l-2.536-10.581a2.142,2.142,0,0,0-2.015-1.586l-9.945.2a3.093,3.093,0,0,0-3.012,4.018l1,4.159A10.233,10.233,0,0,0,227.949,287.91Z" transform="translate(-24.723 -42.982)" fill="#e24757" fill-rule="evenodd"/>
    <path id="Path_96534" data-name="Path 96534" d="M233.413,275.521l-.472-1.975a2.143,2.143,0,0,0-2.015-1.586l-9.945.2a3.817,3.817,0,0,0-.6.061,10.022,10.022,0,0,0,7.6,3.68l4.124-.083A3.187,3.187,0,0,0,233.413,275.521Z" transform="translate(-25.356 -42.982)" fill="#fff" fill-rule="evenodd"/>
    <path id="Path_96535" data-name="Path 96535" d="M228.371,288.059l3.849-.078a2.657,2.657,0,0,0,2.585-3.45l-.739-3.083-3.7.076a5.564,5.564,0,0,0-5.716,5.7A8.375,8.375,0,0,0,228.371,288.059Z" transform="translate(-26.214 -44.888)" fill="#ff605c" fill-rule="evenodd"/>
    <path id="Path_96536" data-name="Path 96536" d="M206.637,256.4l-1.458.03a1.29,1.29,0,0,0-1.259,1.313l.045,2.2a1.332,1.332,0,0,1,1.223-.853l1.5-.03a2.835,2.835,0,0,1,2.735,1.856,1.384,1.384,0,0,0,.039-.356l-.03-1.476A2.751,2.751,0,0,0,206.637,256.4Z" transform="translate(-22.051 -39.856)" fill="#ab564e" fill-rule="evenodd"/>
    <path id="Path_96537" data-name="Path 96537" d="M238.479,222.837l-31.543.64a9.169,9.169,0,0,0-8.954,9.327h0a9.168,9.168,0,0,0,9.325,8.955l17.3-.351a8.077,8.077,0,0,1,8.214,7.89l.009.423a4.911,4.911,0,0,0,5,4.8h0a4.912,4.912,0,0,0,4.8-5l-.187-9.224a9.173,9.173,0,0,0,5.362-8.506h0A9.169,9.169,0,0,0,238.479,222.837Z" transform="translate(-20.858 -33.114)" fill="#79333d" fill-rule="evenodd"/>
    <path id="Path_96538" data-name="Path 96538" d="M259.826,234.887h0a7.021,7.021,0,0,0-6.857,7.14l.4,19.48a7.019,7.019,0,0,0,7.141,6.856h0a7.019,7.019,0,0,0,6.855-7.14l-.395-19.48A7.02,7.02,0,0,0,259.826,234.887Z" transform="translate(-31.903 -35.535)" fill="#79333d" fill-rule="evenodd"/>
    <path id="Path_96539" data-name="Path 96539" d="M259.826,234.887h0a7.021,7.021,0,0,0-6.857,7.14l.054,2.626a7.021,7.021,0,0,0,7.14,6.857h0a7.022,7.022,0,0,0,6.857-7.141l-.054-2.625A7.02,7.02,0,0,0,259.826,234.887Z" transform="translate(-31.903 -35.535)" fill="#8c434e" fill-rule="evenodd"/>
    <path id="Path_96540" data-name="Path 96540" d="M201.382,215.256l-2.8,9.36c-1.91,6.394,2.26,11.508,9.268,11.365h0c7.007-.141,14.3-5.488,16.21-11.882l2.8-9.36c1.911-6.394-2.259-11.508-9.265-11.366h0C210.585,203.516,203.291,208.862,201.382,215.256Z" transform="translate(-20.886 -29.205)" fill="#79333d" fill-rule="evenodd"/>
    <path id="Path_96541" data-name="Path 96541" d="M207.177,214.14l-3.443,11.528c-.876,2.932,1.037,5.278,4.251,5.214h0a8.361,8.361,0,0,0,7.436-5.451l3.443-11.528c.875-2.933-1.036-5.277-4.251-5.213h0A8.359,8.359,0,0,0,207.177,214.14Z" transform="translate(-21.97 -30.273)" fill="#8c434e" fill-rule="evenodd"/>
    <path id="Path_96542" data-name="Path 96542" d="M251.791,256.547a5.837,5.837,0,1,0,5.954,5.717A5.838,5.838,0,0,0,251.791,256.547Z" transform="translate(-30.518 -39.886)" fill="#ff935f" fill-rule="evenodd"/>
    <path id="Path_96543" data-name="Path 96543" d="M254.452,260.5h0a.813.813,0,0,0-1.146.023l-1.971,2.052-.014.015h0a.814.814,0,0,0,.024,1.147h0l.015.014,2.051,1.971a.814.814,0,0,0,1.147-.023l0,0a.813.813,0,0,0-.024-1.146l-1.482-1.423,1.424-1.482A.813.813,0,0,0,254.452,260.5Z" transform="translate(-31.526 -40.635)" fill="#ab564e" fill-rule="evenodd"/>
    <path id="Path_96544" data-name="Path 96544" d="M229.612,255.931l-1.457.03a1.29,1.29,0,0,0-1.26,1.312l.045,2.2a1.33,1.33,0,0,1,1.223-.852l1.5-.031a2.833,2.833,0,0,1,2.735,1.856,1.39,1.39,0,0,0,.038-.357l-.03-1.475A2.75,2.75,0,0,0,229.612,255.931Z" transform="translate(-26.665 -39.762)" fill="#ab564e" fill-rule="evenodd"/>
    <path id="Path_96545" data-name="Path 96545" d="M223.731,232.836h0a7.022,7.022,0,0,0,7.141,6.857l2.032-.042a7.02,7.02,0,0,0,6.857-7.14h0a7.02,7.02,0,0,0-7.14-6.857l-2.033.042A7.02,7.02,0,0,0,223.731,232.836Z" transform="translate(-26.03 -33.68)" fill="#8c434e" fill-rule="evenodd"/>
    <path id="Path_96546" data-name="Path 96546" d="M219.835,241.073h0a2.451,2.451,0,0,0,2.493,2.395l.711-.014a2.451,2.451,0,0,0,2.394-2.493v0a2.45,2.45,0,0,0-2.493-2.394l-.711.014A2.45,2.45,0,0,0,219.835,241.073Z" transform="translate(-25.247 -36.274)" fill="#8c434e" fill-rule="evenodd"/>
    <path id="Path_96547" data-name="Path 96547" d="M245.158,228.758v0a2.085,2.085,0,0,0,2.123,2.039l.607-.012a2.089,2.089,0,0,0,2.039-2.124v0a2.088,2.088,0,0,0-2.125-2.039l-.607.012A2.087,2.087,0,0,0,245.158,228.758Z" transform="translate(-30.334 -33.875)" fill="#8c434e" fill-rule="evenodd"/>
    <path id="Rectangle_2735" data-name="Rectangle 2735" d="M7.758,0h0a7.758,7.758,0,0,1,7.758,7.758V18.966a7.758,7.758,0,0,1-7.758,7.758h0A7.758,7.758,0,0,1,0,18.966V7.758A7.758,7.758,0,0,1,7.758,0Z" transform="translate(355.81 241.633)" fill="#ffbf53"/>
    <path id="Path_96548" data-name="Path 96548" d="M421.984,253.129v5.606a4.344,4.344,0,0,0,4.331,4.331h0a4.344,4.344,0,0,0,4.331-4.331v-5.606a4.344,4.344,0,0,0-4.331-4.331h0A4.344,4.344,0,0,0,421.984,253.129Z" transform="translate(-65.852 -38.329)" fill="#ffbf53" fill-rule="evenodd"/>
    <path id="Path_96549" data-name="Path 96549" d="M433.531,257.365h-5.605a4.344,4.344,0,0,0-4.332,4.331h0a4.344,4.344,0,0,0,4.332,4.331h5.605a4.344,4.344,0,0,0,4.331-4.331h0A4.344,4.344,0,0,0,433.531,257.365Z" transform="translate(-66.176 -40.05)" fill="#ffbf53" fill-rule="evenodd"/>
    <path id="Path_96550" data-name="Path 96550" d="M385.62,263.385H360.674a10.163,10.163,0,0,0-10.135,10.133h0a10.164,10.164,0,0,0,10.135,10.133H385.62a10.163,10.163,0,0,0,10.134-10.133h0A10.162,10.162,0,0,0,385.62,263.385Z" transform="translate(-51.501 -41.259)" fill="#ffbf53" fill-rule="evenodd"/>
    <path id="Path_96551" data-name="Path 96551" d="M425.464,314.562H387.427V328.37h.76a5.576,5.576,0,0,1,5.56,5.56v13.147h.071c1.733,17.354,29.84,17.354,31.574,0h.071V314.562Z" transform="translate(-58.911 -51.539)" fill="#ff8f57" fill-rule="evenodd"/>
    <path id="Path_96552" data-name="Path 96552" d="M431.086,343.247V317.856H415.414v7.117C415.414,336.682,421.724,341.4,431.086,343.247Z" transform="translate(-64.533 -52.201)" fill="#f5844c" fill-rule="evenodd"/>
    <path id="Path_96553" data-name="Path 96553" d="M406.89,314.562H387.427V328.37h.76a5.577,5.577,0,0,1,5.561,5.56v1.863A29.551,29.551,0,0,0,406.89,314.562Z" transform="translate(-58.911 -51.539)" fill="#ab564e" fill-rule="evenodd"/>
    <path id="Path_96554" data-name="Path 96554" d="M390.779,319.077h15.635a13.9,13.9,0,0,0,13.809-13.914v-38.85H376.34a15.108,15.108,0,0,0-15.005,15.119v19.694C361.335,317.442,374.585,319.077,390.779,319.077Z" transform="translate(-53.67 -41.848)" fill="#ff8f57" fill-rule="evenodd"/>
    <path id="Path_96555" data-name="Path 96555" d="M381.193,266.313H376.34a15.107,15.107,0,0,0-15.005,15.119v19.694c0,14.538,10.521,17.42,24.269,17.875-8.221-1.9-13.7-6.521-13.7-17.491V280.92A15.886,15.886,0,0,1,381.193,266.313Z" transform="translate(-53.67 -41.848)" fill="#ffa273" fill-rule="evenodd"/>
    <path id="Path_96556" data-name="Path 96556" d="M427.855,290.966a6.469,6.469,0,1,0,6.469,6.468A6.469,6.469,0,0,0,427.855,290.966Z" transform="translate(-65.732 -46.8)" fill="#ab564e" fill-rule="evenodd"/>
    <path id="Path_96557" data-name="Path 96557" d="M405.71,249.862H358.1a10.163,10.163,0,0,0-10.132,10.132v0A10.162,10.162,0,0,0,358.1,270.129h31.829a8.951,8.951,0,0,1,8.924,8.927v.469a5.445,5.445,0,0,0,5.429,5.429h0a5.445,5.445,0,0,0,5.43-5.429V269.3a10.168,10.168,0,0,0,6.133-9.3v0A10.163,10.163,0,0,0,405.71,249.862Z" transform="translate(-50.984 -38.543)" fill="#ffd87d" fill-rule="evenodd"/>
    <path id="Rectangle_2736" data-name="Rectangle 2736" d="M7.758,0h0a7.758,7.758,0,0,1,7.758,7.758V21.114a7.757,7.757,0,0,1-7.757,7.757h0A7.757,7.757,0,0,1,0,21.114V7.758A7.758,7.758,0,0,1,7.758,0Z" transform="translate(355.33 222.22)" fill="#ffbf53"/>
    <path id="Path_96558" data-name="Path 96558" d="M395.159,239.452H372a10.162,10.162,0,0,0-10.134,10.133h0A10.163,10.163,0,0,0,372,259.719h23.157a10.164,10.164,0,0,0,10.135-10.134h0A10.164,10.164,0,0,0,395.159,239.452Z" transform="translate(-53.777 -36.452)" fill="#ffbf53" fill-rule="evenodd"/>
    <path id="Rectangle_2737" data-name="Rectangle 2737" d="M10.431,0h6.21A10.432,10.432,0,0,1,27.073,10.432v0A10.431,10.431,0,0,1,16.641,20.863H10.431A10.431,10.431,0,0,1,0,10.432v0A10.431,10.431,0,0,1,10.431,0Z" transform="translate(308.091 203)" fill="#ffd87d"/>
    <rect id="Rectangle_2738" data-name="Rectangle 2738" width="30.835" height="19.888" rx="9.944" transform="translate(324.479 220.132)" fill="#ffbf53"/>
    <path id="Path_96559" data-name="Path 96559" d="M390.981,271.678h0a6.6,6.6,0,0,0,6.586,6.586h3.909a6.6,6.6,0,0,0,6.585-6.586h0a6.6,6.6,0,0,0-6.585-6.584h-3.909A6.6,6.6,0,0,0,390.981,271.678Z" transform="translate(-59.625 -41.603)" fill="#ffd87d" fill-rule="evenodd"/>
    <path id="Path_96560" data-name="Path 96560" d="M414.593,271.678h0a6.6,6.6,0,0,0,6.585,6.586h1.375a6.6,6.6,0,0,0,6.586-6.586h0a6.6,6.6,0,0,0-6.586-6.584h-1.375A6.6,6.6,0,0,0,414.593,271.678Z" transform="translate(-64.368 -41.603)" fill="#ffd87d" fill-rule="evenodd"/>
    <rect id="Rectangle_2739" data-name="Rectangle 2739" width="15.516" height="26.723" rx="7.758" transform="translate(359.551 232.011)" fill="#ffbf53"/>
    <path id="Path_96561" data-name="Path 96561" d="M426.681,288.055a7.9,7.9,0,0,0-7.512,6.47,5.366,5.366,0,0,0,5.425,6.468,7.9,7.9,0,0,0,7.512-6.468A5.367,5.367,0,0,0,426.681,288.055Z" transform="translate(-65.27 -46.215)" fill="#ff8f57" fill-rule="evenodd"/>
    <path id="Path_96562" data-name="Path 96562" d="M429,292.479h0a.9.9,0,0,0-1.271,0l-2.59,2.23-.019.016h0a.926.926,0,0,0-.205,1.271h0l.013.016,1.87,2.23a.9.9,0,0,0,1.271,0h0a.926.926,0,0,0,.2-1.271l-1.351-1.611,1.871-1.611A.927.927,0,0,0,429,292.479Z" transform="translate(-66.406 -47.051)" fill="#ab564e" fill-rule="evenodd"/>
    <path id="Path_96563" data-name="Path 96563" d="M402.141,293.788c2.166-.873,4.406-.38,5.005,1.1s-.675,3.394-2.841,4.267-4.407.38-5-1.1S399.974,294.661,402.141,293.788Z" transform="translate(-61.266 -47.28)" fill="#ffa273" fill-rule="evenodd"/>
    <path id="Path_96564" data-name="Path 96564" d="M195.043,318.069a14.626,14.626,0,1,1-11.858,16.948A14.626,14.626,0,0,1,195.043,318.069Z" transform="translate(-17.84 -52.198)" fill="#7ab5f0" fill-rule="evenodd"/>
    <path id="Path_96565" data-name="Path 96565" d="M115.429,237.136a10.294,10.294,0,0,1,20.5,1.871c-.015.159-5.834,55.725,47.063,64.81a10.293,10.293,0,0,1-3.466,20.292C107.6,311.756,115.409,237.349,115.429,237.136Z" transform="translate(-4.224 -34.107)" fill="#ff935f" fill-rule="evenodd"/>
    <path id="Path_96566" data-name="Path 96566" d="M129.851,227.873a10.3,10.3,0,0,1,9.011,11.154c-.016.159-5.834,55.724,47.062,64.809a10.3,10.3,0,0,1,8.458,8.68l-.27-.042C129.735,301.417,129.232,240.66,129.851,227.873Z" transform="translate(-7.154 -34.126)" fill="#f5844c" fill-rule="evenodd"/>
    <path id="Path_96567" data-name="Path 96567" d="M128.752,227.935a10.3,10.3,0,0,1,8.655,11.1,71.415,71.415,0,0,0,.5,15.267l-.271.051c-8.224,1.452-14.993-4.227-15.117-12.686A18.449,18.449,0,0,1,128.752,227.935Z" transform="translate(-5.699 -34.139)" fill="#ab564e" fill-rule="evenodd"/>
    <path id="Path_96568" data-name="Path 96568" d="M377.425,379.2h4.062a.442.442,0,0,1,.442.441v3.971a2.479,2.479,0,0,1-2.472,2.473h0a2.479,2.479,0,0,1-2.472-2.473v-3.971A.442.442,0,0,1,377.425,379.2Z" transform="translate(-56.813 -64.524)" fill="#fff" fill-rule="evenodd"/>
    <path id="Path_96569" data-name="Path 96569" d="M378.226,374.287a7.372,7.372,0,1,1-7.374,7.372,7.372,7.372,0,0,1,7.374-7.372Zm0,2.232a5.14,5.14,0,1,0,5.14,5.14A5.142,5.142,0,0,0,378.226,376.519Z" transform="translate(-55.582 -63.536)" fill="#fff" fill-rule="evenodd"/>
    <path id="Path_96570" data-name="Path 96570" d="M240.88,347.757l3.65-.645a.405.405,0,0,1,.467.327l.63,3.567a2.263,2.263,0,0,1-1.829,2.615h0a2.261,2.261,0,0,1-2.614-1.829l-.63-3.568A.4.4,0,0,1,240.88,347.757Z" transform="translate(-29.408 -58.076)" fill="#fff" fill-rule="evenodd"/>
    <path id="Path_96571" data-name="Path 96571" d="M241.07,343.071a6.728,6.728,0,1,1-5.454,7.8,6.728,6.728,0,0,1,5.454-7.8Zm.355,2.007a4.69,4.69,0,1,0,5.435,3.8A4.692,4.692,0,0,0,241.425,345.078Z" transform="translate(-28.396 -57.245)" fill="#fff" fill-rule="evenodd"/>
    <path id="Path_96572" data-name="Path 96572" d="M320.876,363.451l0,0a4.4,4.4,0,0,1,5.484,2.907l9.22,30.014a4.4,4.4,0,0,1-2.906,5.485h0a4.4,4.4,0,0,1-5.484-2.907l-9.22-30.013A4.4,4.4,0,0,1,320.876,363.451Z" transform="translate(-44.921 -61.32)" fill="#7ab5f0" fill-rule="evenodd"/>
    <path id="Path_96573" data-name="Path 96573" d="M503.791,355.649h0a4.4,4.4,0,0,1,2.748,5.565l-10.077,29.737A4.4,4.4,0,0,1,490.9,393.7h0a4.4,4.4,0,0,1-2.748-5.566L498.225,358.4A4.4,4.4,0,0,1,503.791,355.649Z" transform="translate(-79.096 -59.746)" fill="#7ab5f0" fill-rule="evenodd"/>
    <path id="Path_96574" data-name="Path 96574" d="M172.868,401.57l363.664-10.632,7.289,68.192a8.987,8.987,0,0,1-8.772,10.084L191.023,479.271a10.833,10.833,0,0,1-10.867-9.51Z" transform="translate(-15.813 -66.881)" fill="#e63a4e" fill-rule="evenodd"/>
    <path id="Path_96575" data-name="Path 96575" d="M172.868,401.57l363.664-10.632,1.528,14.294c-35.634,26.323-144.661,45.482-273.65,45.482-30.194,0-59.289-1.053-86.61-3Z" transform="translate(-15.813 -66.881)" fill="#ff5468" fill-rule="evenodd"/>
    <path id="Path_96576" data-name="Path 96576" d="M188.571,383.682c11.188,0,18.792,9.07,16.985,20.257S193.214,424.2,182.028,424.2s-18.792-9.069-16.985-20.257S177.383,383.682,188.571,383.682Z" transform="translate(-14.188 -65.423)" fill="#ff8f57" fill-rule="evenodd"/>
    <path id="Path_96577" data-name="Path 96577" d="M618.946,372.073c-11.188,0-18.792,9.07-16.985,20.256s12.341,20.257,23.528,20.257,18.792-9.07,16.985-20.257S630.132,372.073,618.946,372.073Z" transform="translate(-101.95 -63.091)" fill="#ff8f57" fill-rule="evenodd"/>
    <path id="Path_96578" data-name="Path 96578" d="M393.631,321.562l3.994-.081a2.758,2.758,0,0,0,2.686-3.582l-2.458-10.25a2.075,2.075,0,0,0-1.952-1.537l-9.633.2a3,3,0,0,0-2.918,3.893l.966,4.027A9.911,9.911,0,0,0,393.631,321.562Z" transform="translate(-58.07 -49.842)" fill="#e24757" fill-rule="evenodd"/>
    <path id="Path_96579" data-name="Path 96579" d="M393.923,322.045l3.615-.074a2.5,2.5,0,0,0,2.429-3.242l-.419-1.75-3.15-.064a8.871,8.871,0,0,0-7.064,3.734A8.207,8.207,0,0,0,393.923,322.045Z" transform="translate(-59.294 -52.012)" fill="#ff605c" fill-rule="evenodd"/>
    <path id="Path_96580" data-name="Path 96580" d="M395.763,306.119l-9.371.191a3.017,3.017,0,0,0-2.534,1.312,9.093,9.093,0,0,0,5.137,1.585l3.994-.081A2.719,2.719,0,0,0,395.763,306.119Z" transform="translate(-58.194 -49.843)" fill="#fff" fill-rule="evenodd"/>
    <path id="Path_96581" data-name="Path 96581" d="M369.633,294.563c2.149.914,3.384,2.847,2.759,4.318s-2.875,1.922-5.024,1.007-3.385-2.847-2.759-4.318S367.483,293.649,369.633,294.563Z" transform="translate(-54.295 -47.427)" fill="#faac84" fill-rule="evenodd"/>
    <path id="Path_96582" data-name="Path 96582" d="M372.487,289.4H374.1a1.429,1.429,0,0,1,1.425,1.425v2.445a1.477,1.477,0,0,0-1.373-.917h-1.667a3.139,3.139,0,0,0-2.99,2.119,1.585,1.585,0,0,1-.051-.4v-1.636A3.049,3.049,0,0,1,372.487,289.4Z" transform="translate(-55.299 -46.485)" fill="#ab564e" fill-rule="evenodd"/>
    <path id="Path_96583" data-name="Path 96583" d="M398.713,289.4H397.1a1.429,1.429,0,0,0-1.425,1.425v2.445a1.475,1.475,0,0,1,1.373-.917h1.667a3.138,3.138,0,0,1,2.989,2.119,1.552,1.552,0,0,0,.051-.4v-1.636A3.048,3.048,0,0,0,398.713,289.4Z" transform="translate(-60.567 -46.485)" fill="#ab564e" fill-rule="evenodd"/>
    <path id="Rectangle_2740" data-name="Rectangle 2740" d="M4.306,0h.9A4.305,4.305,0,0,1,9.509,4.305v0A4.305,4.305,0,0,1,5.2,8.612h-.9A4.306,4.306,0,0,1,0,4.306v0A4.306,4.306,0,0,1,4.306,0Z" transform="translate(364.405 234.836)" fill="#ffd87d"/>
    <path id="Path_96584" data-name="Path 96584" d="M141.062,308.37c1.4-1.4,4.322-.762,6.518,1.433s2.836,5.113,1.432,6.517-4.322.763-6.517-1.433S139.658,309.775,141.062,308.37Z" transform="translate(-9.275 -50.146)" fill="#ffa273" fill-rule="evenodd"/>
    <path id="Path_96585" data-name="Path 96585" d="M347.693,252.257a10.468,10.468,0,0,0-2.579,13.357h0a10.461,10.461,0,0,0,14.234,3.874l5.391-3.085.188-.111a12.032,12.032,0,0,1-16.2-4.551v0A11.967,11.967,0,0,1,347.693,252.257Z" transform="translate(-50.137 -39.024)" fill="#ffd87d" fill-rule="evenodd"/>
    <path id="Path_96601" data-name="Path 96601" d="M184.119,386.561c6.562,0,10.266,5.32,8.275,11.881s-8.926,11.882-15.488,11.882-10.266-5.32-8.274-11.882S177.557,386.561,184.119,386.561Z" transform="translate(-14.854 -66.001)" fill="#ffa273" fill-rule="evenodd"/>
    <path id="Path_96608" data-name="Path 96608" d="M325.345,131.756h0a2.7,2.7,0,0,1,3.111,2.2l12.128,70.439a2.7,2.7,0,0,1-2.2,3.112h0a2.7,2.7,0,0,1-3.113-2.2l-12.127-70.44A2.7,2.7,0,0,1,325.345,131.756Z" transform="translate(-45.991 -14.812)" fill="#8a5050" fill-rule="evenodd"/>
    <path id="Path_96609" data-name="Path 96609" d="M329.87,180.986c-8.225,1.454-12.637,9.109-9.856,17.1s11.7,13.29,19.93,11.836,12.638-9.109,9.856-17.1S338.1,179.532,329.87,180.986Z" transform="translate(-45.203 -24.66)" fill="#ff935f" fill-rule="evenodd"/>
    <path id="Path_96610" data-name="Path 96610" d="M106.976,180.483v0a2.7,2.7,0,0,1,3.654,1.078l34.178,62.774a2.7,2.7,0,0,1-1.078,3.654h0a2.7,2.7,0,0,1-3.654-1.079L105.9,184.136A2.7,2.7,0,0,1,106.976,180.483Z" transform="translate(-2.296 -24.541)" fill="#8a5050" fill-rule="evenodd"/>
    <path id="Path_96611" data-name="Path 96611" d="M130.559,217.32c8.225-1.452,14.993,4.227,15.119,12.686s-6.442,16.5-14.666,17.949-14.994-4.226-15.119-12.686S122.334,218.774,130.559,217.32Z" transform="translate(-4.369 -31.961)" fill="#ff935f" fill-rule="evenodd"/>
    <path id="Path_96612" data-name="Path 96612" d="M145.737,160.229l-30.278,37.437a2.206,2.206,0,0,1-3.633-.3L94.438,166.733a2.206,2.206,0,0,1,1.606-3.272l47.667-6.8a2.2,2.2,0,0,1,2.026,3.57Z" transform="translate(0 -19.817)" fill="#7ab5f0" fill-rule="evenodd"/>
    <path id="Path_96613" data-name="Path 96613" d="M272.835,143.414l47.054,10.21a2.2,2.2,0,0,0,2.644-2.508l-5.64-34.77a2.2,2.2,0,0,0-3.3-1.544l-41.414,24.561a2.205,2.205,0,0,0,.657,4.052Z" transform="translate(-35.544 -11.35)" fill="#73af3e" fill-rule="evenodd"/>
    <path id="Path_96614" data-name="Path 96614" d="M119.388,173.556l4.287-2.123a.519.519,0,0,1,.7.237l2.075,4.187a2.919,2.919,0,0,1-1.316,3.9h0a2.919,2.919,0,0,1-3.9-1.317l-2.074-4.188A.521.521,0,0,1,119.388,173.556Z" transform="translate(-5.013 -22.779)" fill="#fff" fill-rule="evenodd"/>
    <path id="Path_96615" data-name="Path 96615" d="M118.361,167.357a8.68,8.68,0,1,1-3.928,11.631,8.68,8.68,0,0,1,3.928-11.631Zm1.165,2.356a6.051,6.051,0,1,0,8.109,2.739A6.053,6.053,0,0,0,119.526,169.713Z" transform="translate(-3.894 -21.789)" fill="#fff" fill-rule="evenodd"/>
    <path id="Path_96616" data-name="Path 96616" d="M308.678,136.337l4.78.1a.521.521,0,0,1,.51.531l-.093,4.673a2.918,2.918,0,0,1-2.968,2.851h0a2.918,2.918,0,0,1-2.851-2.967l.093-4.673A.521.521,0,0,1,308.678,136.337Z" transform="translate(-42.967 -15.74)" fill="#fff" fill-rule="evenodd"/>
    <path id="Path_96617" data-name="Path 96617" d="M309.717,130.606a8.68,8.68,0,1,1-8.851,8.506,8.68,8.68,0,0,1,8.851-8.506Zm-.053,2.629a6.051,6.051,0,1,0,5.929,6.171A6.051,6.051,0,0,0,309.664,133.235Z" transform="translate(-41.523 -14.588)" fill="#fff" fill-rule="evenodd"/>
    <path id="Path_96620" data-name="Path 96620" d="M411.587,113.237v0a3.816,3.816,0,0,1,4.661-2.69l10.869,2.912a3.815,3.815,0,0,1,2.691,4.661v0a3.817,3.817,0,0,1-4.661,2.691l-10.87-2.913A3.816,3.816,0,0,1,411.587,113.237Z" transform="translate(-63.738 -10.533)" fill="#fff" fill-rule="evenodd"/>
    <path id="Path_96621" data-name="Path 96621" d="M394.785,108.734v0a3.816,3.816,0,0,1,4.661-2.69l1.758.471a3.815,3.815,0,0,1,2.691,4.66v0a3.817,3.817,0,0,1-4.661,2.69l-1.757-.471A3.818,3.818,0,0,1,394.785,108.734Z" transform="translate(-60.363 -9.629)" fill="#fff" fill-rule="evenodd"/>
    <path id="Path_96622" data-name="Path 96622" d="M428.072,172.916h0a2.4,2.4,0,0,0,3.236.991l6.248-3.322a2.4,2.4,0,0,0,.989-3.236h0a2.4,2.4,0,0,0-3.236-.99l-6.248,3.321A2.4,2.4,0,0,0,428.072,172.916Z" transform="translate(-67.019 -21.714)" fill="#fff" fill-rule="evenodd"/>
    <path id="Path_96623" data-name="Path 96623" d="M418.413,178.749h0a2.4,2.4,0,0,0,3.235.99l1.011-.537a2.4,2.4,0,0,0,.99-3.236h0a2.4,2.4,0,0,0-3.236-.99l-1.011.537A2.4,2.4,0,0,0,418.413,178.749Z" transform="translate(-65.079 -23.445)" fill="#fff" fill-rule="evenodd"/>
    <path id="Path_96624" data-name="Path 96624" d="M417.588,144.894h0a2.4,2.4,0,0,0,2.659,2.091l7.026-.84a2.4,2.4,0,0,0,2.092-2.66v0a2.4,2.4,0,0,0-2.661-2.091l-7.025.84A2.4,2.4,0,0,0,417.588,144.894Z" transform="translate(-64.966 -16.752)" fill="#fff" fill-rule="evenodd"/>
    <path id="Path_96625" data-name="Path 96625" d="M406.726,146.37h0a2.4,2.4,0,0,0,2.661,2.091l1.136-.136a2.4,2.4,0,0,0,2.091-2.66h0a2.4,2.4,0,0,0-2.66-2.092l-1.137.136A2.4,2.4,0,0,0,406.726,146.37Z" transform="translate(-62.784 -17.19)" fill="#fff" fill-rule="evenodd"/>
    <path id="Path_96626" data-name="Path 96626" d="M550.8,86.415a7.533,7.533,0,0,0-9.077-1.052,4.619,4.619,0,0,0-.7,7.422,7.533,7.533,0,0,0,9.077,1.052,4.618,4.618,0,0,0,.7-7.422Zm10.81-7.04a3.962,3.962,0,0,0-4.776-.555,2.431,2.431,0,0,0-.371,3.907,3.965,3.965,0,0,0,4.776.554A2.43,2.43,0,0,0,561.614,79.375Z" transform="translate(-89.452 -4.074)" fill="#ffcf61" fill-rule="evenodd"/>
    <path id="Path_96627" data-name="Path 96627" d="M695.229,174.18a8.068,8.068,0,0,0-9.721-1.128,4.946,4.946,0,0,0-.753,7.949,8.066,8.066,0,0,0,9.719,1.128,4.947,4.947,0,0,0,.754-7.95Zm11.576-7.54a4.243,4.243,0,0,0-5.114-.592,2.6,2.6,0,0,0-.4,4.182,4.245,4.245,0,0,0,5.115.594A2.6,2.6,0,0,0,706.805,166.64Z" transform="translate(-118.301 -21.587)" fill="#ffcf61" fill-rule="evenodd"/>
    <path id="Path_96628" data-name="Path 96628" d="M595.891,343.388a10.069,10.069,0,0,0-12.132-1.407c-3.61,2.351-4.031,6.793-.941,9.921a10.069,10.069,0,0,0,12.132,1.408c3.611-2.351,4.032-6.793.941-9.922Zm14.45-9.41a5.3,5.3,0,0,0-6.385-.742,3.249,3.249,0,0,0-.495,5.222,5.3,5.3,0,0,0,6.385.741A3.248,3.248,0,0,0,610.341,333.979Z" transform="translate(-97.743 -55.14)" fill="#ff5468" fill-rule="evenodd"/>
    <path id="Path_96629" data-name="Path 96629" d="M181.932,133.9a9.11,9.11,0,0,1,10.976-1.274c3.267,2.128,3.647,6.145.852,8.976a9.109,9.109,0,0,1-10.978,1.274c-3.265-2.126-3.646-6.145-.85-8.976Zm-13.073-8.514a4.792,4.792,0,0,1,5.776-.67,2.939,2.939,0,0,1,.448,4.724,4.8,4.8,0,0,1-5.777.67A2.939,2.939,0,0,1,168.859,125.381Z" transform="translate(-14.81 -13.269)" fill="#7ab5f0" fill-rule="evenodd"/>
    <path id="Path_96630" data-name="Path 96630" d="M672.177,425.58c-1.645-5.871-7.809-10.286-13.768-9.862s-9.454,5.528-7.809,11.4,7.809,10.286,13.768,9.861,9.455-5.529,7.808-11.4Zm23.849-1.7a7.346,7.346,0,0,0-7.245-5.19,4.5,4.5,0,0,0-4.109,6,7.346,7.346,0,0,0,7.245,5.19A4.5,4.5,0,0,0,696.026,423.88Z" transform="translate(-111.692 -71.852)" fill="#ff5468" fill-rule="evenodd"/>
    <path id="Path_96631" data-name="Path 96631" d="M150.388,387.57,123.95,373.743s17.531-1.434,15.8-1.673S98.714,345.3,98.714,345.3l25.043,1.434L107.19,333.823,140.325,349.6l-17.145,3.348L150.535,373.5l-12.051,2.6Z" transform="translate(-0.918 -55.408)" fill="#ff5468" fill-rule="evenodd"/>
    <g id="Group_35175" data-name="Group 35175" transform="translate(521.931 222.312)">
      <path id="Path_96632" data-name="Path 96632" d="M684.695,266.242l27.495,40.331a6.035,6.035,0,0,1-1.583,8.363l-6.553,4.468a6.036,6.036,0,0,1-8.364-1.582L668.2,277.489a6.035,6.035,0,0,1,1.582-8.363l6.554-4.468A6.035,6.035,0,0,1,684.695,266.242Z" transform="translate(-637.03 -263.618)" fill="#7ab5f0" fill-rule="evenodd"/>
      <path id="Path_96633" data-name="Path 96633" d="M719.074,316.673l13.736,20.149a6.042,6.042,0,0,1-.084,6.9l-1.494-2.193a3.646,3.646,0,0,0-5.05-.956l-3.958,2.7a3.645,3.645,0,0,0-.955,5.051l1.494,2.191a6.041,6.041,0,0,1-6.453-2.442L702.575,327.92a6.038,6.038,0,0,1,1.584-8.365l6.551-4.466A6.037,6.037,0,0,1,719.074,316.673Z" transform="translate(-643.936 -273.748)" fill="#4176ab" fill-rule="evenodd"/>
      <path id="Path_96634" data-name="Path 96634" d="M724.076,351.9l-15.306-22.45a3.646,3.646,0,0,1,.956-5.051l3.958-2.7a3.645,3.645,0,0,1,5.051.957l15.305,22.449a3.646,3.646,0,0,0-5.051-.956l-3.958,2.7A3.645,3.645,0,0,0,724.076,351.9Z" transform="translate(-645.263 -275.16)" fill="#fff" fill-rule="evenodd"/>
      <g id="Group_35173" data-name="Group 35173" transform="translate(66.277 49.556)">
        <path id="Path_96635" data-name="Path 96635" d="M718.841,326.114l10.49,15.387a1.111,1.111,0,0,1-.291,1.54l0,0a1.111,1.111,0,0,1-1.54-.292L717.01,327.363a1.11,1.11,0,0,1,.291-1.539l0,0A1.111,1.111,0,0,1,718.841,326.114Z" transform="translate(-713.283 -325.631)" fill="#ffd6d6" fill-rule="evenodd"/>
        <path id="Path_96636" data-name="Path 96636" d="M714.419,329.128l10.49,15.387a1.111,1.111,0,0,1-.292,1.54h0a1.112,1.112,0,0,1-1.541-.291l-10.49-15.387a1.112,1.112,0,0,1,.292-1.541h0A1.11,1.11,0,0,1,714.419,329.128Z" transform="translate(-712.394 -326.236)" fill="#ffd6d6" fill-rule="evenodd"/>
      </g>
      <path id="Rectangle_2741" data-name="Rectangle 2741" d="M1.478,0H6.536A1.477,1.477,0,0,1,8.013,1.477v.986A1.478,1.478,0,0,1,6.536,3.941H1.477A1.477,1.477,0,0,1,0,2.464V1.478A1.478,1.478,0,0,1,1.478,0Z" transform="matrix(0.826, -0.563, 0.563, 0.826, 37.791, 13.326)" fill="#4176ab"/>
      <path id="Path_96637" data-name="Path 96637" d="M690.967,285.607l6.5,9.541a4.019,4.019,0,0,1-1.052,5.567h0a4.018,4.018,0,0,1-5.566-1.054l-6.5-9.54a4.017,4.017,0,0,1,1.052-5.568h0A4.018,4.018,0,0,1,690.967,285.607Z" transform="translate(-640.344 -267.685)" fill="#4176ab" fill-rule="evenodd"/>
      <path id="Path_96638" data-name="Path 96638" d="M704.808,306.049h0a.988.988,0,0,1-.258,1.37l-4.993,3.4a.986.986,0,0,1-1.37-.26h0a.986.986,0,0,1,.259-1.368l4.993-3.4A.987.987,0,0,1,704.808,306.049Z" transform="translate(-643.229 -272.055)" fill="#4176ab" fill-rule="evenodd"/>
      <path id="Path_96639" data-name="Path 96639" d="M649.256,293.957,692.295,337a7.527,7.527,0,0,1,0,10.616L685.3,354.6a7.525,7.525,0,0,1-10.616,0l-43.038-43.038a7.527,7.527,0,0,1,0-10.617l6.991-6.991A7.525,7.525,0,0,1,649.256,293.957Z" transform="translate(-629.458 -269.272)" fill="#ffcf61" fill-rule="evenodd"/>
      <path id="Path_96640" data-name="Path 96640" d="M703.075,347.775l21.5,21.5a7.532,7.532,0,0,1,1.5,8.472l-2.339-2.34a4.545,4.545,0,0,0-6.41,0l-4.224,4.224a4.544,4.544,0,0,0,0,6.408l2.34,2.34a7.533,7.533,0,0,1-8.472-1.5l-21.5-21.5a7.529,7.529,0,0,1,0-10.616l6.992-6.992A7.53,7.53,0,0,1,703.075,347.775Z" transform="translate(-640.268 -280.083)" fill="#ff9e61" fill-rule="evenodd"/>
      <path id="Path_96641" data-name="Path 96641" d="M717.142,390.084l-23.959-23.959a4.545,4.545,0,0,1,0-6.41l4.223-4.223a4.545,4.545,0,0,1,6.41,0l23.959,23.958a4.545,4.545,0,0,0-6.41,0l-4.224,4.223A4.546,4.546,0,0,0,717.142,390.084Z" transform="translate(-641.992 -281.807)" fill="#fff" fill-rule="evenodd"/>
      <g id="Group_35174" data-name="Group 35174" transform="translate(54.28 76.773)">
        <path id="Path_96642" data-name="Path 96642" d="M704.459,360.092l16.421,16.42a1.388,1.388,0,0,1,0,1.956h0a1.388,1.388,0,0,1-1.956,0L702.5,362.048a1.387,1.387,0,0,1,0-1.955h0A1.386,1.386,0,0,1,704.459,360.092Z" transform="translate(-698.329 -359.688)" fill="#ffd6d6" fill-rule="evenodd"/>
        <path id="Path_96643" data-name="Path 96643" d="M699.739,364.812l16.421,16.421a1.387,1.387,0,0,1,0,1.955h0a1.385,1.385,0,0,1-1.956,0l-16.421-16.42a1.389,1.389,0,0,1,0-1.956h0A1.387,1.387,0,0,1,699.739,364.812Z" transform="translate(-697.381 -360.637)" fill="#ffd6d6" fill-rule="evenodd"/>
      </g>
      <path id="Path_96644" data-name="Path 96644" d="M650.46,306.135l1.391,1.391a1.479,1.479,0,0,1,0,2.084l-4.983,4.982a1.477,1.477,0,0,1-2.084,0l-1.391-1.391a1.478,1.478,0,0,1,0-2.084l4.983-4.982A1.477,1.477,0,0,1,650.46,306.135Z" transform="translate(-632.17 -272.072)" fill="#ff9e61" fill-rule="evenodd"/>
      <path id="Path_96645" data-name="Path 96645" d="M661.065,316.74l10.181,10.181a5.011,5.011,0,0,1,0,7.066h0a5.011,5.011,0,0,1-7.066,0L654,323.806a5.012,5.012,0,0,1,0-7.067h0A5.011,5.011,0,0,1,661.065,316.74Z" transform="translate(-634.094 -273.996)" fill="#ff9e61" fill-rule="evenodd"/>
      <path id="Path_96646" data-name="Path 96646" d="M682.8,338.479h0a1.23,1.23,0,0,1,0,1.737l-5.328,5.329a1.231,1.231,0,0,1-1.738,0h0a1.233,1.233,0,0,1,0-1.739l5.328-5.328A1.231,1.231,0,0,1,682.8,338.479Z" transform="translate(-638.682 -278.583)" fill="#ff9e61" fill-rule="evenodd"/>
    </g>
    <path id="Path_96655" data-name="Path 96655" d="M468.136,349.767c8.4,2.175,14.587,6.375,13.808,9.38s-8.221,3.677-16.624,1.5-14.587-6.375-13.809-9.38S459.732,347.593,468.136,349.767Z" transform="translate(-71.77 -58.354)" fill="#4f86bd" fill-rule="evenodd"/>
    <path id="Path_96656" data-name="Path 96656" d="M659.773,257.265l26.439-13.827s-17.531-1.434-15.8-1.674,41.032-26.773,41.032-26.773L686.4,216.426l16.568-12.908-33.136,15.777,17.145,3.347L659.627,243.2l12.051,2.6Z" transform="translate(-113.587 -29.234)" fill="#ff5468" fill-rule="evenodd"/>
    <path id="Path_96657" data-name="Path 96657" d="M375.291,123.122l-20.247-21.914s16.991,4.546,15.438,3.738-29.637-39.015-29.637-39.015l23.1,9.774L352.688,57.977l25.9,26-17.272-2.616,18.847,28.56-12.224-1.6Z" transform="translate(-49.554)" fill="#ffcf61" fill-rule="evenodd"/>
    <path id="Path_96658" data-name="Path 96658" d="M115.924,438.7a9.109,9.109,0,0,1,10.456-3.575,5.585,5.585,0,0,1,2.738,8.591,9.109,9.109,0,0,1-10.457,3.575,5.585,5.585,0,0,1-2.737-8.59Zm-14.583-5.544a4.8,4.8,0,0,1,5.5-1.881,2.939,2.939,0,0,1,1.44,4.521,4.8,4.8,0,0,1-5.5,1.881A2.94,2.94,0,0,1,101.342,433.157Z" transform="translate(-1.335 -74.93)" fill="#7ab5f0" fill-rule="evenodd"/>
    <g id="Group_35186" data-name="Group 35186">
      <path id="Path_96606" data-name="Path 96606" d="M443.379,113.24c5.744-1.007,11.627-1.718,17.424-2.323a416.848,416.848,0,0,1,44.181-2.193c43.714.1,88.726,6.772,129.428,23.11a2.069,2.069,0,0,1,1.168,2.639l-14.128,38.108a2.067,2.067,0,0,1-2.721,1.2c-35.53-14.5-75.067-20.288-113.3-20.36a368.475,368.475,0,0,0-39.031,1.96c-5.091.534-10.233,1.164-15.28,2.04a2.073,2.073,0,0,1-2.39-1.681l-7.032-40.1a2.066,2.066,0,0,1,1.682-2.394Z" transform="translate(-54.331 -50.652) rotate(11)" fill="#ffb061" fill-rule="evenodd"/>
      <path id="Path_96607" data-name="Path 96607" d="M443.379,113.24c5.744-1.007,11.627-1.718,17.424-2.323a416.848,416.848,0,0,1,44.181-2.193,411.3,411.3,0,0,1,45.2,2.547c24.076,8.753,38.839,19.846,37.852,30.635-.636,6.948-7.725,12.833-19.437,17.275a342.885,342.885,0,0,0-63.169-5.763,368.475,368.475,0,0,0-39.031,1.96c-5.091.534-10.233,1.164-15.28,2.04a2.073,2.073,0,0,1-2.39-1.681l-7.032-40.1a2.066,2.066,0,0,1,1.682-2.394Z" transform="translate(-54.331 -50.652) rotate(11)" fill="#ffcf61" fill-rule="evenodd"/>
      <path id="Path_96787" data-name="Path 96787" d="M-49.14.392a4.247,4.247,0,0,0-2.212,1.6,3.713,3.713,0,0,0-.7,2.212,3.963,3.963,0,0,0,1.4,3.108A4.591,4.591,0,0,0-48.16,8.456a8.71,8.71,0,0,0,1.232.084,9.163,9.163,0,0,0,2.436-.308,13.525,13.525,0,0,0,2.576-1.064L-40.8,9.66a12.136,12.136,0,0,1-6.328,1.792,9.966,9.966,0,0,1-1.26-.056,8.389,8.389,0,0,1-5.1-2.184,6.331,6.331,0,0,1-2.044-4.844A6.629,6.629,0,0,1-54.348.42a7.31,7.31,0,0,1,3.276-2.464A15.284,15.284,0,0,1-46.7-2.772h3.08a5.666,5.666,0,0,1-.6-1.456,18.831,18.831,0,0,1-.35-2.38,8.555,8.555,0,0,0-.868-3.3,2.864,2.864,0,0,0-1.162-1.12,3.424,3.424,0,0,0-1.666-.42,3.947,3.947,0,0,0-3.3,2.044l-2.576-1.484a6.072,6.072,0,0,1,2.436-2.464,6.947,6.947,0,0,1,3.472-.868,6.665,6.665,0,0,1,5.74,2.632,6.009,6.009,0,0,1,.84,1.792,21.581,21.581,0,0,1,.476,3.052,7.881,7.881,0,0,0,.672,2.828,2.151,2.151,0,0,0,2.1,1.148h.392V0H-45.7A12.21,12.21,0,0,0-49.14.392Zm19.656-14.616a6.665,6.665,0,0,1,5.74,2.632,6.254,6.254,0,0,1,.854,1.806,18.727,18.727,0,0,1,.462,3.038,8.512,8.512,0,0,0,.672,2.828,2.248,2.248,0,0,0,2.128,1.148h.084V0H-38.556V-2.772h13.692a5.3,5.3,0,0,1-.588-1.456,21.571,21.571,0,0,1-.336-2.38,8.555,8.555,0,0,0-.868-3.3,2.906,2.906,0,0,0-1.19-1.134,3.518,3.518,0,0,0-1.666-.406,3.837,3.837,0,0,0-3.276,2.044l-2.6-1.484a6.072,6.072,0,0,1,2.436-2.464A6.947,6.947,0,0,1-29.484-14.224ZM-28.028,5.74h-3.416V2.324h3.416Zm15.512-25.732V-5.74a3.235,3.235,0,0,0,.728,2.24,2.169,2.169,0,0,0,1.708.728h.728V0h-.784a5.516,5.516,0,0,1-4.508-1.792A6.531,6.531,0,0,1-15.932-6.1V-19.992ZM-2.128-16.38H-5.544V-19.8h3.416Zm0,2.464V-6.1A6.066,6.066,0,0,1-3.892-1.288,6.12,6.12,0,0,1-8.036,0H-9.884V-2.772h1.848A2.243,2.243,0,0,0-6.1-3.7a3.439,3.439,0,0,0,.56-2.044v-8.176Z" transform="matrix(0.951, 0.309, -0.309, 0.951, 470.265, 195.94)" fill="#363848"/>
    </g>
    <path id="Path_96659" data-name="Path 96659" d="M-267.908-26.668h-3.423V-30.7h3.423Zm5.5,0h-3.423V-30.7h3.423Zm2.685,2.383v10.908a3.925,3.925,0,0,0,.839,2.652,2.593,2.593,0,0,0,2.081.906h.873V-6.5h-.94q-3.726,0-5.471-2.316A8.221,8.221,0,0,1-264.669-7.7a8.824,8.824,0,0,1-2.635.436,6.6,6.6,0,0,1-5.27-2.047,8.1,8.1,0,0,1-1.645-5.437v-1.309q0-3.961,2.182-5.907a6.871,6.871,0,0,1,4.732-1.577,8.612,8.612,0,0,1,3.491.7v-1.443Zm-7.25,4.061q-3.155,0-3.155,3.692v2.215q0,3.726,3.155,3.726a4.963,4.963,0,0,0,3.323-1.309,12.428,12.428,0,0,1-.168-2.316v-5.1A4.863,4.863,0,0,0-266.968-20.224ZM-243.642-6.5H-246.9q-2.282,0-2.853-1.242a7.766,7.766,0,0,1-4.6,1.242h-2.215V-9.819h2.215a2.689,2.689,0,0,0,2.316-1.108,4.122,4.122,0,0,0,.671-2.45v-9.8h4.095v9.364a7.519,7.519,0,0,1-.806,3.692,1.765,1.765,0,0,0,1.175.3h3.256ZM-252.905.385h-3.424V-3.643h3.424Zm5.5,0h-3.423V-3.643h3.423ZM-233.707-26.1h-6.612V-28.01h1.108a3.082,3.082,0,0,1-.369-1.51,2.7,2.7,0,0,1,.873-2.014,2.931,2.931,0,0,1,2.115-.806,2.991,2.991,0,0,1,1.544.436,2.274,2.274,0,0,1,1.007,1.108l-1.51.873-.067-.1a1.092,1.092,0,0,0-.94-.571q-.973,0-.973,1.208a1.242,1.242,0,0,0,.453.99,1.723,1.723,0,0,0,1.158.386h2.215Zm-1.275,2.92v9.364q0,3.927-2.115,5.773A7.336,7.336,0,0,1-242.064-6.5h-2.215V-9.819h2.215a2.689,2.689,0,0,0,2.316-1.108,4.122,4.122,0,0,0,.671-2.45v-9.8Zm9.2-7.283v17.084a3.878,3.878,0,0,0,.873,2.685,2.6,2.6,0,0,0,2.047.873h.873V-6.5h-.94a6.612,6.612,0,0,1-5.4-2.148,7.829,7.829,0,0,1-1.544-5.169V-30.46Zm30.979,24h-2.652a3.105,3.105,0,0,1-2.786-1.074,7.829,7.829,0,0,1-4.2,1.04h-5.639a6.725,6.725,0,0,1-3.021-.6,6.509,6.509,0,0,1-2.987.6h-6.545V-9.819h5.169a4.251,4.251,0,0,1-1.04-1.645,5.693,5.693,0,0,1-.436-2.081,6.148,6.148,0,0,1,1.443-4.263,5.34,5.34,0,0,1,3.356-1.745l1.51-2.954a13.827,13.827,0,0,1,5.269-1.04,9.8,9.8,0,0,1,7.485,2.954,9.7,9.7,0,0,1,2.517,6.914,8.508,8.508,0,0,1-.772,3.826,2.192,2.192,0,0,0,.638.067h2.685Zm-6.646-7.149a6.438,6.438,0,0,0-1.947-4.9,6.611,6.611,0,0,0-4.732-1.712,19.07,19.07,0,0,0-4.7.6,5.292,5.292,0,0,1,4.2,1.98,6.284,6.284,0,0,1,1.309,4.095,5.693,5.693,0,0,1-.436,2.081,4.252,4.252,0,0,1-1.04,1.645h4.33a2.619,2.619,0,0,0,2.349-1.175A4.637,4.637,0,0,0-201.452-13.611Zm-11.68,3.491a2.967,2.967,0,0,0,1.779-1.225,3.843,3.843,0,0,0,.671-2.266,4.1,4.1,0,0,0-.6-2.316,2.055,2.055,0,0,0-1.846-1.007,2.107,2.107,0,0,0-1.779.906,3.968,3.968,0,0,0-.671,2.417,3.843,3.843,0,0,0,.671,2.266A2.967,2.967,0,0,0-213.132-10.121Zm26.985-16.043h-4.095v-4.095h4.095ZM-182.522-6.5h-3.256q-2.282,0-2.853-1.242a7.766,7.766,0,0,1-4.6,1.242h-2.215V-9.819h2.215a2.689,2.689,0,0,0,2.316-1.108,4.122,4.122,0,0,0,.671-2.45v-9.8h4.095v9.364a7.519,7.519,0,0,1-.806,3.692,1.764,1.764,0,0,0,1.175.3h3.256Zm8.659-23.964v16.648q0,3.927-2.115,5.773A7.336,7.336,0,0,1-180.945-6.5h-2.215V-9.819h2.215a2.689,2.689,0,0,0,2.316-1.108,4.122,4.122,0,0,0,.671-2.45V-30.46Zm9.2,0V-6.5h-4.095V-30.46Zm17.856,3.793h-3.423V-30.7h3.423Zm5.5,0h-3.423V-30.7h3.423Zm2.685,2.383v10.908a3.925,3.925,0,0,0,.839,2.652,2.593,2.593,0,0,0,2.081.906h.873V-6.5h-.94q-3.726,0-5.471-2.316A8.222,8.222,0,0,1-143.572-7.7a8.824,8.824,0,0,1-2.635.436,6.6,6.6,0,0,1-5.269-2.047,8.1,8.1,0,0,1-1.645-5.437v-1.309q0-3.961,2.182-5.907a6.871,6.871,0,0,1,4.732-1.577,8.612,8.612,0,0,1,3.491.7v-1.443Zm-7.25,4.061q-3.155,0-3.155,3.692v2.215q0,3.726,3.155,3.726a4.963,4.963,0,0,0,3.323-1.309,12.427,12.427,0,0,1-.168-2.316v-5.1A4.863,4.863,0,0,0-145.871-20.224Zm21.279-3.323a7.989,7.989,0,0,1,6.881,3.155,7.5,7.5,0,0,1,1.024,2.165,22.446,22.446,0,0,1,.554,3.642,10.2,10.2,0,0,0,.806,3.39,2.694,2.694,0,0,0,2.551,1.376h.436V-6.5h-23.125V-9.819h16.413a6.354,6.354,0,0,1-.7-1.745,25.861,25.861,0,0,1-.4-2.853,10.254,10.254,0,0,0-1.04-3.961,3.484,3.484,0,0,0-1.426-1.359,4.217,4.217,0,0,0-2-.487,4.6,4.6,0,0,0-3.927,2.45l-3.121-1.779a7.278,7.278,0,0,1,2.92-2.954A8.327,8.327,0,0,1-124.591-23.546ZM-122.846.385h-4.095V-3.71h4.095Zm22.79-6.881h-3.256q-2.282,0-2.853-1.242a7.766,7.766,0,0,1-4.6,1.242h-2.215V-9.819h2.215a2.689,2.689,0,0,0,2.316-1.108,4.122,4.122,0,0,0,.671-2.45v-9.8h4.095v9.364a7.519,7.519,0,0,1-.806,3.692,1.765,1.765,0,0,0,1.175.3h3.256ZM-109.32.385h-3.423V-3.643h3.423Zm5.5,0h-3.423V-3.643h3.423ZM-94.451-26.2h-3.423v-4.028h3.423Zm5.5,0H-92.37v-4.028h3.423Zm1.175,19.7h-3.256q-2.282,0-2.853-1.242a7.766,7.766,0,0,1-4.6,1.242h-2.215V-9.819h2.215a2.689,2.689,0,0,0,2.316-1.108,4.122,4.122,0,0,0,.671-2.45v-9.8H-91.4v9.364a7.519,7.519,0,0,1-.806,3.692,1.765,1.765,0,0,0,1.175.3h3.256Zm8.659-19.668h-4.095v-4.095h4.095ZM-75.488-6.5h-3.256q-2.282,0-2.853-1.242a7.766,7.766,0,0,1-4.6,1.242H-88.41V-9.819h2.215a2.689,2.689,0,0,0,2.316-1.108,4.122,4.122,0,0,0,.671-2.45v-9.8h4.095v9.364a7.519,7.519,0,0,1-.806,3.692,1.764,1.764,0,0,0,1.175.3h3.256Zm8.659-23.964v16.648q0,3.927-2.115,5.773A7.336,7.336,0,0,1-73.91-6.5h-2.215V-9.819h2.215a2.689,2.689,0,0,0,2.316-1.108,4.122,4.122,0,0,0,.671-2.45V-30.46Zm9.2,0V-6.5h-4.095V-30.46Z" transform="translate(509.519 392.136)" fill="#fff"/>
    <g id="Group_35180" data-name="Group 35180" transform="translate(226.19 392.521)">
      <path id="Rectangle_2742" data-name="Rectangle 2742" d="M14.251,0H100.87a14.251,14.251,0,0,1,14.251,14.251v9.276A14.252,14.252,0,0,1,100.869,37.78H14.252A14.252,14.252,0,0,1,0,23.528V14.251A14.251,14.251,0,0,1,14.251,0Z" transform="translate(45.373 0)" fill="#9c9"/>
      <path id="Path_96647" data-name="Path 96647" d="M316.21,467.363H270.074a11.428,11.428,0,0,0-10.693,7.483H264.4a6.894,6.894,0,0,1,6.876,6.875v9.063a6.9,6.9,0,0,1-6.876,6.876h-5.019a11.429,11.429,0,0,0,10.693,7.483H316.21A11.422,11.422,0,0,0,327.6,493.754v-15A11.422,11.422,0,0,0,316.21,467.363Z" transform="translate(-259.381 -467.363)" fill="#a9dea9" fill-rule="evenodd"/>
      <path id="Path_96648" data-name="Path 96648" d="M259.441,499.541h51.406a6.9,6.9,0,0,0,6.876-6.876V483.6a6.9,6.9,0,0,0-6.876-6.875H259.441a6.9,6.9,0,0,1,6.877,6.875v9.063A6.9,6.9,0,0,1,259.441,499.541Z" transform="translate(-259.393 -469.244)" fill="#fff" fill-rule="evenodd"/>
      <g id="Group_35176" data-name="Group 35176" transform="translate(11.895 12.745)">
        <path id="Rectangle_2743" data-name="Rectangle 2743" d="M2.1,0H37.33a2.1,2.1,0,0,1,2.1,2.1v0a2.1,2.1,0,0,1-2.1,2.1H2.1A2.1,2.1,0,0,1,0,2.1v0A2.1,2.1,0,0,1,2.1,0Z" fill="#ffd6d6"/>
        <path id="Rectangle_2744" data-name="Rectangle 2744" d="M2.1,0H37.33a2.1,2.1,0,0,1,2.1,2.1v0a2.1,2.1,0,0,1-2.1,2.1H2.1A2.1,2.1,0,0,1,0,2.1v0A2.1,2.1,0,0,1,2.1,0Z" transform="translate(0 8.093)" fill="#ffd6d6"/>
      </g>
      <path id="Path_96649" data-name="Path 96649" d="M404.7,481.98H382.853a7.6,7.6,0,0,0-7.58,7.58h0a7.6,7.6,0,0,0,7.58,7.58H404.7a7.6,7.6,0,0,0,7.58-7.58h0A7.6,7.6,0,0,0,404.7,481.98Z" transform="translate(-282.66 -470.299)" fill="#a9dea9" fill-rule="evenodd"/>
      <path id="Rectangle_2746" data-name="Rectangle 2746" d="M1.864,0h0A1.865,1.865,0,0,1,3.729,1.865V13.3A1.865,1.865,0,0,1,1.864,15.16h0A1.864,1.864,0,0,1,0,13.3V1.864A1.864,1.864,0,0,1,1.864,0Z" transform="translate(83.374 11.681)" fill="#a9dea9"/>
      <g id="Group_35178" data-name="Group 35178" transform="translate(114.524 10.99)">
        <path id="Rectangle_2747" data-name="Rectangle 2747" d="M10.182,0H72.073A10.182,10.182,0,0,1,82.256,10.182v6.628A10.182,10.182,0,0,1,72.073,26.993H10.183A10.183,10.183,0,0,1,0,16.81V10.182A10.182,10.182,0,0,1,10.182,0Z" transform="translate(0 0.001)" fill="#ffcf61"/>
        <path id="Path_96650" data-name="Path 96650" d="M493.335,481.116H526.3a8.167,8.167,0,0,1,7.641,5.347h-3.586a4.928,4.928,0,0,0-4.914,4.913v6.475a4.927,4.927,0,0,0,4.914,4.912h3.586a8.166,8.166,0,0,1-7.641,5.347H493.335a8.161,8.161,0,0,1-8.138-8.138V489.254A8.161,8.161,0,0,1,493.335,481.116Z" transform="translate(-419.263 -481.116)" fill="#ff9e61" fill-rule="evenodd"/>
        <path id="Path_96651" data-name="Path 96651" d="M535.68,504.108H498.951a4.927,4.927,0,0,1-4.914-4.912V492.72a4.928,4.928,0,0,1,4.914-4.913H535.68a4.927,4.927,0,0,0-4.912,4.913V499.2A4.926,4.926,0,0,0,535.68,504.108Z" transform="translate(-421.039 -482.46)" fill="#fff" fill-rule="evenodd"/>
        <g id="Group_35177" data-name="Group 35177" transform="translate(78.005 9.108)">
          <path id="Path_96652" data-name="Path 96652" d="M501.8,492.513h25.174a1.5,1.5,0,0,1,1.5,1.5h0a1.5,1.5,0,0,1-1.5,1.5H501.8a1.5,1.5,0,0,1-1.5-1.5h0A1.5,1.5,0,0,1,501.8,492.513Z" transform="translate(-500.303 -492.513)" fill="#ffd6d6" fill-rule="evenodd"/>
          <path id="Path_96653" data-name="Path 96653" d="M501.8,499.748h25.174a1.5,1.5,0,0,1,1.5,1.5h0a1.5,1.5,0,0,1-1.5,1.5H501.8a1.5,1.5,0,0,1-1.5-1.5h0A1.5,1.5,0,0,1,501.8,499.748Z" transform="translate(-500.303 -493.966)" fill="#ffd6d6" fill-rule="evenodd"/>
        </g>
        <path id="Rectangle_2748" data-name="Rectangle 2748" d="M2,0h1.33a2,2,0,0,1,2,2V8.836a2,2,0,0,1-2,2H2a2,2,0,0,1-2-2V2A2,2,0,0,1,2,0Z" transform="translate(12.572 8.347)" fill="#ff9e61"/>
        <path id="Path_96654" data-name="Path 96654" d="M435.715,491.561h15.609a5.432,5.432,0,0,1,5.416,5.416h0a5.432,5.432,0,0,1-5.416,5.417H435.715a5.433,5.433,0,0,1-5.417-5.417h0A5.433,5.433,0,0,1,435.715,491.561Z" transform="translate(-408.236 -483.214)" fill="#ff9e61" fill-rule="evenodd"/>
        <path id="Rectangle_2749" data-name="Rectangle 2749" d="M1.332,0h0A1.332,1.332,0,0,1,2.664,1.332V9.5a1.332,1.332,0,0,1-1.332,1.332h0A1.332,1.332,0,0,1,0,9.5V1.332A1.332,1.332,0,0,1,1.332,0Z" transform="translate(52.44 8.347)" fill="#ff9e61"/>
      </g>
    </g>
  </g>
</svg>
