<svg xmlns="http://www.w3.org/2000/svg" width="46.687" height="48" viewBox="0 0 46.687 48">
  <g id="XMLID_1203_" transform="translate(-7.005)">
    <g id="XMLID_1116_" transform="translate(7.005)">
      <g id="XMLID_386_">
        <path id="XMLID_387_" d="M151.553,51.875h1.361a.937.937,0,0,0,0-1.875h-1.361a.215.215,0,0,1-.215-.215v-.91h1.218a.937.937,0,0,0,0-1.875h-1.218v-.91a.215.215,0,0,1,.215-.215h1.361a.937.937,0,0,0,0-1.875h-1.361a2.093,2.093,0,0,0-2.09,2.09v3.694A2.093,2.093,0,0,0,151.553,51.875Z" transform="translate(-136.108 -39.875)" fill="#039a7b"/>
        <path id="XMLID_388_" d="M214.634,50h-1.609a.937.937,0,1,0,0,1.875h1.609a2.438,2.438,0,0,0,0-4.875h-.109a.563.563,0,1,1,0-1.125H215.6a.937.937,0,1,0,0-1.875h-1.079a2.437,2.437,0,1,0,0,4.875h.109a.563.563,0,0,1,0,1.125Z" transform="translate(-192.861 -39.875)" fill="#039a7b"/>
        <path id="XMLID_389_" d="M90.285,44H87.191a.938.938,0,0,0,0,1.875H87.8v5.063a.938.938,0,0,0,1.875,0V45.875h.609a.938.938,0,0,0,0-1.875Z" transform="translate(-78.824 -39.875)" fill="#039a7b"/>
        <path id="XMLID_390_" d="M279.691,45.875h.609v5.063a.938.938,0,0,0,1.875,0V45.875h.609a.938.938,0,0,0,0-1.875h-3.094a.938.938,0,0,0,0,1.875Z" transform="translate(-253.278 -39.875)" fill="#039a7b"/>
        <path id="XMLID_895_" d="M75.149,168H71.4a.938.938,0,0,0-.937.938v3.75a.938.938,0,0,0,.938.938h3.75a.938.938,0,0,0,.938-.937v-3.75A.937.937,0,0,0,75.149,168Zm-.937,3.75H72.337v-1.875h1.875Z" transform="translate(-64.513 -152.25)" fill="#039a7b"/>
        <path id="XMLID_896_" d="M323.626,208.938a.938.938,0,1,0,.275-.663A.944.944,0,0,0,323.626,208.938Z" transform="translate(-293.943 -188.5)" fill="#039a7b"/>
        <path id="XMLID_897_" d="M163.582,208H151.066a.938.938,0,1,0,0,1.875h12.516a.938.938,0,0,0,0-1.875Z" transform="translate(-136.711 -188.5)" fill="#039a7b"/>
        <path id="XMLID_941_" d="M75.149,272H71.4a.938.938,0,0,0-.937.938v3.75a.938.938,0,0,0,.938.938h3.75a.938.938,0,0,0,.938-.937v-3.75A.937.937,0,0,0,75.149,272Zm-.937,3.75H72.337v-1.875h1.875Z" transform="translate(-64.513 -246.5)" fill="#039a7b"/>
        <path id="XMLID_982_" d="M75.149,376H71.4a.938.938,0,0,0-.937.938v3.75a.938.938,0,0,0,.938.938h3.75a.938.938,0,0,0,.938-.937v-3.75A.937.937,0,0,0,75.149,376Zm-.937,3.75H72.337v-1.875h1.875Z" transform="translate(-64.513 -340.75)" fill="#039a7b"/>
        <path id="XMLID_983_" d="M159.117,416h-8.051a.938.938,0,1,0,0,1.875h8.051a.938.938,0,0,0,0-1.875Z" transform="translate(-136.711 -377)" fill="#039a7b"/>
        <path id="XMLID_1111_" d="M51.911,7.462a3.562,3.562,0,0,0-4.866,1.3l-.9,1.563h0L44.88,12.515V3.188A3.191,3.191,0,0,0,41.693,0h-31.5A3.191,3.191,0,0,0,7.005,3.188V44.813A3.191,3.191,0,0,0,10.193,48h31.5a3.191,3.191,0,0,0,3.188-3.187V26.906a.933.933,0,0,0-.009-.125l7.442-12.89.9-1.563A3.567,3.567,0,0,0,51.911,7.462ZM49.693,8.917a1.687,1.687,0,0,1,1.9,2.474l-.434.751-2.923-1.687.434-.751A1.676,1.676,0,0,1,49.693,8.917ZM38.282,34.443l-2.923-1.687L47.3,12.078l2.923,1.688Zm-3.46.167,2.123,1.226L34.393,37.8ZM43,44.813a1.314,1.314,0,0,1-1.312,1.313h-31.5A1.314,1.314,0,0,1,8.88,44.813V3.188a1.314,1.314,0,0,1,1.313-1.312h31.5A1.314,1.314,0,0,1,43,3.188V15.75s0,.008,0,.012L35.218,29.25H21.36a.938.938,0,0,0,0,1.875H34.136l-.869,1.5a.939.939,0,0,0-.117.344l-.917,6.839a.937.937,0,0,0,1.5.867L39.2,36.466a.94.94,0,0,0,.239-.274L43,30.013Z" transform="translate(-7.005)" fill="#039a7b"/>
      </g>
    </g>
  </g>
</svg>
