<svg xmlns="http://www.w3.org/2000/svg" width="18" height="18" viewBox="0 0 18 18">
  <g id="Time_Circle_1" data-name="Time Circle 1" transform="translate(0 0)">
    <rect id="Time_Circle_1_Background_Mask_" data-name="Time Circle 1 (Background/Mask)" width="18" height="18" transform="translate(0 0)" fill="none"/>
    <g id="Group_1469" data-name="Group 1469" transform="translate(1.127 1.213)">
      <path id="Vector_Stroke_" data-name="Vector (Stroke)" d="M7.766,15.532a7.766,7.766,0,1,1,7.766-7.766A7.775,7.775,0,0,1,7.766,15.532Zm0-14.154a6.389,6.389,0,1,0,6.389,6.388A6.4,6.4,0,0,0,7.766,1.378Z" fill="#006490"/>
      <path id="Vector_Stroke_2" data-name="Vector (Stroke)" d="M1.377.689V4.006l2.549,1.52A.689.689,0,0,1,3.22,6.709L.336,4.989A.689.689,0,0,1,0,4.4V.689a.689.689,0,1,1,1.377,0Z" transform="translate(6.818 3.899)" fill="#006490"/>
    </g>
  </g>
</svg>
