<svg xmlns="http://www.w3.org/2000/svg" width="29.324" height="24" viewBox="0 0 29.324 24">
  <path id="twitter_1_" data-name="twitter (1)" d="M10.94,24a25.162,25.162,0,0,1-3.886-.309,18.239,18.239,0,0,1-5.316-1.935L0,20.807l1.881-.619c2.056-.676,3.307-1.1,4.855-1.752a6.459,6.459,0,0,1-3.321-3.847L2.979,13.26l.359.055a6.525,6.525,0,0,1-.817-1.008A6.186,6.186,0,0,1,1.471,8.629l.082-1.16.694.269a6.49,6.49,0,0,1-.629-1.763A6.708,6.708,0,0,1,2.333,1.46l.6-1.11.809.971A14.885,14.885,0,0,0,13.389,6.75a5.767,5.767,0,0,1,.35-3.064,5.737,5.737,0,0,1,2.332-2.674,7.006,7.006,0,0,1,4.066-1A6.494,6.494,0,0,1,24.129,1.66a13.4,13.4,0,0,0,1.461-.488c.32-.121.684-.258,1.138-.414L28.4.181,27.312,3.3c.072-.006.146-.011.224-.015l1.789-.081L28.267,4.651c-.061.083-.076.106-.1.139-.085.128-.191.288-1.643,2.226a2.734,2.734,0,0,0-.511,1.78,16.836,16.836,0,0,1-.919,6.772,11.983,11.983,0,0,1-3.217,4.765,14.207,14.207,0,0,1-6.734,3.256A20.732,20.732,0,0,1,10.94,24Zm0,0" transform="translate(0 0)" fill="#fff"/>
</svg>
