<svg xmlns="http://www.w3.org/2000/svg" xmlns:xlink="http://www.w3.org/1999/xlink" width="58" height="58" viewBox="0 0 58 58">
  <defs>
    <linearGradient id="linear-gradient" x1="0.348" y1="0.348" x2="0.937" y2="0.937" gradientUnits="objectBoundingBox">
      <stop offset="0" stop-color="#ffce47"/>
      <stop offset="1" stop-color="#ff9356"/>
    </linearGradient>
    <linearGradient id="linear-gradient-2" x1="-4.357" y1="0.348" x2="-3.768" y2="0.937" xlink:href="#linear-gradient"/>
    <linearGradient id="linear-gradient-3" x1="0.348" y1="0.348" x2="0.937" y2="0.937" gradientUnits="objectBoundingBox">
      <stop offset="0" stop-color="#edf5ff"/>
      <stop offset="1" stop-color="#c7e9ff"/>
    </linearGradient>
    <linearGradient id="linear-gradient-4" x1="0.663" y1="0.661" x2="-0.084" y2="-0.097" gradientUnits="objectBoundingBox">
      <stop offset="0" stop-color="#7acbff" stop-opacity="0"/>
      <stop offset="1" stop-color="#2f73a0"/>
    </linearGradient>
    <linearGradient id="linear-gradient-5" x1="0.304" y1="0.304" x2="0.723" y2="0.723" gradientUnits="objectBoundingBox">
      <stop offset="0" stop-color="#2f73a0"/>
      <stop offset="1" stop-color="#43765a"/>
    </linearGradient>
    <linearGradient id="linear-gradient-7" x1="36.56" y1="-91.901" x2="36.979" y2="-91.482" xlink:href="#linear-gradient-5"/>
    <linearGradient id="linear-gradient-8" x1="49.688" y1="-78.773" x2="50.107" y2="-78.353" xlink:href="#linear-gradient-5"/>
    <linearGradient id="linear-gradient-9" x1="26.102" y1="-19.658" x2="26.521" y2="-19.239" xlink:href="#linear-gradient-5"/>
    <linearGradient id="linear-gradient-10" x1="32.618" y1="-17.927" x2="33.038" y2="-17.508" xlink:href="#linear-gradient-5"/>
    <linearGradient id="linear-gradient-11" x1="18.329" y1="-124.216" x2="18.748" y2="-123.796" xlink:href="#linear-gradient-5"/>
    <linearGradient id="linear-gradient-12" x1="29.726" y1="-104.571" x2="30.146" y2="-104.152" xlink:href="#linear-gradient-5"/>
    <linearGradient id="linear-gradient-13" x1="-4.556" y1="1.595" x2="-4.136" y2="2.014" xlink:href="#linear-gradient-5"/>
    <linearGradient id="linear-gradient-14" x1="-11.072" y1="3.326" x2="-10.652" y2="3.745" xlink:href="#linear-gradient-5"/>
    <linearGradient id="linear-gradient-15" x1="50.979" y1="-87.042" x2="51.399" y2="-86.622" xlink:href="#linear-gradient-5"/>
    <linearGradient id="linear-gradient-16" x1="39.582" y1="-67.397" x2="40.001" y2="-66.978" xlink:href="#linear-gradient-5"/>
    <linearGradient id="linear-gradient-17" x1="0.095" y1="0.098" x2="0.533" y2="0.541" gradientUnits="objectBoundingBox">
      <stop offset="0" stop-color="#ff755c"/>
      <stop offset="1" stop-color="#ff4181"/>
    </linearGradient>
    <linearGradient id="linear-gradient-18" x1="0.265" y1="0.464" x2="2.079" y2="0.841" gradientUnits="objectBoundingBox">
      <stop offset="0" stop-color="#843561" stop-opacity="0"/>
      <stop offset="1" stop-color="#3a2f4d"/>
    </linearGradient>
    <linearGradient id="linear-gradient-19" x1="0.464" y1="0.5" x2="-0.173" y2="0.5" xlink:href="#linear-gradient-18"/>
    <linearGradient id="linear-gradient-20" x1="0.652" y1="0.754" x2="-0.323" y2="0.137" xlink:href="#linear-gradient-18"/>
    <linearGradient id="linear-gradient-21" x1="-29.768" y1="25.441" x2="-28.796" y2="25.441" gradientUnits="objectBoundingBox">
      <stop offset="0" stop-color="#ffe0ea"/>
      <stop offset="1" stop-color="#ffc0d5"/>
    </linearGradient>
    <linearGradient id="linear-gradient-22" x1="-13.456" y1="0.5" x2="-12.456" y2="0.5" xlink:href="#linear-gradient"/>
    <linearGradient id="linear-gradient-23" x1="-14.26" y1="0.632" x2="-14.581" y2="0.311" xlink:href="#linear-gradient"/>
    <linearGradient id="linear-gradient-24" x1="-106.251" y1="89.506" x2="-105.375" y2="89.506" gradientUnits="objectBoundingBox">
      <stop offset="0" stop-color="#2f73a0"/>
      <stop offset="1" stop-color="#174461"/>
    </linearGradient>
    <linearGradient id="linear-gradient-25" x1="-2.931" y1="20.614" x2="-1.931" y2="20.614" xlink:href="#linear-gradient-21"/>
    <linearGradient id="linear-gradient-26" x1="-8.439" y1="5.722" x2="-5.985" y2="5.722" xlink:href="#linear-gradient"/>
    <linearGradient id="linear-gradient-27" x1="-16.347" y1="5.842" x2="-17.962" y2="5.577" xlink:href="#linear-gradient"/>
    <linearGradient id="linear-gradient-28" x1="-9.367" y1="87.447" x2="-8.516" y2="87.447" xlink:href="#linear-gradient-24"/>
    <linearGradient id="linear-gradient-29" x1="0.348" y1="0.348" x2="0.937" y2="0.937" xlink:href="#linear-gradient-17"/>
  </defs>
  <g id="working-hours_1_" data-name="working-hours (1)" opacity="0.9">
    <circle id="Ellipse_7" data-name="Ellipse 7" cx="29" cy="29" r="29" fill="url(#linear-gradient)"/>
    <circle id="Ellipse_8" data-name="Ellipse 8" cx="25.718" cy="25.718" r="25.718" transform="translate(3.282 3.282)" fill="url(#linear-gradient-2)"/>
    <circle id="Ellipse_9" data-name="Ellipse 9" cx="21.729" cy="21.729" r="21.729" transform="translate(7.271 7.271)" fill="url(#linear-gradient-3)"/>
    <path id="Path_44" data-name="Path 44" d="M226.834,240.858l20.092,20.092a29.167,29.167,0,0,0,6.153-5.968l-19.87-19.87Z" transform="translate(-201.037 -208.375)" fill="url(#linear-gradient-4)"/>
    <g id="Group_29" data-name="Group 29" transform="translate(9.038 9.038)">
      <g id="Group_22" data-name="Group 22">
        <g id="Group_20" data-name="Group 20" transform="translate(18.549)">
          <circle id="Ellipse_10" data-name="Ellipse 10" cx="1.413" cy="1.413" r="1.413" fill="url(#linear-gradient-5)"/>
          <circle id="Ellipse_11" data-name="Ellipse 11" cx="1.413" cy="1.413" r="1.413" transform="translate(0 37.099)" fill="url(#linear-gradient-5)"/>
        </g>
        <g id="Group_21" data-name="Group 21" transform="translate(0 18.549)">
          <circle id="Ellipse_12" data-name="Ellipse 12" cx="1.413" cy="1.413" r="1.413" transform="translate(37.099)" fill="url(#linear-gradient-7)"/>
          <circle id="Ellipse_13" data-name="Ellipse 13" cx="1.413" cy="1.413" r="1.413" fill="url(#linear-gradient-8)"/>
        </g>
      </g>
      <g id="Group_25" data-name="Group 25" transform="translate(2.446 2.446)">
        <g id="Group_23" data-name="Group 23" transform="translate(6.897)">
          <circle id="Ellipse_14" data-name="Ellipse 14" cx="1.413" cy="1.413" r="1.413" transform="translate(18.413)" fill="url(#linear-gradient-9)"/>
          <circle id="Ellipse_15" data-name="Ellipse 15" cx="1.413" cy="1.413" r="1.413" transform="translate(0 32.206)" fill="url(#linear-gradient-10)"/>
        </g>
        <g id="Group_24" data-name="Group 24" transform="translate(0 6.897)">
          <circle id="Ellipse_16" data-name="Ellipse 16" cx="1.413" cy="1.413" r="1.413" transform="translate(32.207 18.413)" fill="url(#linear-gradient-11)"/>
          <circle id="Ellipse_17" data-name="Ellipse 17" cx="1.413" cy="1.413" r="1.413" fill="url(#linear-gradient-12)"/>
        </g>
      </g>
      <g id="Group_28" data-name="Group 28" transform="translate(2.446 2.446)">
        <g id="Group_26" data-name="Group 26" transform="translate(6.897)">
          <circle id="Ellipse_18" data-name="Ellipse 18" cx="1.413" cy="1.413" r="1.413" fill="url(#linear-gradient-13)"/>
          <circle id="Ellipse_19" data-name="Ellipse 19" cx="1.413" cy="1.413" r="1.413" transform="translate(18.413 32.206)" fill="url(#linear-gradient-14)"/>
        </g>
        <g id="Group_27" data-name="Group 27" transform="translate(0 6.897)">
          <circle id="Ellipse_20" data-name="Ellipse 20" cx="1.413" cy="1.413" r="1.413" transform="translate(0 18.413)" fill="url(#linear-gradient-15)"/>
          <circle id="Ellipse_21" data-name="Ellipse 21" cx="1.413" cy="1.413" r="1.413" transform="translate(32.207)" fill="url(#linear-gradient-16)"/>
        </g>
      </g>
    </g>
    <g id="Group_30" data-name="Group 30" transform="translate(29 3.282)">
      <path id="Path_45" data-name="Path 45" d="M255,28.859V54.577l18.185,18.185A25.718,25.718,0,0,0,255,28.859Z" transform="translate(-255 -28.859)" fill="url(#linear-gradient-17)"/>
    </g>
    <path id="Path_46" data-name="Path 46" d="M255,63.931V85.66l15.365,15.365A21.729,21.729,0,0,0,255,63.931Z" transform="translate(-226 -56.66)" fill="url(#linear-gradient-18)"/>
    <path id="Path_47" data-name="Path 47" d="M255.173,28.862l-.173,0V54.578l18.185,18.185a25.638,25.638,0,0,0,7.533-18.185c0-.058,0-.115,0-.173Z" transform="translate(-226 -25.578)" fill="url(#linear-gradient-19)"/>
    <path id="Path_48" data-name="Path 48" d="M392.671,344.9l2.511,7.944.018.018a25.855,25.855,0,0,0,2.513-2.92Z" transform="translate(-348.014 -305.673)" fill="url(#linear-gradient-20)"/>
    <g id="Group_32" data-name="Group 32" transform="translate(25.797 25.797)">
      <g id="Group_31" data-name="Group 31">
        <path id="Path_49" data-name="Path 49" d="M348.3,342.861l2.116,5.919.088,1.626c.13.365-1.718,0-1.718,0l-5.919-2.116C341.357,346.79,346.79,341.356,348.3,342.861Z" transform="translate(-329.435 -329.435)" fill="url(#linear-gradient-21)"/>
        <path id="Path_50" data-name="Path 50" d="M227.141,232.576l13.119,13.118a1.747,1.747,0,0,1,.664-.648,2.058,2.058,0,0,1,1.443.031.181.181,0,0,0,.215-.248,0,0,0,0,1,0,0c-.024-.055-.045-.11-.062-.166l-.024-.08a.009.009,0,0,1,0-.005,1.676,1.676,0,0,1-.048-.261c0-.029-.005-.058-.007-.087q0-.072,0-.144a1.7,1.7,0,0,1,.329-.951,1.725,1.725,0,0,1,.367-.367,1.7,1.7,0,0,1,1.095-.327l.087.007a1.643,1.643,0,0,1,.261.048h.005l.08.024c.029.009.057.019.084.03s.054.021.08.033h0a.179.179,0,0,0,.153,0,.177.177,0,0,0,.1-.213,2.055,2.055,0,0,1-.031-1.442,1.735,1.735,0,0,1,.648-.665l-13.118-13.12a1.05,1.05,0,0,0-1.484,0l-.774.774-2.4,2.4-.774.774A1.05,1.05,0,0,0,227.141,232.576Z" transform="translate(-226.834 -226.834)" fill="url(#linear-gradient-22)"/>
        <path id="Path_51" data-name="Path 51" d="M236.345,238.746l14.665,14.665a.178.178,0,0,0,0-.153,0,0,0,0,1,0,0,3.952,3.952,0,0,1-.135-.512c0-.03-.006-.058-.007-.087a1.7,1.7,0,0,1,.327-1.095,1.724,1.724,0,0,1,.367-.367,1.7,1.7,0,0,1,1.095-.327c.029,0,.058,0,.087.007a1.482,1.482,0,0,1,.261.048h.005c.027.007.218.074.245.086h0a.179.179,0,0,0,.153,0l-14.665-14.666Z" transform="translate(-235.263 -235.263)" fill="url(#linear-gradient-23)"/>
        <path id="Path_52" data-name="Path 52" d="M397.627,397.628a3.781,3.781,0,0,1,.942-.689l.581,1.624a.459.459,0,0,1-.587.587l-1.624-.581A3.782,3.782,0,0,1,397.627,397.628Z" transform="translate(-377.594 -377.594)" fill="url(#linear-gradient-24)"/>
      </g>
    </g>
    <g id="Group_34" data-name="Group 34" transform="translate(25.157 3.254)">
      <g id="Group_33" data-name="Group 33">
        <path id="Path_53" data-name="Path 53" d="M221.216,42.7l2.689-5.681s.987-1.266,1.153-.916l1.153.915L228.9,42.7C228.9,44.83,221.216,44.83,221.216,42.7Z" transform="translate(-221.216 -35.198)" fill="url(#linear-gradient-25)"/>
        <path id="Path_54" data-name="Path 54" d="M228.9,104.192V85.639a1.746,1.746,0,0,1-.928-.012,2.058,2.058,0,0,1-1-1.042.181.181,0,0,0-.328.023,0,0,0,0,1,0,0,1.769,1.769,0,0,1-.073.161l-.04.074a.008.008,0,0,1,0,0,1.677,1.677,0,0,1-.151.218c-.018.022-.038.045-.057.067s-.066.07-.1.1a1.7,1.7,0,0,1-.9.44,1.721,1.721,0,0,1-.519,0,1.7,1.7,0,0,1-1.006-.543c-.019-.022-.039-.044-.057-.067a1.654,1.654,0,0,1-.151-.218.01.01,0,0,1,0,0l-.04-.074c-.014-.027-.027-.053-.039-.081s-.023-.053-.034-.08c0,0,0,0,0,0a.181.181,0,0,0-.328-.023,2.055,2.055,0,0,1-1,1.041,1.736,1.736,0,0,1-.928.013v18.553a1.05,1.05,0,0,0,1.05,1.05h5.586A1.05,1.05,0,0,0,228.9,104.192Z" transform="translate(-221.212 -78.136)" fill="url(#linear-gradient-26)"/>
        <path id="Path_55" data-name="Path 55" d="M243.467,105.327V84.587a.178.178,0,0,0-.109.107,0,0,0,0,1,0,0,3.946,3.946,0,0,1-.266.457c-.018.024-.037.046-.057.067a1.7,1.7,0,0,1-1.006.543,1.72,1.72,0,0,1-.519,0,1.7,1.7,0,0,1-1.006-.543.861.861,0,0,1-.057-.067,1.492,1.492,0,0,1-.151-.218.009.009,0,0,1,0,0c-.014-.024-.1-.207-.112-.234,0,0,0,0,0,0a.178.178,0,0,0-.109-.107v20.74Z" transform="translate(-237.927 -78.222)" fill="url(#linear-gradient-27)"/>
        <path id="Path_56" data-name="Path 56" d="M246.015,30.616a3.784,3.784,0,0,1-1.153-.179l.738-1.559a.459.459,0,0,1,.83,0l.738,1.559A3.783,3.783,0,0,1,246.015,30.616Z" transform="translate(-242.172 -28.615)" fill="url(#linear-gradient-28)"/>
      </g>
    </g>
    <circle id="Ellipse_22" data-name="Ellipse 22" cx="4.733" cy="4.733" r="4.733" transform="translate(24.267 24.267)" fill="url(#linear-gradient-29)"/>
  </g>
</svg>
